<svg width="27" height="24" viewBox="0 0 27 24" xmlns="http://www.w3.org/2000/svg"><title>article</title><path d="M21.738 2.22c-.008-.614-.267-1.2-.716-1.62-.45-.418-1.052-.635-1.666-.6H5.136c.49.705.753 1.542.752 2.4v19.2c0 1.315 1.066 2.38 2.38 2.38 1.316 0 2.382-1.065 2.382-2.38 0-.494.398-.896.892-.9h10.2V2.22h-.004zm-3.263 14.42H9.7c-.497 0-.9-.404-.9-.9 0-.498.403-.9.9-.9h8.777c.497 0 .9.403.9.9-.002.497-.405.9-.902.9zm0-4.773H9.7c-.497 0-.9-.403-.9-.9s.403-.9.9-.9h8.777c.497 0 .9.404.9.9-.002.498-.405.9-.902.9zm0-4.77H9.7c-.497 0-.9-.403-.9-.9s.403-.9.9-.9h8.777c.498 0 .9.405.9.902s-.404.9-.902.9v-.003zM2.215 0C1.216.028.336.668 0 1.61h4.464C4.134.65 3.232.005 2.216 0zm10.122 22.057c.093.842-.394 1.64-1.185 1.943h14.11c1 0 1.384-1.056 1.738-1.936H12.337v-.007z" fill="#FFF" fill-rule="evenodd"/></svg>