<svg width="17" height="28" viewBox="0 0 17 28" xmlns="http://www.w3.org/2000/svg" xmlns:xlink="http://www.w3.org/1999/xlink"><title>Page 1</title><defs><path id="a" d="M16.333 16.57V.42H0v16.15h16.333z"/></defs><g fill="none" fill-rule="evenodd"><g transform="translate(0 -.42)"><mask id="b" fill="#fff"><use xlink:href="#a"/></mask><path d="M12.955 8.494c0-2.604-2.148-4.724-4.788-4.724v-2c3.743 0 6.788 3.016 6.788 6.724h-2zM8.167.42C3.657.42 0 4.033 0 8.493s3.657 8.075 8.167 8.075 8.167-3.616 8.167-8.076c0-4.46-3.657-8.075-8.167-8.075z" fill="#FFF" mask="url(#b)"/></g><path d="M8.167 17.352c-.587 0-1.16-.06-1.717-.162l-.658 1.654h4.75l-.658-1.654c-.558.102-1.13.162-1.717.162M8.86 22.76c-.45-.333-.6-.47-.6-.623 0-.764.704-1.527.976-1.757l-.024-.03h-1.93c-.27.504-.48 1.11-.48 1.787 0 1.188.85 1.816 1.412 2.23.56.416.713.57.713.87 0 .795-.886 1.045-.978 1.07l.298 1.274c.872-.202 2.138-.423 2.138-2.343 0-1.35-.918-2.03-1.525-2.477" fill="#FFF"/></g></svg>