<svg width="21" height="23" viewBox="0 0 21 23" xmlns="http://www.w3.org/2000/svg"><title>calendar</title><path d="M19.07 2.16h-3.38V.648c.01-.232-.108-.45-.307-.568-.2-.12-.448-.12-.647 0-.2.117-.317.335-.308.567V2.16H6.535V.648c.01-.232-.11-.45-.308-.568-.2-.12-.448-.12-.647 0-.2.117-.317.335-.308.567V2.16H1.894C.84 2.176-.006 3.04 0 4.094v16.972C-.01 22.12.838 22.985 1.894 23H19.1c1.06-.01 1.91-.876 1.9-1.935V4.093c-.02-1.06-.872-1.913-1.93-1.932zM1.893 3.45h3.378v1.513c-.01.232.11.45.308.568.2.12.448.12.647 0 .2-.117.317-.335.308-.567V3.45h7.893v1.513c-.01.232.11.45.308.568.2.12.448.12.647 0 .2-.117.317-.335.308-.567V3.45h3.38c.35.003.633.29.63.643V8.28H1.264V4.093c-.002-.352.28-.64.63-.644zM19.07 21.71H1.893c-.352-.006-.633-.293-.63-.645v-11.5H19.73v11.5c-.023.353-.31.63-.663.644zm-3.253-5.057H5.147c-.357 0-.645.288-.645.644 0 .356.288.644.644.644h10.64c.352-.004.633-.29.63-.643.01-.166-.05-.328-.163-.45-.113-.12-.27-.19-.436-.194zm-8.87-2.35h7.1c.355 0 .643-.29.643-.645 0-.356-.288-.644-.644-.644h-7.1c-.34.02-.608.3-.608.643 0 .342.267.624.608.643v.002z" fill="#FFF" fill-rule="evenodd"/></svg>