<svg width="35" height="34" viewBox="0 0 35 34" xmlns="http://www.w3.org/2000/svg" xmlns:xlink="http://www.w3.org/1999/xlink"><title>Page 1</title><defs><path id="a" d="M0 .33V34h35V.33H0z"/></defs><g fill="none" fill-rule="evenodd"><path d="M33.422 12.855H1.577V7.548c0-1.858 1.46-3.318 3.317-3.318h3.98v2.654h1.328V4.23h14.595v2.654h1.327V4.23h3.98c1.858 0 3.318 1.46 3.318 3.318v5.307zm-3.317 19.24H4.895c-1.858 0-3.318-1.46-3.318-3.317V14.182h31.845v14.596c0 1.857-1.46 3.317-3.317 3.317zm0-29.192h-3.98V.25h-1.328v2.653H10.202V.25H8.875v2.653h-3.98C2.306 2.903.25 4.96.25 7.548v21.23c0 2.587 2.057 4.644 4.644 4.644h25.21c2.588 0 4.645-2.057 4.645-4.644V7.548c0-2.588-2.058-4.645-4.645-4.645z" fill="#000"/><g transform="translate(0 -.328)"><mask id="b" fill="#fff"><use xlink:href="#a"/></mask><path d="M1.827 12.934h31.345V7.876c0-1.72-1.347-3.066-3.067-3.066h-3.73v2.653h-1.828V4.81H10.452v2.653H8.625V4.81h-3.73c-1.72 0-3.068 1.347-3.068 3.066v5.058zm31.845.5H1.327V7.876c0-2 1.567-3.566 3.567-3.566h4.23v2.653h.828V4.31h15.095v2.653h.827V4.31h4.23c2 0 3.568 1.566 3.568 3.566v5.558zM1.827 14.76v14.346c0 1.72 1.347 3.068 3.067 3.068h25.21c1.72 0 3.068-1.347 3.068-3.068V14.76H1.827zm28.278 17.914H4.895c-2 0-3.568-1.567-3.568-3.568V14.26h32.345v14.846c0 2-1.567 3.568-3.567 3.568zM4.895 3.482C2.43 3.482.5 5.412.5 7.876v21.23C.5 31.57 2.43 33.5 4.894 33.5h25.21c2.465 0 4.395-1.93 4.395-4.394V7.876c0-2.463-1.93-4.394-4.395-4.394h-4.23V.83h-.828V3.48H9.952V.83h-.827V3.48h-4.23zM30.104 34H4.895C2.15 34 0 31.85 0 29.106V7.876c0-2.744 2.15-4.894 4.894-4.894h3.73V.33h1.828V2.98h14.095V.33h1.827V2.98h3.73C32.85 2.982 35 5.132 35 7.876v21.23C35 31.85 32.85 34 30.104 34z" fill="#000" mask="url(#b)"/></g></g></svg>