<svg width="49" height="49" viewBox="0 0 49 49" xmlns="http://www.w3.org/2000/svg"><title>facebook</title><g fill="none" fill-rule="evenodd"><circle stroke="#AF5D74" cx="24.5" cy="24.5" r="24"/><path d="M34.5 17.83c-.063-1.813-1.52-3.27-3.333-3.33H17.833c-1.814.06-3.27 1.517-3.333 3.33v13.34c.064 1.814 1.52 3.27 3.334 3.33H24.5v-7.56h-2.444v-3.33H24.5v-1.3c-.088-2.192 1.564-4.065 3.75-4.25h2.694v3.33H28.25c-.41.088-.687.473-.64.89v1.33h3.334v3.33H27.61v7.56h3.557c1.814-.06 3.27-1.517 3.333-3.33V17.83z" fill="#AF5D74"/></g></svg>