<svg width="25" height="24" viewBox="0 0 25 24" xmlns="http://www.w3.org/2000/svg"><title>grape</title><path d="M15.8 4.5h.4c.29-.726.29-1.534 0-2.26-.763-1.19-1.99-2.007-3.383-2.25-.013 1.357.41 2.682 1.208 3.78.44.51 1.1.782 1.772.73h.003zm-8.377 6.76c-1.213-1.173-3.137-1.173-4.35 0-1.186 1.204-1.18 3.14.016 4.334 1.194 1.195 3.13 1.202 4.333.016.568-.58.886-1.36.886-2.17-.016-.81-.332-1.588-.888-2.18zm7.41-2.09c-.874-.884-2.197-1.15-3.346-.674-1.15.476-1.896 1.6-1.89 2.844 0 .814.32 1.596.887 2.18 1.207 1.167 3.126 1.15 4.313-.037 1.187-1.187 1.203-3.106.036-4.313zm-4.27 6.52c-.813 0-1.594.318-2.173.89-.775.777-1.077 1.908-.792 2.968.285 1.06 1.114 1.887 2.174 2.17 1.06.283 2.192-.02 2.967-.798.88-.876 1.144-2.198.667-3.346-.478-1.147-1.6-1.892-2.844-1.884zm14.178-8.94c-1.11-1.213-2.707-1.863-4.35-1.77-2.254.16-4.026 1.93-4.912 3.06.08.08.242.16.322.24.213.223.402.468.564.73.644-.81 2.175-2.58 4.19-2.74 1.243-.027 2.44.47 3.3 1.37.276.24.69.24.966 0 .123-.12.185-.292.17-.464-.016-.172-.107-.328-.25-.426zM15.8 18.91c.775.787 1.912 1.098 2.98.814 1.067-.283 1.9-1.117 2.184-2.184.284-1.068-.027-2.205-.814-2.98-1.213-1.173-3.137-1.173-4.35 0-.58.575-.906 1.358-.906 2.175 0 .817.326 1.6.906 2.175zM3.073 17.86c-.813.003-1.593.322-2.175.89-1.186 1.204-1.18 3.14.016 4.334 1.195 1.195 3.13 1.202 4.334.016 1.18-1.21 1.18-3.14 0-4.35-.574-.58-1.36-.903-2.176-.89zm6.444-9.58c.775-.777 1.077-1.908.792-2.968-.286-1.06-1.115-1.887-2.175-2.17-1.06-.283-2.192.02-2.967.798-.58.573-.907 1.355-.907 2.17s.328 1.597.908 2.17c1.23 1.13 3.12 1.13 4.348 0z" fill="#C75D76" fill-rule="evenodd"/></svg>