<svg width="84" height="85" viewBox="0 0 84 85" xmlns="http://www.w3.org/2000/svg"><title>hand</title><g fill="none" fill-rule="evenodd"><circle fill="#D46B84" fill-rule="nonzero" cx="41.609" cy="42.5" r="41.609"/><path d="M23.588 45.8c.295-1.024 1.03-1.863 2.008-2.29 2.053-.76 4.642.86 4.73.96.045 0 4.24 3.58 4.24 3.58l1.116-5.97V23.65c-.045-1.63 1.227-2.993 2.856-3.06.6-.014 1.187.19 1.65.57.37-1.432 1.768-2.347 3.228-2.11 1.46.235 2.498 1.545 2.396 3.02v.19c.45-.3.977-.468 1.518-.48 1.627.07 2.898 1.432 2.856 3.06v3.68c.45-.3.976-.468 1.517-.48 1.625.066 2.897 1.424 2.856 3.05v16.34c0 6.16-.982 8.83-1.696 10.74-.432.965-.674 2.004-.714 3.06.017.25-.107.488-.32.618-.215.13-.484.13-.698 0-.214-.13-.338-.368-.32-.618.018-1.235.29-2.454.8-3.58.668-1.82 1.606-4.35 1.606-10.22V31.09c.04-.567-.242-1.108-.727-1.403-.485-.295-1.094-.295-1.58 0-.485.295-.766.836-.727 1.403v11.99c.017.25-.107.488-.32.618-.215.13-.484.13-.698 0-.214-.13-.338-.368-.32-.618V24.84c.038-.567-.243-1.108-.728-1.403-.486-.295-1.095-.295-1.58 0-.486.295-.767.836-.728 1.403v17.33c.018.25-.105.492-.32.624-.215.132-.485.132-.7 0-.215-.132-.338-.373-.32-.624v-20.1c.04-.567-.24-1.108-.726-1.403-.486-.295-1.095-.295-1.58 0-.486.295-.767.836-.728 1.403v20.1c.017.25-.107.488-.32.618-.215.13-.484.13-.698 0-.214-.13-.338-.368-.32-.618V23.65c.04-.568-.24-1.112-.726-1.41-.486-.295-1.098-.295-1.584 0-.487.298-.766.842-.725 1.41v18.71l-1.34 7.17c-.05.238-.218.434-.446.52-.208.093-.45.058-.624-.09l-5-4.2c-.624-.39-2.365-1.25-3.57-.82-.454.175-.82.52-1.026.96l4.24 3.53.044.05 4.196 4.39c.07.064.116.148.134.24 0 .05 1.7 4.44 4.82 6.59.322.233.4.68.178 1.01-.082.194-.283.308-.49.28-.125-.005-.246-.036-.358-.09-3.213-2.2-4.953-6.31-5.31-7.12l-4.062-4.25-4.64-3.87c-.226-.225-.31-.555-.22-.86z" fill="#FFF"/></g></svg>