<?xml version="1.0" encoding="UTF-8"?>
<svg width="150px" height="150px" viewBox="0 0 150 150" version="1.1" xmlns="http://www.w3.org/2000/svg" xmlns:xlink="http://www.w3.org/1999/xlink">
    <!-- Generator: Sketch 46 (44423) - http://www.bohemiancoding.com/sketch -->
    <title>Group 5</title>
    <desc>Created with Sketch.</desc>
    <defs></defs>
    <g id="Page-1" stroke="none" stroke-width="1" fill="none" fill-rule="evenodd">
        <g id="Group-5">
            <g id="Page-1" transform="translate(29.000000, 15.000000)" fill="#db89a7">
                <path d="M45.477278,76.6529896 C25.8090651,76.6529896 21.6935804,12.7208976 21.3287651,6.24420223 L69.6243769,6.24420223 C69.2595616,12.7208976 65.1461979,76.6529896 45.477278,76.6529896 L45.477278,76.6529896 Z M49.3679346,82.1123513 C49.3679346,84.2505837 47.6223356,85.9900551 45.476571,85.9900551 C43.3308064,85.9900551 41.5852074,84.2505837 41.5852074,82.1123513 C41.5852074,79.9741189 43.3308064,78.2346475 45.476571,78.2346475 C47.6223356,78.2346475 49.3679346,79.9741189 49.3679346,82.1123513 L49.3679346,82.1123513 Z M17.6381913,0.99831147 L73.5065494,0.99831147 L73.5065494,5.24589076 L70.1525107,5.24589076 L20.8006313,5.24589076 L17.6381913,5.24589076 L17.6381913,0.99831147 Z M62.7975225,102.504114 C63.6904716,102.540044 64.5629176,102.557657 65.4615228,102.558362 C65.7139241,102.658405 67.1343001,103.378429 67.2594403,106.846804 L23.6937017,106.846804 C23.8195489,103.390406 25.2455809,102.659814 25.4930332,102.558362 C26.3916384,102.557657 27.2633774,102.53934 28.1697597,102.503409 C32.6041042,102.202577 36.0528818,100.598374 38.4206465,97.7344815 C41.4805704,94.0336134 41.8029654,89.2992076 41.8163985,87.6928913 L49.1402785,87.6928913 C49.1869409,90.2897693 50.1201895,101.645298 62.7975225,102.504114 L62.7975225,102.504114 Z M79.0904865,120.001689 L12.6170314,120.001689 L12.6170314,107.845115 L23.1839501,107.845115 L67.7691919,107.845115 L79.0904865,107.845115 L79.0904865,120.001689 Z M61.7087325,59.2286852 C79.796079,53.5213308 86.6929271,39.2878187 89.2897618,28.3303464 C92.1015265,16.4626282 90.6026728,5.77992046 90.5871187,5.67283271 C90.5510614,5.42765813 90.3403734,5.24589076 90.0915071,5.24589076 L82.5640093,5.24589076 C82.3561494,5.24589076 82.1694997,5.37340972 82.095971,5.56715401 C77.8383781,16.7085073 70.3808738,16.1174111 70.0648419,16.0850029 L69.96374,17.0783827 C70.3059311,17.1114954 78.3396456,17.8019296 82.9069074,6.24420223 L89.6489211,6.24420223 C89.8914243,8.3302998 90.7674053,17.7490902 88.3140929,28.1006713 C84.6906847,43.391675 75.8721931,53.4452421 62.1230383,58.0281752 C68.7250647,38.4135036 70.404205,10.5594159 70.6297401,6.24420223 L74.00711,6.24420223 C74.2842565,6.24420223 74.5083776,6.0208679 74.5083776,5.74469423 L74.5083776,0.498803473 C74.5083776,0.223334323 74.2842565,0 74.00711,0 L17.1376308,0 C16.8604842,0 16.6363632,0.223334323 16.6363632,0.498803473 L16.6363632,5.74469423 C16.6363632,6.0208679 16.8604842,6.24420223 17.1376308,6.24420223 L20.3234019,6.24420223 C20.548937,10.5580068 22.2273703,38.3958905 28.8244477,58.0098575 C15.1155923,53.4205838 6.31760377,43.3839252 2.69348861,28.1302614 C0.233106106,17.7744531 1.10838011,8.33382242 1.35017633,6.24420223 L8.09501803,6.24420223 C12.6629868,17.8012251 20.6931663,17.1114954 21.0360644,17.0783827 L20.9342555,16.0850029 C20.6217586,16.1152975 13.1649614,16.7063937 8.90595445,5.56715401 C8.83242577,5.37340972 8.64577607,5.24589076 8.43791617,5.24589076 L0.908297283,5.24589076 C0.659431007,5.24589076 0.448036073,5.42765813 0.412685749,5.67283271 C0.397131607,5.77992046 -1.1017221,16.4626282 1.71145663,28.3303464 C4.30617037,39.2765463 11.1924134,53.4910362 29.2380464,59.2103676 C32.684703,68.9708525 37.4138692,76.4437457 43.8759084,77.5096916 C41.9627489,78.1719448 40.5833792,79.9825732 40.5833792,82.1123513 C40.5833792,84.2209937 41.9358826,86.0161226 43.8200548,86.6945798 L41.3087679,86.6945798 C41.1716086,86.6945798 41.0401054,86.7509418 40.9453666,86.8509843 C40.8506277,86.9503223 40.8011372,87.0848865 40.8089143,87.2222688 C40.8386086,87.7682754 41.3950227,100.606124 28.1153202,101.506507 C27.2103519,101.542437 26.3265938,101.560051 25.4138485,101.560051 C25.3742561,101.560051 25.3353707,101.564278 25.2978994,101.573437 C25.1939695,101.598095 22.8601411,102.220895 22.6982366,106.846804 L12.1157638,106.846804 C11.8393243,106.846804 11.6152032,107.070138 11.6152032,107.346312 L11.6152032,120.501197 C11.6152032,120.776666 11.8393243,121 12.1157638,121 L79.5917541,121 C79.8689006,121 80.0923147,120.776666 80.0923147,120.501197 L80.0923147,107.346312 C80.0923147,107.070138 79.8689006,106.846804 79.5917541,106.846804 L68.2549054,106.846804 C68.0930009,102.220895 65.7584655,101.598095 65.6552426,101.573437 C65.6170643,101.564278 65.5781789,101.560051 65.5392935,101.560051 C64.6265482,101.560051 63.7427901,101.542437 62.8512549,101.507211 C49.5878136,100.608238 50.1152404,87.7668664 50.1442277,87.2208598 C50.1512978,87.0834774 50.1018073,86.9496178 50.0070684,86.8502798 C49.9123296,86.7509418 49.7808264,86.6945798 49.6436671,86.6945798 L47.1330872,86.6945798 C49.0172594,86.0161226 50.3697628,84.2209937 50.3697628,82.1123513 C50.3697628,79.9832777 48.9903931,78.1726493 47.0772336,77.5096916 C53.5357377,76.4451548 58.262783,68.9807158 61.7087325,59.2286852 L61.7087325,59.2286852 Z" id="Fill-1"></path>
                <path d="M49.418054,35.6387131 C49.3038323,35.749917 49.2518512,35.9095593 49.2785257,36.0664728 L50.2353889,41.6321242 L45.2260495,39.0028007 C45.0844693,38.9284374 44.9162146,38.9284374 44.7746344,39.0028007 L39.7646111,41.6328064 L40.7214743,36.0664728 C40.7481488,35.9095593 40.6961677,35.749917 40.581946,35.6387131 L36.52605,31.6960924 L42.1318044,30.8835537 C42.2897997,30.86104 42.4259082,30.7614341 42.4963563,30.6188476 L45.000342,25.5546369 L47.5043277,30.6188476 C47.5747758,30.7614341 47.7108843,30.8603578 47.8688796,30.8835537 L53.47395,31.6960924 L49.418054,35.6387131 Z M54.9759311,31.2096608 C54.9191622,31.0343271 54.7680066,30.9067496 54.5853886,30.8801426 L48.2607899,29.9632223 L45.435342,24.248162 C45.271875,23.9172793 44.7294929,23.9172793 44.565342,24.248162 L41.739894,29.9632223 L35.4146114,30.8801426 C35.2319934,30.9067496 35.0808378,31.0343271 35.0240689,31.2096608 C34.9666161,31.3843122 35.0138095,31.5767018 35.1464982,31.7049614 L39.7228894,36.1537985 L38.643597,42.4351116 C38.6121348,42.6165854 38.6873706,42.8001059 38.8364744,42.9078986 C38.9862621,43.0156913 39.1832432,43.0300182 39.3467102,42.9440569 L45.000342,39.9770285 L50.6532898,42.9440569 C50.7244219,42.9815797 50.8017096,43 50.8789973,43 C50.9795398,43 51.0793983,42.9692995 51.1642096,42.9078986 C51.3133133,42.8001059 51.3878652,42.6165854 51.356403,42.4351116 L50.2771106,36.1537985 L54.8535018,31.7049614 C54.9861905,31.5767018 55.0333839,31.3843122 54.9759311,31.2096608 L54.9759311,31.2096608 Z" id="Fill-3"></path>
            </g>
        </g>
    </g>
</svg>