<svg width="82" height="79" viewBox="0 0 82 79" xmlns="http://www.w3.org/2000/svg" xmlns:xlink="http://www.w3.org/1999/xlink"><title>Page 1</title><defs><path id="a" d="M35.594.805V36H.398V.805z"/><path id="c" d="M0 78.5h81.594V0H0z"/></defs><g fill="none" fill-rule="evenodd"><g transform="translate(46 42.5)"><mask id="b" fill="#fff"><use xlink:href="#a"/></mask><path d="M17.996 2.805c-8.6 0-15.598 6.997-15.598 15.598C2.398 27.003 9.395 34 17.996 34c8.6 0 15.598-6.997 15.598-15.597S26.597 2.805 17.996 2.805m0 33.195C8.293 36 .398 28.106.398 18.403.398 8.7 8.293.805 17.996.805S35.594 8.7 35.594 18.403 27.7 36 17.996 36" fill="#020000" mask="url(#b)"/></g><path d="M13.995 65.91l-.928-1.77c.104-.054 10.356-5.43 12.448-6.88 1.638-1.134 1.575-2.71 1.57-2.778v-4.665c-1.63-1.786-3.1-4.725-4.014-8.026-2.093-1.236-2.004-4.964-1.985-5.415V32.75c0-1.864.998-3.298 1.583-3.978-.257-1.466-.762-5.677.798-10.497C25.83 10.97 36.09 11.23 36.534 11.25l-.067 2c-.093-.002-9.202-.225-11.1 5.64-1.716 5.31-.655 9.915-.644 9.96l.136.578-.44.398c-.01.01-1.336 1.247-1.336 2.924v3.667c-.052 1.35.278 3.428 1.15 3.717l.515.172.135.527c.867 3.353 2.328 6.298 3.906 7.877l.294.293v5.414c.006.035.177 2.682-2.43 4.488-2.193 1.518-12.232 6.782-12.66 7.006" fill="#020000"/><path d="M46.83 59.49c-.68-.472-1.638-1.578-1.96-2.04-1.04-1.492-.963-2.948-.95-3.11l-.003-5.337.293-.293c1.577-1.578 3.038-4.524 3.906-7.878l.136-.527.516-.17c.91-.303 1.197-2.544 1.15-3.676v-3.71c0-1.677-1.327-2.915-1.34-2.927l-.447-.41.154-.59c.01-.04 1.14-4.475-.65-9.928-1.926-5.863-11.01-5.65-11.102-5.646l-.065-2c.43-.022 10.67-.27 13.067 7.02 1.62 4.935 1.087 9.053.806 10.51.587.686 1.577 2.113 1.577 3.97v3.667c.017.413.107 4.136-1.987 5.374-.915 3.302-2.385 6.24-4.013 8.027v4.6c-.004.102-.043.977.594 1.888.27.387 1.063 1.267 1.458 1.54l-1.14 1.644z" fill="#020000"/><mask id="d" fill="#fff"><use xlink:href="#c"/></mask><path fill="#020000" mask="url(#d)" d="M62.996 69.25h2V52.555h-2"/><path fill="#020000" mask="url(#d)" d="M55.65 61.902h16.694v-2H55.65"/><path d="M37.5 75C16.822 75 0 58.178 0 37.5S16.822 0 37.5 0 75 16.822 75 37.5c0 3.25-.416 6.476-1.236 9.587l-1.934-.51c.777-2.945 1.17-6 1.17-9.077C73 17.925 57.075 2 37.5 2S2 17.925 2 37.5 17.925 73 37.5 73c4.58 0 9.036-.858 13.246-2.553l.746 1.856C47.045 74.093 42.337 75 37.5 75" fill="#020000" mask="url(#d)"/></g></svg>