<?xml version="1.0" encoding="UTF-8"?>
<svg width="200px" height="200px" viewBox="0 0 200 200" version="1.1" xmlns="http://www.w3.org/2000/svg" xmlns:xlink="http://www.w3.org/1999/xlink">
    <!-- Generator: Sketch 46 (44423) - http://www.bohemiancoding.com/sketch -->
    <title>Group 4</title>
    <desc>Created with Sketch.</desc>
    <defs></defs>
    <g id="Page-1" stroke="none" stroke-width="1" fill="none" fill-rule="evenodd">
        <g id="Group-4">
            <g id="Page-1" transform="translate(51.000000, 30.000000)">
                <path d="M95.0840827,81.5407013 L95.0957207,81.4942386 L95.0957207,75.7917235 L101.52109,75.7917235 L101.535178,81.9793086 C101.633182,82.3243712 101.76855,82.6520877 101.938831,82.9537852 C102.449676,83.865692 103.249631,84.5694462 104.318484,85.0495602 C104.863018,85.3326725 105.313222,85.6325115 105.694212,85.960228 C105.816716,86.0630653 105.937383,86.1758146 106.054988,86.294759 C106.687112,86.9347045 107.152017,87.564738 107.476655,88.22141 C107.512793,88.2938917 107.547707,88.3645149 107.614472,88.5280634 C107.755353,88.8279024 107.866832,89.1271218 107.95136,89.4374923 C108.162681,90.1183249 108.268647,90.8573907 108.268647,91.6726552 L108.268647,102.914757 L93.292452,102.914757 L93.292452,127.548011 L108.268647,127.548011 L108.268647,138.126007 C108.268647,138.751084 107.76454,139.260315 107.145279,139.260315 L88.852883,139.260315 C88.2342345,139.260315 87.7313528,138.751084 87.7313528,138.126007 L87.7313528,91.6726552 C87.7313528,90.7694214 87.8648829,89.9324743 88.1399059,89.1159708 C88.2434223,88.8018833 88.3996158,88.4729278 88.5233455,88.22141 C88.6391124,87.9878578 88.7842804,87.745013 88.9815129,87.4569446 C89.2522482,87.0610829 89.5732105,86.6726552 89.9345992,86.3028125 C90.0093271,86.2290918 90.0797672,86.1659026 90.1514325,86.1014744 L90.2788373,85.98253 C90.5661108,85.7372073 90.8497091,85.5340107 91.151683,85.3512576 C91.2778629,85.2732003 91.4132305,85.1982406 91.5541109,85.1245199 L91.6386391,85.0867303 C93.5227608,84.3910296 94.6498037,83.2307025 95.0840827,81.5407013 L95.0840827,81.5407013 Z M95.0957207,75.0514187 L101.52109,75.0514187 L101.52109,68.7969273 L95.0957207,68.7969273 L95.0957207,75.0514187 Z M95.0957207,68.0578615 L101.52109,68.0578615 L101.52109,61.9080659 L95.0957207,61.9080659 L95.0957207,68.0578615 Z M95.0957207,60.3041754 L95.0957207,55.7396853 L101.52109,55.7396853 L101.52109,60.332053 L101.592756,61.138025 L100.798925,61.1683806 L95.0179302,61.1683806 L95.0957207,60.3041754 Z M94.0238049,126.808326 L108.268647,126.808326 L108.268647,103.654442 L94.0238049,103.654442 L94.0238049,126.808326 Z M91.3532032,84.4046587 L91.2515243,84.4492628 C91.1094189,84.5229835 90.9354623,84.6190063 90.7713061,84.7187461 C90.4368683,84.9213233 90.1220314,85.1474415 89.8341454,85.3921447 C89.8090319,85.4138273 89.784531,85.4379879 89.7385918,85.4819725 L89.69204,85.5253376 C89.6013865,85.6058729 89.5119581,85.6857886 89.4243673,85.7749969 C89.0280647,86.1770536 88.6758638,86.602032 88.3806276,87.0356833 C88.1619567,87.3547268 87.9996381,87.6260686 87.8685581,87.8912155 C87.7246151,88.1836204 87.5622964,88.5299219 87.447142,88.879321 C87.1500682,89.7608723 87,90.6994177 87,91.6726552 L87,138.126007 C87,139.159336 87.8311941,140 88.852883,140 L107.145279,140 C108.168193,140 109,139.159336 109,138.126007 L109,91.6726552 C109,90.793582 108.883621,89.9727419 108.654537,89.2330566 L108.646574,89.2057985 C108.561433,88.8898526 108.438316,88.558419 108.290698,88.2486681 L108.269872,88.1997274 C108.22332,88.079544 108.177381,87.9847603 108.130217,87.889357 C107.769441,87.1595837 107.260434,86.4676 106.573183,85.7725189 C106.440878,85.638087 106.304285,85.5129476 106.163405,85.3927642 C105.734638,85.0247801 105.236044,84.6952051 104.638221,84.3848346 C103.712699,83.9685293 103.006459,83.3583199 102.575243,82.5888985 C102.463764,82.3925164 102.36821,82.1756907 102.291645,81.9470945 L102.252443,81.8318672 L102.252443,61.1683806 L102.184453,61.1683806 L102.254281,60.2917854 L102.253056,55 L94.3643678,55 L94.3717181,60.3624086 L94.4427708,61.1683806 L94.3643678,61.1683806 L94.3643678,81.4044109 L94.3343542,81.5078677 C93.9331514,82.8732499 92.9580143,83.8204683 91.3532032,84.4046587 L91.3532032,84.4046587 Z" id="Fill-1" fill="#c75d76"></path>
                <path d="M95.0840827,81.5407013 L95.0957207,81.4942386 L95.0957207,75.7917235 L101.52109,75.7917235 L101.535178,81.9793086 C101.633182,82.3243712 101.76855,82.6520877 101.938831,82.9537852 C102.449676,83.865692 103.249631,84.5694462 104.318484,85.0495602 C104.863018,85.3326725 105.313222,85.6325115 105.694212,85.960228 C105.816716,86.0630653 105.937383,86.1758146 106.054988,86.294759 C106.687112,86.9347045 107.152017,87.564738 107.476655,88.22141 C107.512793,88.2938917 107.547707,88.3645149 107.614472,88.5280634 C107.755353,88.8279024 107.866832,89.1271218 107.95136,89.4374923 C108.162681,90.1183249 108.268647,90.8573907 108.268647,91.6726552 L108.268647,102.914757 L93.292452,102.914757 L93.292452,127.548011 L108.268647,127.548011 L108.268647,138.126007 C108.268647,138.751084 107.76454,139.260315 107.145279,139.260315 L88.852883,139.260315 C88.2342345,139.260315 87.7313528,138.751084 87.7313528,138.126007 L87.7313528,91.6726552 C87.7313528,90.7694214 87.8648829,89.9324743 88.1399059,89.1159708 C88.2434223,88.8018833 88.3996158,88.4729278 88.5233455,88.22141 C88.6391124,87.9878578 88.7842804,87.745013 88.9815129,87.4569446 C89.2522482,87.0610829 89.5732105,86.6726552 89.9345992,86.3028125 C90.0093271,86.2290918 90.0797672,86.1659026 90.1514325,86.1014744 L90.2788373,85.98253 C90.5661108,85.7372073 90.8497091,85.5340107 91.151683,85.3512576 C91.2778629,85.2732003 91.4132305,85.1982406 91.5541109,85.1245199 L91.6386391,85.0867303 C93.5227608,84.3910296 94.6498037,83.2307025 95.0840827,81.5407013 Z M95.0957207,75.0514187 L101.52109,75.0514187 L101.52109,68.7969273 L95.0957207,68.7969273 L95.0957207,75.0514187 Z M95.0957207,68.0578615 L101.52109,68.0578615 L101.52109,61.9080659 L95.0957207,61.9080659 L95.0957207,68.0578615 Z M95.0957207,60.3041754 L95.0957207,55.7396853 L101.52109,55.7396853 L101.52109,60.332053 L101.592756,61.138025 L100.798925,61.1683806 L95.0179302,61.1683806 L95.0957207,60.3041754 Z M94.0238049,126.808326 L108.268647,126.808326 L108.268647,103.654442 L94.0238049,103.654442 L94.0238049,126.808326 Z M91.3532032,84.4046587 L91.2515243,84.4492628 C91.1094189,84.5229835 90.9354623,84.6190063 90.7713061,84.7187461 C90.4368683,84.9213233 90.1220314,85.1474415 89.8341454,85.3921447 C89.8090319,85.4138273 89.784531,85.4379879 89.7385918,85.4819725 L89.69204,85.5253376 C89.6013865,85.6058729 89.5119581,85.6857886 89.4243673,85.7749969 C89.0280647,86.1770536 88.6758638,86.602032 88.3806276,87.0356833 C88.1619567,87.3547268 87.9996381,87.6260686 87.8685581,87.8912155 C87.7246151,88.1836204 87.5622964,88.5299219 87.447142,88.879321 C87.1500682,89.7608723 87,90.6994177 87,91.6726552 L87,138.126007 C87,139.159336 87.8311941,140 88.852883,140 L107.145279,140 C108.168193,140 109,139.159336 109,138.126007 L109,91.6726552 C109,90.793582 108.883621,89.9727419 108.654537,89.2330566 L108.646574,89.2057985 C108.561433,88.8898526 108.438316,88.558419 108.290698,88.2486681 L108.269872,88.1997274 C108.22332,88.079544 108.177381,87.9847603 108.130217,87.889357 C107.769441,87.1595837 107.260434,86.4676 106.573183,85.7725189 C106.440878,85.638087 106.304285,85.5129476 106.163405,85.3927642 C105.734638,85.0247801 105.236044,84.6952051 104.638221,84.3848346 C103.712699,83.9685293 103.006459,83.3583199 102.575243,82.5888985 C102.463764,82.3925164 102.36821,82.1756907 102.291645,81.9470945 L102.252443,81.8318672 L102.252443,61.1683806 L102.184453,61.1683806 L102.254281,60.2917854 L102.253056,55 L94.3643678,55 L94.3717181,60.3624086 L94.4427708,61.1683806 L94.3643678,61.1683806 L94.3643678,81.4044109 L94.3343542,81.5078677 C93.9331514,82.8732499 92.9580143,83.8204683 91.3532032,84.4046587 Z" id="Stroke-3" stroke="#c75d76" stroke-width="0.25"></path>
                <path d="M103.077564,99.5965681 C103.077564,99.8182861 103.272395,100 103.511572,100 C103.750749,100 103.94558,99.8182861 103.94558,99.595212 L103.951396,94.3695822 C104.019005,93.7959631 104.264724,90.8336202 102.395655,88.8293433 C101.264473,87.6149794 99.5945964,87 97.4340079,87 C97.194831,87 97,87.1817139 97,87.404788 C97,87.6278621 97.194831,87.809576 97.4340079,87.809576 C99.3256133,87.809576 100.771579,88.3282741 101.731195,89.3500756 C103.393074,91.1204298 103.144446,93.8203724 103.089923,94.2671987 L103.077564,99.5965681 Z" id="Fill-5" fill="#c75d76"></path>
                <path d="M103.077564,99.5965681 C103.077564,99.8182861 103.272395,100 103.511572,100 C103.750749,100 103.94558,99.8182861 103.94558,99.595212 L103.951396,94.3695822 C104.019005,93.7959631 104.264724,90.8336202 102.395655,88.8293433 C101.264473,87.6149794 99.5945964,87 97.4340079,87 C97.194831,87 97,87.1817139 97,87.404788 C97,87.6278621 97.194831,87.809576 97.4340079,87.809576 C99.3256133,87.809576 100.771579,88.3282741 101.731195,89.3500756 C103.393074,91.1204298 103.144446,93.8203724 103.089923,94.2671987 L103.077564,99.5965681 Z" id="Stroke-7" stroke="#c75d76" stroke-width="0.25"></path>
                <path d="M55.2233433,104.989536 L47.4691663,99.1263728 L58.2011388,92.2329511 L59.5859887,92.4054884 L59.7658473,93.2985859 C60.1022381,95.2269068 60.2814828,97.4022416 60.2998984,99.7755597 L60.3041954,100.33103 L55.2233433,104.989536 Z M46.7429795,98.6037959 L35.9692651,91.6843075 L35.9692651,81.9961548 L37.6782287,82.5814161 C38.2122799,82.7601597 38.7788652,82.9258699 39.3607967,83.0754436 L39.7561174,83.1716424 C40.3165641,83.3057001 40.8303582,83.4118292 41.3269643,83.4962359 L41.5381294,83.5365773 C42.0721805,83.622846 42.646132,83.6935986 43.2839241,83.749456 C43.4244962,83.7624894 43.561999,83.7724196 43.6995019,83.7823498 C44.3913129,83.8326215 44.9640367,83.855585 45.5023848,83.855585 L47.9848019,83.855585 C48.5225361,83.855585 49.0952599,83.8326215 49.7864572,83.7823498 C49.9245738,83.7724196 50.0614628,83.7624894 50.1983518,83.749456 C50.839827,83.6935986 51.4137785,83.622846 51.9539682,83.5353361 L52.1479454,83.4987184 C52.6537593,83.4124498 53.1706226,83.3057001 53.7329109,83.1710218 L54.1319147,83.0742023 C54.7224402,82.9221461 55.269996,82.761401 55.8003641,82.583278 L55.9114713,82.5503842 L57.4491702,82.1308332 L57.5166939,83.7184241 L57.5173078,91.6843075 L46.7429795,98.6037959 Z M38.2626157,104.991398 L33.1817637,100.33041 L33.1866745,99.7755597 C33.20509,97.4010003 33.3843348,95.2250449 33.7194979,93.3072748 L33.8815548,92.3744565 L35.2191381,92.2466052 L35.6224388,92.4514156 L46.0174066,99.1263728 L38.2626157,104.991398 Z M21.1662269,58.4181331 L21.1662269,50.304538 L21.9562542,49.941465 C21.9716005,49.934638 21.9998377,49.9185014 22.0397381,49.8880902 C22.0808662,49.8514725 22.114628,49.8185787 22.1281328,49.799339 C22.1575977,49.7558944 22.1692608,49.727345 22.1803102,49.6944512 C22.2067058,49.6013556 22.2103889,49.5672205 22.2103889,49.557911 L22.23924,40.3910939 L22.3245654,40.2049026 C23.1017019,38.5149065 23.9666192,36.8919392 24.8941494,35.3837899 L25.2286986,34.8401113 L26.3759878,34.7643935 L26.6282809,34.8593511 C31.4998095,36.7063685 40.0882112,36.4649405 48.5102591,34.2467818 C53.7605343,32.8621394 58.5590145,30.8804436 62.3851533,28.5145731 L63.4765819,27.8405607 L64.0984139,28.9707417 C64.284411,29.3089892 64.4771605,29.6453748 64.6766623,29.9774159 C66.5734647,33.1494946 68.7876284,35.6959706 70.7519544,36.9633125 L71.3197674,37.328868 L71.3197674,49.557911 C71.3197674,49.5672205 71.321609,49.5963905 71.3400246,49.6646606 C71.3719449,49.7596182 71.3872911,49.7869262 71.3897466,49.7912707 C71.3897466,49.7912707 71.4069344,49.8148549 71.4640226,49.8657472 C71.5382987,49.9247078 71.5646943,49.9389824 71.5689913,49.9408444 L72.320346,50.2623346 L72.320346,58.4181331 C72.320346,68.1360764 66.6059988,76.971473 57.7616209,80.9286582 C54.6604411,82.3182658 51.3714227,83.0220688 47.9848019,83.0220688 L45.5023848,83.0220688 C44.6614078,83.0220688 43.8142922,82.9780035 42.9837506,82.8911142 C40.5725404,82.6372735 38.211666,82.0129121 35.9643543,81.0347872 L35.7132888,81.0347872 L35.5125593,80.8324594 C26.7952486,76.8330708 21.1662269,68.0411188 21.1662269,58.4181331 L21.1662269,58.4181331 Z M20.4854651,42.0202675 L19.8403068,38.3038897 C19.8120696,38.1344556 19.7881294,37.9855026 19.7709415,37.8638576 C19.5174207,36.1242105 19.3363344,34.3777363 19.2313657,32.6722243 C19.2227718,32.5313395 19.1448126,32.4053501 19.0232699,32.335218 C15.1572308,30.1034053 12.7558422,25.9246525 12.7558422,21.4306157 C12.7558422,14.5086448 18.3259342,8.87759998 25.1716104,8.87759998 C25.3250734,8.87759998 25.4785364,8.88194444 25.6313855,8.88939209 L25.7645913,8.89994293 C26.52454,8.97876391 30.3390156,9.63539847 31.4157118,14.8984052 C31.4365828,14.9983278 31.5022649,15.0920441 31.5980258,15.1553491 C31.692559,15.2174129 31.8055077,15.242859 31.8994271,15.2229986 C32.1240969,15.1758302 32.2689659,14.9548832 32.222927,14.7295917 C31.5169973,11.2800881 29.6459768,9.6161587 28.2009695,8.82856961 L26.623984,7.96774528 L27.987349,6.79101643 C28.8903251,6.01211626 29.8338155,5.33189747 30.7926521,4.76711727 L32.4973188,3.88022617 C36.6751947,1.91342567 41.4601702,0.833516273 45.9799616,0.833516273 C51.7980498,0.833516273 56.9261684,2.54585536 60.8106232,5.78558354 C62.4324198,7.13919411 63.6220648,8.88132381 64.1597991,10.691103 C64.2009271,10.8295052 64.3077374,10.9350136 64.4446263,10.9728725 C65.6459345,11.3030517 66.8343517,11.8355587 67.9785716,12.5561189 C72.6432321,15.4923553 74.8168816,23.4650657 74.0992888,35.0058216 C74.0992888,35.2813847 74.0845563,35.5035729 74.052636,35.7090039 L73.8426987,38.5006318 C73.8426987,38.5006318 72.6763801,44.9850533 72.7788934,49.1743569 L72.320346,48.967064 L72.320346,37.0297207 L71.9919353,36.7119543 C71.972292,36.6951971 71.9409855,36.674716 71.9084514,36.6592001 C69.9932335,35.7679645 67.4322435,32.9769573 65.3838197,29.5485553 C64.8896689,28.7243486 64.4311216,27.8703513 64.0204547,27.0107682 C63.9676634,26.9009154 63.8706748,26.8196119 63.754043,26.7879593 C63.6380249,26.7581687 63.5140269,26.7792704 63.4121275,26.8487818 C59.5338112,29.5522791 54.1669042,31.8939447 48.3021633,33.4399529 C43.7105512,34.6508169 39.1398101,35.2906942 35.0834768,35.2906942 C31.6495894,35.2906942 28.7147635,34.8276986 26.5963606,33.951979 C26.5362031,33.9265328 26.4656102,33.9178439 26.3974726,33.9221883 C25.9911027,33.9637711 25.5890297,33.9836315 25.173452,33.9836315 L25.0795326,33.9823902 C24.8966048,33.9823902 24.7621712,34.0450746 24.6823705,34.1704434 C24.3275641,34.7184664 23.9561837,35.3335182 23.5135965,36.1037294 C23.4209048,36.2663365 23.328827,36.4283229 23.2373631,36.5934125 C22.8144192,37.3524523 22.4725037,37.9991566 22.1606669,38.6291038 L21.4424602,40.082637 L21.6757239,49.1743569 L21.0109223,49.1743569 L21.0109223,44.6288073 L20.4854651,42.0202675 Z M46.7435934,99.5297872 L55.0017428,105.863394 C55.1545919,105.979453 55.3847864,105.968281 55.5265861,105.837327 L61.2347948,100.60287 L61.0217882,97.1726057 C60.9708385,96.3508815 60.8977901,95.550259 60.8044846,94.7930812 L60.5540331,92.7598724 L62.7006731,93.5704251 C62.9431446,93.6604176 63.18623,93.7522719 63.426246,93.849712 L64.5152193,94.291606 L64.126651,95.4112362 C63.8940012,96.0827661 63.6527574,96.7847072 63.4078305,97.5015436 L61.3182787,103.666337 C56.4915613,118.05706 50.6286619,136.362145 49.9761374,138.402181 C49.9245738,138.562305 49.9337816,138.674641 49.9835036,138.774563 C50.0338395,138.873865 50.1197787,138.947101 50.2247474,138.981856 C50.4340709,139.049506 50.6759285,138.921034 50.7428384,138.711879 C50.8281638,138.444384 59.5866025,111.053165 64.8153929,95.949329 L65.2727125,94.6273709 L66.5157626,95.245526 C69.5463493,96.7518134 72.436364,98.6248976 75.1047782,100.813266 L75.5584147,101.186269 L75.5584147,138.17751 C75.5584147,138.407146 75.743798,138.594579 75.9709232,138.594579 C76.1980484,138.594579 76.3828178,138.407146 76.3828178,138.17751 L76.3828178,101.774633 L78.4729835,103.861217 C81.8583766,107.238727 84.7226095,111.136951 87,115.464036 L87,113.65736 C84.2431912,108.8288 80.7227506,104.546401 76.5344392,100.928084 L76.3840455,100.783475 L76.3134525,100.677967 C76.2680275,100.608455 76.2041869,100.555701 76.129297,100.524049 L75.9279535,100.425367 L75.8235987,100.338478 C72.5579067,97.6269124 68.9785364,95.3919964 65.1849317,93.6976558 L65.0603198,93.644281 C63.7356274,93.0577785 62.3544607,92.5265127 60.9518091,92.0641377 L60.3121754,91.8531209 L58.3533741,91.4292255 L58.3417109,86.5764602 L58.3417109,81.5735007 L59.0267696,81.2327706 C66.5685538,77.4779132 71.7556023,70.2431409 72.9010499,61.8800495 L73.0078601,61.0986668 L73.1447491,61.0558428 L73.1447491,50.153723 L73.4037946,49.806166 C73.4289625,49.7714103 73.4479919,49.7372752 73.4621105,49.6994163 C73.4792984,49.6379732 73.4915754,49.5839777 73.4915754,49.557911 L73.4915754,46.7166321 L73.7800858,46.3703163 C74.3300971,45.7105786 75.1643218,44.9242308 76.0151205,44.9242308 C76.5669734,44.9242308 77.090589,45.2773736 77.571235,45.9737289 C79.6110649,48.9192749 77.1820529,53.9309234 76.6504572,54.7309252 L76.5147959,54.899118 C76.3472144,55.0679314 76.2833738,55.3776296 76.1943653,55.8704158 C75.9954773,56.976392 75.7701936,57.7372937 75.4638815,58.3386915 L74.2803751,60.6555316 C76.1268416,59.7624341 76.7198225,57.6156487 77.0052636,56.0206101 L77.1384695,55.4552093 L77.2624675,55.2839133 C77.9358631,54.3554395 78.7252766,52.2998878 79.0229948,50.7023667 C79.41586,48.597164 79.1476067,46.7960737 78.2464721,45.495838 C77.6019276,44.5636403 76.8505729,44.0907145 76.0151205,44.0907145 C75.8653407,44.0907145 75.7137192,44.1068511 75.5504346,44.1409861 L73.8236693,44.4959908 L74.0919226,42.735242 C74.4436597,40.4320559 74.7045467,38.1189397 74.8678313,35.8591982 C74.9052763,35.571843 74.9212365,35.3366214 74.9224642,35.0790568 C75.4387136,26.6644525 74.7272593,15.8206726 68.4137926,11.8492127 C67.4488175,11.2409879 66.4451696,10.7556493 65.4310863,10.406851 L64.8951936,10.2212803 L64.686484,9.68939394 C64.0167716,7.98636441 62.8578192,6.41428942 61.3342388,5.14198237 C57.3024596,1.77812667 51.9926408,0 45.9799616,0 C41.0292462,0 35.8397423,1.24499899 31.3678313,3.50536107 L31.2456748,3.56804546 C29.259864,4.59023556 27.4477732,5.96618908 25.8603522,7.65742649 L25.5043181,8.03725669 L24.986841,8.04470434 C17.7881999,8.14524763 11.9314391,14.1505369 11.9314391,21.4306157 C11.9314391,25.9532018 14.1689292,30.138161 17.916495,32.6262971 L18.4210812,32.9614414 L18.4665063,33.5702868 C18.575158,35.0176137 18.7396704,36.5034201 18.9551324,37.9861232 C19.0938629,38.9344575 19.5751228,41.4213523 19.8495146,42.8190281 L20.2638646,44.9279546 L18.2504304,44.2359437 C17.966217,44.137883 17.7114684,44.0907145 17.4714524,44.0907145 C16.6353861,44.0907145 15.8846452,44.5636403 15.2394869,45.495838 C14.3383523,46.7960737 14.0700991,48.597164 14.4629643,50.701746 C14.7606824,52.3005084 15.5507098,54.3566807 16.2234915,55.2839133 L16.3892315,55.5129286 L16.4794677,56.0125418 C16.7655227,57.6113042 17.3585036,59.7618135 19.2068116,60.6561522 L18.0226914,58.3386915 C17.7145377,57.7335698 17.4886402,56.9726682 17.2915938,55.8697952 C17.2031991,55.3788708 17.1393585,55.070414 16.992034,54.9233229 L16.8563728,54.7594745 C16.3057476,53.9352678 13.8730526,48.9229987 15.914724,45.9731083 C16.3965977,45.2773736 16.9202134,44.9242308 17.4714524,44.9242308 C18.3388251,44.9242308 19.1920792,45.7434724 19.7555952,46.4305182 L20.0373532,46.7762133 L20.0373532,49.557911 C20.0373532,49.5678412 20.0398086,49.598873 20.0606796,49.6714876 C20.0901445,49.7614801 20.1079462,49.7875469 20.1140847,49.7956152 L20.3418238,50.1233118 L20.3418238,61.0558428 L20.4787127,61.0986668 L20.585523,61.8800495 C21.7309706,70.2431409 26.9174052,77.4779132 34.4591894,81.2333913 L35.144862,81.5735007 L35.144862,86.5777015 L35.144862,91.2740661 L32.8496698,91.95925 L32.5384469,92.0622758 C31.1302707,92.5271333 29.7509455,93.0571578 28.4379163,93.6393159 L28.3071658,93.6951733 C24.4828686,95.4019266 20.8734195,97.6585649 17.585015,100.403024 L17.3990178,100.529634 C17.3216725,100.572458 17.2787029,100.607835 17.2424856,100.653141 L17.1031412,100.79837 C6.22629967,110.129656 0,123.747066 0,138.17751 C0,138.407146 0.184769417,138.594579 0.411894615,138.594579 C0.639633664,138.594579 0.824403082,138.407146 0.824403082,138.17751 C0.824403082,125.343966 6.01267922,112.82012 15.0577867,103.816531 L17.1467247,101.738636 L17.1467247,138.17751 C17.1467247,138.407146 17.3314941,138.594579 17.5592332,138.594579 C17.7863584,138.594579 17.9711278,138.407146 17.9711278,138.17751 L17.9711278,101.149651 L18.4266059,100.776648 C21.0759906,98.6081404 23.9451343,96.7493308 26.9548501,95.2529736 L28.2089495,94.6286122 L28.658903,95.9660862 C33.7041516,110.968758 42.6651614,138.467968 42.7449622,138.714982 C42.8155551,138.930964 43.0518881,139.048265 43.272261,138.978133 C43.3710911,138.945239 43.454575,138.871383 43.504297,138.772081 C43.554019,138.672779 43.561999,138.560443 43.5282372,138.454935 L43.4643966,138.260055 C41.9131929,133.501006 36.5063855,116.935568 32.069464,103.574482 L28.9676705,94.2922266 L30.0468221,93.8546771 C30.3052537,93.7497894 30.5667546,93.651108 30.8294832,93.5536679 L32.9325398,92.7635963 L32.6814744,94.7930812 C32.5850996,95.579429 32.5102097,96.4079802 32.45926,97.2557711 L32.2579166,100.608455 L37.9606006,105.838568 C38.0993311,105.964558 38.3344364,105.97635 38.4848301,105.863394 L46.7435934,99.5297872 Z" id="Fill-9" fill="#c75d76"></path>
                <path d="M55.2233433,104.989536 L47.4691663,99.1263728 L58.2011388,92.2329511 L59.5859887,92.4054884 L59.7658473,93.2985859 C60.1022381,95.2269068 60.2814828,97.4022416 60.2998984,99.7755597 L60.3041954,100.33103 L55.2233433,104.989536 Z M46.7429795,98.6037959 L35.9692651,91.6843075 L35.9692651,81.9961548 L37.6782287,82.5814161 C38.2122799,82.7601597 38.7788652,82.9258699 39.3607967,83.0754436 L39.7561174,83.1716424 C40.3165641,83.3057001 40.8303582,83.4118292 41.3269643,83.4962359 L41.5381294,83.5365773 C42.0721805,83.622846 42.646132,83.6935986 43.2839241,83.749456 C43.4244962,83.7624894 43.561999,83.7724196 43.6995019,83.7823498 C44.3913129,83.8326215 44.9640367,83.855585 45.5023848,83.855585 L47.9848019,83.855585 C48.5225361,83.855585 49.0952599,83.8326215 49.7864572,83.7823498 C49.9245738,83.7724196 50.0614628,83.7624894 50.1983518,83.749456 C50.839827,83.6935986 51.4137785,83.622846 51.9539682,83.5353361 L52.1479454,83.4987184 C52.6537593,83.4124498 53.1706226,83.3057001 53.7329109,83.1710218 L54.1319147,83.0742023 C54.7224402,82.9221461 55.269996,82.761401 55.8003641,82.583278 L55.9114713,82.5503842 L57.4491702,82.1308332 L57.5166939,83.7184241 L57.5173078,91.6843075 L46.7429795,98.6037959 Z M38.2626157,104.991398 L33.1817637,100.33041 L33.1866745,99.7755597 C33.20509,97.4010003 33.3843348,95.2250449 33.7194979,93.3072748 L33.8815548,92.3744565 L35.2191381,92.2466052 L35.6224388,92.4514156 L46.0174066,99.1263728 L38.2626157,104.991398 Z M21.1662269,58.4181331 L21.1662269,50.304538 L21.9562542,49.941465 C21.9716005,49.934638 21.9998377,49.9185014 22.0397381,49.8880902 C22.0808662,49.8514725 22.114628,49.8185787 22.1281328,49.799339 C22.1575977,49.7558944 22.1692608,49.727345 22.1803102,49.6944512 C22.2067058,49.6013556 22.2103889,49.5672205 22.2103889,49.557911 L22.23924,40.3910939 L22.3245654,40.2049026 C23.1017019,38.5149065 23.9666192,36.8919392 24.8941494,35.3837899 L25.2286986,34.8401113 L26.3759878,34.7643935 L26.6282809,34.8593511 C31.4998095,36.7063685 40.0882112,36.4649405 48.5102591,34.2467818 C53.7605343,32.8621394 58.5590145,30.8804436 62.3851533,28.5145731 L63.4765819,27.8405607 L64.0984139,28.9707417 C64.284411,29.3089892 64.4771605,29.6453748 64.6766623,29.9774159 C66.5734647,33.1494946 68.7876284,35.6959706 70.7519544,36.9633125 L71.3197674,37.328868 L71.3197674,49.557911 C71.3197674,49.5672205 71.321609,49.5963905 71.3400246,49.6646606 C71.3719449,49.7596182 71.3872911,49.7869262 71.3897466,49.7912707 C71.3897466,49.7912707 71.4069344,49.8148549 71.4640226,49.8657472 C71.5382987,49.9247078 71.5646943,49.9389824 71.5689913,49.9408444 L72.320346,50.2623346 L72.320346,58.4181331 C72.320346,68.1360764 66.6059988,76.971473 57.7616209,80.9286582 C54.6604411,82.3182658 51.3714227,83.0220688 47.9848019,83.0220688 L45.5023848,83.0220688 C44.6614078,83.0220688 43.8142922,82.9780035 42.9837506,82.8911142 C40.5725404,82.6372735 38.211666,82.0129121 35.9643543,81.0347872 L35.7132888,81.0347872 L35.5125593,80.8324594 C26.7952486,76.8330708 21.1662269,68.0411188 21.1662269,58.4181331 Z M20.4854651,42.0202675 L19.8403068,38.3038897 C19.8120696,38.1344556 19.7881294,37.9855026 19.7709415,37.8638576 C19.5174207,36.1242105 19.3363344,34.3777363 19.2313657,32.6722243 C19.2227718,32.5313395 19.1448126,32.4053501 19.0232699,32.335218 C15.1572308,30.1034053 12.7558422,25.9246525 12.7558422,21.4306157 C12.7558422,14.5086448 18.3259342,8.87759998 25.1716104,8.87759998 C25.3250734,8.87759998 25.4785364,8.88194444 25.6313855,8.88939209 L25.7645913,8.89994293 C26.52454,8.97876391 30.3390156,9.63539847 31.4157118,14.8984052 C31.4365828,14.9983278 31.5022649,15.0920441 31.5980258,15.1553491 C31.692559,15.2174129 31.8055077,15.242859 31.8994271,15.2229986 C32.1240969,15.1758302 32.2689659,14.9548832 32.222927,14.7295917 C31.5169973,11.2800881 29.6459768,9.6161587 28.2009695,8.82856961 L26.623984,7.96774528 L27.987349,6.79101643 C28.8903251,6.01211626 29.8338155,5.33189747 30.7926521,4.76711727 L32.4973188,3.88022617 C36.6751947,1.91342567 41.4601702,0.833516273 45.9799616,0.833516273 C51.7980498,0.833516273 56.9261684,2.54585536 60.8106232,5.78558354 C62.4324198,7.13919411 63.6220648,8.88132381 64.1597991,10.691103 C64.2009271,10.8295052 64.3077374,10.9350136 64.4446263,10.9728725 C65.6459345,11.3030517 66.8343517,11.8355587 67.9785716,12.5561189 C72.6432321,15.4923553 74.8168816,23.4650657 74.0992888,35.0058216 C74.0992888,35.2813847 74.0845563,35.5035729 74.052636,35.7090039 L73.8426987,38.5006318 C73.8426987,38.5006318 72.6763801,44.9850533 72.7788934,49.1743569 L72.320346,48.967064 L72.320346,37.0297207 L71.9919353,36.7119543 C71.972292,36.6951971 71.9409855,36.674716 71.9084514,36.6592001 C69.9932335,35.7679645 67.4322435,32.9769573 65.3838197,29.5485553 C64.8896689,28.7243486 64.4311216,27.8703513 64.0204547,27.0107682 C63.9676634,26.9009154 63.8706748,26.8196119 63.754043,26.7879593 C63.6380249,26.7581687 63.5140269,26.7792704 63.4121275,26.8487818 C59.5338112,29.5522791 54.1669042,31.8939447 48.3021633,33.4399529 C43.7105512,34.6508169 39.1398101,35.2906942 35.0834768,35.2906942 C31.6495894,35.2906942 28.7147635,34.8276986 26.5963606,33.951979 C26.5362031,33.9265328 26.4656102,33.9178439 26.3974726,33.9221883 C25.9911027,33.9637711 25.5890297,33.9836315 25.173452,33.9836315 L25.0795326,33.9823902 C24.8966048,33.9823902 24.7621712,34.0450746 24.6823705,34.1704434 C24.3275641,34.7184664 23.9561837,35.3335182 23.5135965,36.1037294 C23.4209048,36.2663365 23.328827,36.4283229 23.2373631,36.5934125 C22.8144192,37.3524523 22.4725037,37.9991566 22.1606669,38.6291038 L21.4424602,40.082637 L21.6757239,49.1743569 L21.0109223,49.1743569 L21.0109223,44.6288073 L20.4854651,42.0202675 Z M46.7435934,99.5297872 L55.0017428,105.863394 C55.1545919,105.979453 55.3847864,105.968281 55.5265861,105.837327 L61.2347948,100.60287 L61.0217882,97.1726057 C60.9708385,96.3508815 60.8977901,95.550259 60.8044846,94.7930812 L60.5540331,92.7598724 L62.7006731,93.5704251 C62.9431446,93.6604176 63.18623,93.7522719 63.426246,93.849712 L64.5152193,94.291606 L64.126651,95.4112362 C63.8940012,96.0827661 63.6527574,96.7847072 63.4078305,97.5015436 L61.3182787,103.666337 C56.4915613,118.05706 50.6286619,136.362145 49.9761374,138.402181 C49.9245738,138.562305 49.9337816,138.674641 49.9835036,138.774563 C50.0338395,138.873865 50.1197787,138.947101 50.2247474,138.981856 C50.4340709,139.049506 50.6759285,138.921034 50.7428384,138.711879 C50.8281638,138.444384 59.5866025,111.053165 64.8153929,95.949329 L65.2727125,94.6273709 L66.5157626,95.245526 C69.5463493,96.7518134 72.436364,98.6248976 75.1047782,100.813266 L75.5584147,101.186269 L75.5584147,138.17751 C75.5584147,138.407146 75.743798,138.594579 75.9709232,138.594579 C76.1980484,138.594579 76.3828178,138.407146 76.3828178,138.17751 L76.3828178,101.774633 L78.4729835,103.861217 C81.8583766,107.238727 84.7226095,111.136951 87,115.464036 L87,113.65736 C84.2431912,108.8288 80.7227506,104.546401 76.5344392,100.928084 L76.3840455,100.783475 L76.3134525,100.677967 C76.2680275,100.608455 76.2041869,100.555701 76.129297,100.524049 L75.9279535,100.425367 L75.8235987,100.338478 C72.5579067,97.6269124 68.9785364,95.3919964 65.1849317,93.6976558 L65.0603198,93.644281 C63.7356274,93.0577785 62.3544607,92.5265127 60.9518091,92.0641377 L60.3121754,91.8531209 L58.3533741,91.4292255 L58.3417109,86.5764602 L58.3417109,81.5735007 L59.0267696,81.2327706 C66.5685538,77.4779132 71.7556023,70.2431409 72.9010499,61.8800495 L73.0078601,61.0986668 L73.1447491,61.0558428 L73.1447491,50.153723 L73.4037946,49.806166 C73.4289625,49.7714103 73.4479919,49.7372752 73.4621105,49.6994163 C73.4792984,49.6379732 73.4915754,49.5839777 73.4915754,49.557911 L73.4915754,46.7166321 L73.7800858,46.3703163 C74.3300971,45.7105786 75.1643218,44.9242308 76.0151205,44.9242308 C76.5669734,44.9242308 77.090589,45.2773736 77.571235,45.9737289 C79.6110649,48.9192749 77.1820529,53.9309234 76.6504572,54.7309252 L76.5147959,54.899118 C76.3472144,55.0679314 76.2833738,55.3776296 76.1943653,55.8704158 C75.9954773,56.976392 75.7701936,57.7372937 75.4638815,58.3386915 L74.2803751,60.6555316 C76.1268416,59.7624341 76.7198225,57.6156487 77.0052636,56.0206101 L77.1384695,55.4552093 L77.2624675,55.2839133 C77.9358631,54.3554395 78.7252766,52.2998878 79.0229948,50.7023667 C79.41586,48.597164 79.1476067,46.7960737 78.2464721,45.495838 C77.6019276,44.5636403 76.8505729,44.0907145 76.0151205,44.0907145 C75.8653407,44.0907145 75.7137192,44.1068511 75.5504346,44.1409861 L73.8236693,44.4959908 L74.0919226,42.735242 C74.4436597,40.4320559 74.7045467,38.1189397 74.8678313,35.8591982 C74.9052763,35.571843 74.9212365,35.3366214 74.9224642,35.0790568 C75.4387136,26.6644525 74.7272593,15.8206726 68.4137926,11.8492127 C67.4488175,11.2409879 66.4451696,10.7556493 65.4310863,10.406851 L64.8951936,10.2212803 L64.686484,9.68939394 C64.0167716,7.98636441 62.8578192,6.41428942 61.3342388,5.14198237 C57.3024596,1.77812667 51.9926408,0 45.9799616,0 C41.0292462,0 35.8397423,1.24499899 31.3678313,3.50536107 L31.2456748,3.56804546 C29.259864,4.59023556 27.4477732,5.96618908 25.8603522,7.65742649 L25.5043181,8.03725669 L24.986841,8.04470434 C17.7881999,8.14524763 11.9314391,14.1505369 11.9314391,21.4306157 C11.9314391,25.9532018 14.1689292,30.138161 17.916495,32.6262971 L18.4210812,32.9614414 L18.4665063,33.5702868 C18.575158,35.0176137 18.7396704,36.5034201 18.9551324,37.9861232 C19.0938629,38.9344575 19.5751228,41.4213523 19.8495146,42.8190281 L20.2638646,44.9279546 L18.2504304,44.2359437 C17.966217,44.137883 17.7114684,44.0907145 17.4714524,44.0907145 C16.6353861,44.0907145 15.8846452,44.5636403 15.2394869,45.495838 C14.3383523,46.7960737 14.0700991,48.597164 14.4629643,50.701746 C14.7606824,52.3005084 15.5507098,54.3566807 16.2234915,55.2839133 L16.3892315,55.5129286 L16.4794677,56.0125418 C16.7655227,57.6113042 17.3585036,59.7618135 19.2068116,60.6561522 L18.0226914,58.3386915 C17.7145377,57.7335698 17.4886402,56.9726682 17.2915938,55.8697952 C17.2031991,55.3788708 17.1393585,55.070414 16.992034,54.9233229 L16.8563728,54.7594745 C16.3057476,53.9352678 13.8730526,48.9229987 15.914724,45.9731083 C16.3965977,45.2773736 16.9202134,44.9242308 17.4714524,44.9242308 C18.3388251,44.9242308 19.1920792,45.7434724 19.7555952,46.4305182 L20.0373532,46.7762133 L20.0373532,49.557911 C20.0373532,49.5678412 20.0398086,49.598873 20.0606796,49.6714876 C20.0901445,49.7614801 20.1079462,49.7875469 20.1140847,49.7956152 L20.3418238,50.1233118 L20.3418238,61.0558428 L20.4787127,61.0986668 L20.585523,61.8800495 C21.7309706,70.2431409 26.9174052,77.4779132 34.4591894,81.2333913 L35.144862,81.5735007 L35.144862,86.5777015 L35.144862,91.2740661 L32.8496698,91.95925 L32.5384469,92.0622758 C31.1302707,92.5271333 29.7509455,93.0571578 28.4379163,93.6393159 L28.3071658,93.6951733 C24.4828686,95.4019266 20.8734195,97.6585649 17.585015,100.403024 L17.3990178,100.529634 C17.3216725,100.572458 17.2787029,100.607835 17.2424856,100.653141 L17.1031412,100.79837 C6.22629967,110.129656 0,123.747066 0,138.17751 C0,138.407146 0.184769417,138.594579 0.411894615,138.594579 C0.639633664,138.594579 0.824403082,138.407146 0.824403082,138.17751 C0.824403082,125.343966 6.01267922,112.82012 15.0577867,103.816531 L17.1467247,101.738636 L17.1467247,138.17751 C17.1467247,138.407146 17.3314941,138.594579 17.5592332,138.594579 C17.7863584,138.594579 17.9711278,138.407146 17.9711278,138.17751 L17.9711278,101.149651 L18.4266059,100.776648 C21.0759906,98.6081404 23.9451343,96.7493308 26.9548501,95.2529736 L28.2089495,94.6286122 L28.658903,95.9660862 C33.7041516,110.968758 42.6651614,138.467968 42.7449622,138.714982 C42.8155551,138.930964 43.0518881,139.048265 43.272261,138.978133 C43.3710911,138.945239 43.454575,138.871383 43.504297,138.772081 C43.554019,138.672779 43.561999,138.560443 43.5282372,138.454935 L43.4643966,138.260055 C41.9131929,133.501006 36.5063855,116.935568 32.069464,103.574482 L28.9676705,94.2922266 L30.0468221,93.8546771 C30.3052537,93.7497894 30.5667546,93.651108 30.8294832,93.5536679 L32.9325398,92.7635963 L32.6814744,94.7930812 C32.5850996,95.579429 32.5102097,96.4079802 32.45926,97.2557711 L32.2579166,100.608455 L37.9606006,105.838568 C38.0993311,105.964558 38.3344364,105.97635 38.4848301,105.863394 L46.7435934,99.5297872 Z" id="Stroke-11" stroke="#c75d76" stroke-width="0.25"></path>
            </g>
        </g>
    </g>
</svg>