<?xml version="1.0" encoding="UTF-8"?>
<svg width="200px" height="200px" viewBox="0 0 200 200" version="1.1" xmlns="http://www.w3.org/2000/svg" xmlns:xlink="http://www.w3.org/1999/xlink">
    <!-- Generator: Sketch 46 (44423) - http://www.bohemiancoding.com/sketch -->
    <title>Group 5</title>
    <desc>Created with Sketch.</desc>
    <defs></defs>
    <g id="Page-1" stroke="none" stroke-width="1" fill="none" fill-rule="evenodd">
        <g id="Group-5">
            <g id="Page-1" transform="translate(51.000000, 37.000000)">
                <path d="M49,128 C78.6273301,116.710957 101.614713,65.3328187 97.528209,22.3668675 C74.0302796,19.791445 49,0 49,0 C49,0 23.9697204,19.791445 0.471791028,22.3668675 C-3.61471277,65.3328187 19.3726699,116.710957 49,128 Z" id="Stroke-1" stroke="#c75d76" stroke-width="1.3"></path>
                <path d="M8.06010228,28.4330256 C7.45060201,46.2378052 11.493264,65.8884074 19.4388664,83.2580339 C27.4108448,100.686349 38.2414152,113.511917 49.499705,119 C60.7579948,113.511917 71.589278,100.686349 79.5612564,83.2580339 C87.5068588,65.8884074 91.548808,46.2378052 90.9400206,28.4330256 C73.7777761,24.732792 57.3405161,14.4522978 49.499705,9 C41.6596068,14.4522978 25.2216339,24.732792 8.06010228,28.4330256 Z" id="Stroke-3" stroke="#c75d76" stroke-width="1.3"></path>
                <path d="M68.9398159,40.7048635 C68.8791081,40.7055977 68.8184003,40.7166109 68.7605494,40.7371687 C68.7205536,40.7511187 64.6924125,42.1740148 59.7679385,42.0793019 C58.5494973,42.0565414 57.1096511,41.7055898 55.5855282,41.3348144 C53.9235629,40.9309998 52.205175,40.5125009 50.5996322,40.4816641 C48.9948036,40.4508274 47.2628458,40.8032475 45.5873105,41.1439202 C44.0503318,41.4559589 42.5990583,41.7503765 41.380617,41.727616 C36.4561431,41.6329031 32.4822818,40.0572916 32.4430003,40.041139 C32.3858636,40.0183786 32.32587,40.0051628 32.264448,40.002226 C31.7309335,39.9765287 31.2181312,40.1740308 30.8181739,40.5580218 C30.3882198,40.9713812 30.1353897,41.569027 30.1239623,42.1982437 L30.0004041,49.0190408 C29.9889768,49.6475233 30.2203806,50.2547138 30.6346221,50.68496 C31.0195809,51.0843694 31.5259554,51.3009609 32.0601841,51.2950873 C32.3687225,51.2928846 32.6172674,51.0322406 32.6151248,50.7135941 C32.6115537,50.3956818 32.3580094,50.1409115 32.0487567,50.1438483 C31.8202097,50.1460509 31.6002332,50.0498696 31.4302514,49.8736596 C31.2274159,49.6636759 31.1145708,49.3597136 31.1202845,49.0403329 L31.2438427,42.2195357 C31.2502706,41.900155 31.3738288,41.6005979 31.5845206,41.3986906 C31.7402183,41.2481778 31.9330548,41.1630097 32.1337476,41.1527307 C32.8051045,41.4104379 36.606127,42.7878131 41.3599049,42.878855 C42.6983334,42.9045523 44.2074579,42.5983873 45.8044302,42.2738672 C47.4214003,41.9449417 49.0940788,41.6050032 50.5789201,41.6336373 C52.0637615,41.6615372 53.72287,42.0653519 55.3276986,42.4559509 C56.9118151,42.8414103 58.4080838,43.2055778 59.7472265,43.2312751 C64.5002902,43.3223169 68.3484505,42.0917834 69.0290921,41.8597735 C69.2290707,41.8773945 69.4190504,41.970639 69.5697486,42.1262912 C69.7718699,42.3370091 69.8854292,42.6409714 69.8790013,42.9603521 L69.7554431,49.7811493 C69.7497294,50.10053 69.6261712,50.3993529 69.4161936,50.6019944 C69.2404981,50.7701282 69.0176648,50.8589674 68.7876893,50.8479543 C68.4784366,50.8325359 68.2163218,51.0777615 68.2020376,51.3956738 C68.1870392,51.7135861 68.4255851,51.9830407 68.7348378,51.9977248 C69.1426514,52.0175485 69.5376092,51.9074172 69.8797155,51.6834836 C69.9861327,51.614468 70.0868363,51.533705 70.1818261,51.4426632 C70.6117802,51.0285696 70.8646103,50.4309238 70.8760377,49.8024413 L70.9995959,42.9816442 C71.0110232,42.3524275 70.7796194,41.7459712 70.3653779,41.315725 C69.9804191,40.9163156 69.4740446,40.6997241 68.9398159,40.7048635" id="Fill-5" fill="#c75d76"></path>
                <path d="M68.9398159,40.7048635 C68.6305632,40.7085346 68.3820184,40.9677102 68.3848752,41.2863567 C68.387732,41.604269 68.6412764,41.8597735 68.9505291,41.8568367 C69.1797903,41.8546341 69.3990526,41.9500812 69.5697486,42.1262912 C69.7718699,42.3370091 69.8854292,42.6409714 69.8790013,42.9603521 L69.7554431,49.7811493 C69.7497294,50.10053 69.6261712,50.3993529 69.4161936,50.6019944 C69.2597817,50.7510388 69.0669452,50.8376754 68.8662524,50.8472201 C68.1948955,50.5895129 64.393873,49.2121377 59.6400951,49.1210958 C58.3016666,49.0953985 56.7925421,49.4022977 55.1955698,49.7268179 C53.5785997,50.0557433 51.905207,50.3956818 50.4203656,50.3670477 C48.9362385,50.3384136 47.27713,49.9345989 45.6730156,49.5447341 C44.0881849,49.1592747 42.5919162,48.794373 41.2527735,48.76941 C36.4989956,48.6776339 32.6515495,49.9089016 31.9709079,50.1409115 C31.770215,50.1232905 31.5809496,50.030046 31.4302514,49.8736596 C31.2274159,49.6636759 31.1145708,49.3597136 31.1202845,49.0403329 L31.2438427,42.2195357 C31.2502706,41.900155 31.3738288,41.6005979 31.5845206,41.3986906 C31.7609303,41.2283542 31.9837637,41.1417176 32.2123107,41.1527307 C32.5208491,41.1674149 32.7836782,40.9221893 32.7979624,40.604277 C32.8129608,40.2870989 32.5737006,40.0169102 32.264448,40.002226 C31.7309335,39.9765287 31.2181312,40.1740308 30.8181739,40.5580218 C30.3882198,40.9713812 30.1353897,41.569027 30.1239623,42.1982437 L30.0004041,49.0190408 C29.9889768,49.6475233 30.2203806,50.2547138 30.6346221,50.68496 C31.0195809,51.0843694 31.5259554,51.3009609 32.0601841,51.2950873 C32.1216061,51.2950873 32.1823139,51.2840741 32.2394506,51.2635163 C32.2794464,51.2488321 36.2968744,49.825936 41.2320615,49.9206489 C42.4505027,49.9441436 43.8903489,50.2943611 45.4144718,50.6651364 C47.0764371,51.0696853 48.794825,51.4874499 50.3996536,51.5182867 C52.0051964,51.5491234 53.7378684,51.1974375 55.4134037,50.8567648 C56.9496682,50.5447262 58.4009417,50.2495743 59.619383,50.273069 C64.5438569,50.3670477 68.5177182,51.9433934 68.5569997,51.9588118 C68.6141364,51.9815722 68.67413,51.994788 68.7348378,51.9977248 C69.1426514,52.0175485 69.5376092,51.9074172 69.8797155,51.6834836 C69.9861327,51.614468 70.0868363,51.533705 70.1818261,51.4426632 C70.6117802,51.0285696 70.8646103,50.4309238 70.8760377,49.8024413 L70.9995959,42.9816442 C71.0110232,42.3524275 70.7796194,41.7459712 70.3653779,41.315725 C69.9804191,40.9163156 69.4740446,40.6997241 68.9398159,40.7048635" id="Fill-7" fill="#c75d76"></path>
                <path d="M47.3166251,44.0098781 C46.9074386,44.0873894 46.4967775,44.1709801 46.0912773,44.2538109 C44.6410613,44.5494179 43.2704708,44.8283067 42.1232739,44.8062692 C40.6848543,44.7789123 39.1926137,44.6155305 37.6863649,44.3214433 C37.3715493,44.2598902 37.0692674,44.4726664 37.0102855,44.7963903 C36.9505664,45.1193543 37.1570029,45.4316794 37.4710812,45.4924726 C39.0407354,45.7994784 40.5985933,45.9696994 42.101893,45.9985761 C43.3729517,46.0228934 44.8025241,45.7318459 46.3154083,45.4233203 C46.7164849,45.3412495 47.1212477,45.2591787 47.5260106,45.1824272 C47.6012125,45.1679888 47.6705161,45.1391121 47.7317098,45.0988366 C47.9248753,44.9726906 48.0339917,44.7340773 47.9904926,44.4878647 C47.9322481,44.1641409 47.6307034,43.9506047 47.3166251,44.0098781" id="Fill-9" fill="#c75d76"></path>
                <path d="M32.58702,43.0239669 C32.3654531,42.9540396 32.1159162,43.0422282 32.0298122,43.2221687 C31.9431598,43.4016638 32.0517495,43.6043196 32.2733164,43.6746924 C32.2908662,43.6804826 32.7197407,43.8163287 33.4513502,43.9864705 C33.5741992,44.0149759 33.7003387,43.99716 33.8007019,43.9450485 C33.8862575,43.9009542 33.9531663,43.8319176 33.9833301,43.7468467 C34.0485936,43.5611161 33.9164213,43.3678136 33.6882732,43.3148114 C32.9999899,43.1544683 32.590859,43.0253031 32.58702,43.0239669" id="Fill-11" fill="#c75d76"></path>
                <path d="M51.3530678,51.0530456 C50.9901779,51.0473191 50.6894497,51.293559 50.6818895,51.6042222 L50.3920816,64.8668209 L48.3306655,64.8338935 L48.6204734,51.5720106 C48.6271936,51.2620632 48.3373857,51.0058019 47.9736558,51.0000753 C47.6116059,50.9950647 47.3100377,51.2405888 47.3024775,51.551252 L47.0000692,65.3743329 C46.9975492,65.5232222 47.063911,65.6671008 47.1848743,65.7744729 C47.3058376,65.8818449 47.4721621,65.9434049 47.6468869,65.9462682 L51.0262989,65.9999542 C51.1607026,66.0013859 51.286706,65.9691742 51.3925489,65.9119091 C51.5723138,65.8145584 51.6932771,65.6441948 51.6974772,65.4487776 L51.9998854,51.6249808 C52.0066056,51.3150334 51.7167977,51.0587721 51.3530678,51.0530456" id="Fill-13" fill="#c75d76"></path>
                <path d="M49.3011663,64.0000958 C48.9771903,63.9944898 48.7073356,64.2355471 48.7005705,64.5396716 L48.653966,66.8794685 L46.2410591,68.5304302 C46.0689234,68.6481559 45.9787213,68.8429638 46.0042785,69.0398739 C46.0298358,69.236784 46.167394,69.4056642 46.3643354,69.481345 L50.1843955,70.9578206 C50.3685582,71.0292968 50.5700096,71.0068729 50.7271116,70.9136735 C50.8255823,70.8548106 50.9067642,70.7686187 50.954872,70.6607035 C51.0796516,70.3804044 50.9368316,70.0587612 50.6354061,69.942437 L47.7820121,68.83946 L49.5868064,67.6047424 C49.7348882,67.503134 49.8243386,67.3433635 49.8273454,67.1716803 L49.8799633,64.5599933 C49.8859768,64.2565695 49.6266457,64.0057018 49.3011663,64.0000958" id="Fill-15" fill="#c75d76"></path>
                <path d="M50.1594402,70.0653428 L46.3245221,72.1161704 C46.1197557,72.2268959 45.9928895,72.4547656 46.0003086,72.7010896 C46.0084696,72.9482159 46.1486901,73.1672597 46.3593917,73.2611356 L50.129764,74.9517044 C50.3122731,75.033545 50.5111042,75.0078695 50.6654209,74.9011559 C50.7626108,74.8345601 50.8427368,74.7350677 50.8902188,74.6115045 C51.0133754,74.2905612 50.872413,73.9222788 50.5756502,73.7890873 L47.9893618,72.6296797 L50.6750657,71.1934585 C50.9658933,71.0345915 51.0816309,70.6622973 50.9391847,70.3509823 C50.7967385,70.038865 50.4473002,69.91129 50.1594402,70.0653428" id="Fill-17" fill="#c75d76"></path>
                <path d="M50.1595967,73.0653428 L46.3239081,75.1161704 C46.1191006,75.2268959 45.992209,75.4547656 46.0003716,75.7010896 C46.0077922,75.9482159 46.1480408,76.1672597 46.3587848,76.2611356 L50.1299144,77.9517044 C50.3124603,78.033545 50.5113313,78.0078695 50.6664211,77.9011559 C50.7628884,77.8345601 50.8430305,77.7358701 50.8905221,77.6115045 C51.0137034,77.2905612 50.8727127,76.9222788 50.5758902,76.7898897 L47.9890823,75.6296797 L50.6753257,74.1934585 C50.9662118,74.0361963 51.0812305,73.661495 50.9394978,73.3509823 C50.7962809,73.038865 50.4475145,72.91129 50.1595967,73.0653428" id="Fill-19" fill="#c75d76"></path>
                <path d="M50.1593299,77.0653428 L46.3245134,79.1161704 C46.1197525,79.2268959 45.9928897,79.4547656 46.0003086,79.7010896 C46.0077275,79.9482159 46.1479442,80.1672597 46.3593822,80.261938 L50.1296544,81.9517044 C50.3121588,82.033545 50.5109846,82.0078695 50.6652972,81.9011559 C50.7624845,81.8345601 50.8426083,81.7350677 50.8900891,81.6115045 C51.0132425,81.2905612 50.8722838,80.9222788 50.5755288,80.7890873 L47.989309,79.6296797 L50.6749418,78.1934585 C50.9665035,78.0369986 51.0814961,77.6622973 50.9390537,77.3509823 C50.7966113,77.038865 50.4471823,76.91129 50.1593299,77.0653428" id="Fill-21" fill="#c75d76"></path>
                <path d="M50.1595505,81.0653405 L46.3245322,83.1160969 C46.1190186,83.2268185 45.992891,83.4546804 46.0003103,83.7009958 C46.0077296,83.9481135 46.1479537,84.1671497 46.3594028,84.2618247 L50.1306154,85.9523348 C50.3123874,86.0333701 50.5112237,86.0076956 50.6662864,85.9009856 C50.7627368,85.8343922 50.8428649,85.7357056 50.8903482,85.6113444 C51.013508,85.2904122 50.8725419,84.9221426 50.5757713,84.7889557 L47.9894154,83.6303907 L50.6751895,82.193417 C50.9652828,82.0353579 51.0817652,81.6622743 50.9393153,81.3509701 C50.7961235,81.0388636 50.447418,80.9112931 50.1595505,81.0653405" id="Fill-23" fill="#c75d76"></path>
            </g>
        </g>
    </g>
</svg>