<?xml version="1.0" encoding="UTF-8"?>
<svg width="150px" height="150px" viewBox="0 0 150 150" version="1.1" xmlns="http://www.w3.org/2000/svg" xmlns:xlink="http://www.w3.org/1999/xlink">
    <!-- Generator: Sketch 46 (44423) - http://www.bohemiancoding.com/sketch -->
    <title>Group 8</title>
    <desc>Created with Sketch.</desc>
    <defs>
        <polygon id="path-1" points="0 136 84 136 84 0 0 0"></polygon>
    </defs>
    <g id="Page-1" stroke="none" stroke-width="1" fill="none" fill-rule="evenodd">
        <g id="Group-8">
            <g id="Page-1" transform="translate(32.000000, 5.000000)">
                <path d="M52.4841986,53.3662708 C51.6550727,56.8084291 48.8951449,68.4415918 48.2074172,73.5975883 L48.1209389,74.2542424 L82.8790611,74.2542424 L82.792173,73.5980021 C82.1028058,68.4275236 79.3445174,56.8055327 78.5158014,53.3662708 L78.4092404,52.9239499 L52.5907596,52.9239499 L52.4841986,53.3662708 Z M48.038969,75.7512647 C48.0164272,78.0658979 48.4545565,82.4688317 51.6464659,85.954436 C54.4936916,89.0643364 58.8036709,90.6416303 64.4559079,90.6416303 L66.5440921,90.6416303 C72.1963291,90.6416303 76.5058985,89.0643364 79.353944,85.954436 C82.5454435,82.468418 82.9835728,78.0658979 82.9606212,75.752506 L82.9540636,75.1786061 L48.0459364,75.1786061 L48.038969,75.7512647 Z M47.9151943,133.30056 L47.9151943,135.07605 L83.0848057,135.07605 L83.0848057,133.30056 L65.4997951,131.009926 L47.9151943,133.30056 Z M47,136 L47,132.487087 L64.812887,130.166661 L64.812887,129.988326 L65.0424028,130.017703 L65.0424028,91.5655802 L64.4682034,91.5655802 C58.5421868,91.5655802 54.0022819,89.8889814 50.9739025,86.5817123 C46.9262271,82.1614001 47.0360668,76.3545424 47.166399,74.6800124 C47.5557562,69.7743472 51.3538332,54.1271951 51.7858148,52.3587392 L51.8739325,52 L79.1260675,52 L79.2125458,52.3512913 C79.2543505,52.5221786 83.4315385,69.6042875 83.833601,74.6800124 C83.9639332,76.3541286 84.0737729,82.1614001 80.0256876,86.5817123 C76.998128,89.8889814 72.4619117,91.5655802 66.5440921,91.5655802 L65.9998117,91.5655802 L65.9588267,92.1142401 L65.9575972,130.017703 L66.187113,129.988326 L66.187113,130.166661 L84,132.487087 L84,136 L47,136 Z" id="Fill-1" fill="#db89a7"></path>
                <polygon id="Fill-3" fill="#db89a7" points="54 58.7598854 54.2954399 56 55 56.2401146 54.7045601 59"></polygon>
                <polygon id="Fill-5" fill="#db89a7" points="53 68.8287399 54.7771588 62 56 62.1712601 54.2228412 69"></polygon>
                <mask id="mask-2" fill="white">
                    <use xlink:href="#path-1"></use>
                </mask>
                <g id="Clip-8"></g>
                <path d="M12.6509914,3.82789977 L24.3485914,3.82789977 L24.3485914,0.927095412 L12.6509914,0.927095412 L12.6509914,3.82789977 Z M10.5700459,7.25242588 L26.4241134,7.25242588 L26.4295369,6.67516996 L26.4295369,4.75458019 L10.5700459,4.75458019 L10.5700459,7.25242588 Z M12.6710165,25.9462217 L24.3281491,25.9462217 L24.3281491,8.1791063 L12.6714337,8.1791063 L12.6710165,25.9462217 Z M12.6705993,27.8431569 C12.6489054,28.3623137 12.1015517,40.8884766 9.92799,48.3525492 C9.09194055,51.222229 7.65680577,55.2360458 6.13781572,59.485579 C3.81656865,65.9769068 1.18534915,73.3343261 1.03891534,75.9355051 C1.00470573,76.5418106 0.978422738,78.2187992 0.960483554,80.9187467 L0.957563221,81.5043025 L36.0420196,81.5043025 L36.0395164,80.9195767 C36.0215773,78.2196292 35.9948771,76.5426406 35.9606675,75.9355051 C35.8154852,73.339306 33.1938611,66.0063714 30.8805407,59.5366232 C29.3519552,55.2617754 27.911397,51.2326038 27.07201,48.3525492 C24.9005343,40.8959465 24.3506774,28.3494489 24.3281491,27.8186723 L24.3277319,26.8729021 L12.6705993,26.8729021 L12.6705993,27.8431569 Z M0.949636605,83.0090688 C0.912923854,91.5828339 0.941709988,106.084366 0.972582074,116.740153 L0.975502406,117.319484 L36.0240804,117.319484 L36.0270007,116.740983 C36.0578728,106.102625 36.0874933,91.6152034 36.0507806,83.0090688 L36.0478603,82.4305679 L0.952139747,82.4305679 L0.949636605,83.0090688 Z M0.978839929,118.828815 C1.00136821,126.155525 1.02514806,132.16297 1.03516063,134.495234 L1.03808096,135.073735 L35.961919,135.073735 L35.9648394,134.495234 C35.9744348,132.16297 35.9986318,126.155525 36.0211601,118.82923 L36.0224116,118.246579 L0.977588358,118.246579 L0.978839929,118.828815 Z M0.109832442,136 L0.108163681,135.538942 C0.105660538,134.986586 -0.134223909,80.2086929 0.108580871,75.8836309 C0.262106918,73.1508989 2.68306248,66.3802805 5.24627996,59.2129283 C6.77319662,54.9414005 8.20499388,50.9358835 9.03186514,48.0948382 C11.135756,40.8714619 11.7156506,28.3324342 11.7394305,27.8016575 L11.740682,8.1791063 L9.63887709,8.1791063 L9.63887709,3.82789977 L11.7198225,3.82789977 L11.7198225,0 L25.2801775,0 L25.2801775,3.82789977 L27.3615401,3.82789977 L27.3615401,8.1791063 L25.2597351,8.1791063 L25.2597351,27.7763429 C25.283515,28.3183244 25.8659127,40.8768568 27.9681349,48.0948382 C28.7950061,50.9354685 30.223883,54.9326856 31.7366152,59.164374 C34.3098453,66.3624358 36.7378931,73.1546339 36.8914191,75.8836309 C37.1342239,80.199563 36.8943395,134.983681 36.8918363,135.535622 L36.8901676,136 L0.109832442,136 Z" id="Fill-7" fill="#db89a7" mask="url(#mask-2)"></path>
                <polygon id="Fill-9" fill="#db89a7" mask="url(#mask-2)" points="4 89 5 89 5 86 4 86"></polygon>
                <polygon id="Fill-10" fill="#db89a7" mask="url(#mask-2)" points="4 104 5 104 5 93 4 93"></polygon>
            </g>
        </g>
    </g>
</svg>