<?xml version="1.0" encoding="UTF-8"?>
<svg width="200px" height="200px" viewBox="0 0 200 200" version="1.1" xmlns="http://www.w3.org/2000/svg" xmlns:xlink="http://www.w3.org/1999/xlink">
    <!-- Generator: Sketch 46 (44423) - http://www.bohemiancoding.com/sketch -->
    <title>Group 6</title>
    <desc>Created with Sketch.</desc>
    <defs></defs>
    <g id="Page-1" stroke="none" stroke-width="1" fill="none" fill-rule="evenodd">
        <g id="Group-6">
            <g id="fa" transform="translate(49.000000, 1.000000)">
                <g id="Group" fill-rule="nonzero" fill="#c75d76">
                    <path d="M80.3746988,72.7157895 L81.2,72.7157895 C80.539759,67.9231579 76.413253,64.2873684 71.626506,64.2873684 C66.3445783,64.2873684 62.053012,68.5842105 62.053012,73.8726316 C62.053012,78.6652632 65.6843373,82.7968421 70.4710843,83.4578947 L70.4710843,82.6315789 C66.1795181,81.9705263 62.8783133,78.3347368 62.8783133,73.8726316 C62.8783133,69.08 66.839759,65.1136842 71.626506,65.1136842 C76.0831325,65.1136842 79.7144578,68.2536842 80.3746988,72.7157895 Z" id="Shape"></path>
                    <path d="M94.5698795,64.2873684 C89.2879518,64.2873684 84.9963855,68.5842105 84.9963855,73.8726316 C84.9963855,79.1610526 89.2879518,83.4578947 94.5698795,83.4578947 C99.8518072,83.4578947 104.143373,79.1610526 104.143373,73.8726316 C104.143373,68.5842105 99.8518072,64.2873684 94.5698795,64.2873684 Z M94.5698795,82.6315789 C89.7831325,82.6315789 85.8216867,78.6652632 85.8216867,73.8726316 C85.8216867,69.08 89.7831325,65.1136842 94.5698795,65.1136842 C99.3566265,65.1136842 103.318072,69.08 103.318072,73.8726316 C103.318072,78.6652632 99.3566265,82.6315789 94.5698795,82.6315789 Z" id="Shape"></path>
                    <path d="M71.626506,64.2873684 C66.3445783,64.2873684 62.053012,68.5842105 62.053012,73.8726316 C62.053012,79.1610526 66.3445783,83.4578947 71.626506,83.4578947 C76.9084337,83.4578947 81.2,79.1610526 81.2,73.8726316 C81.2,68.5842105 76.9084337,64.2873684 71.626506,64.2873684 Z M71.626506,82.6315789 C66.839759,82.6315789 62.8783133,78.6652632 62.8783133,73.8726316 C62.8783133,69.08 66.839759,65.1136842 71.626506,65.1136842 C76.413253,65.1136842 80.3746988,69.08 80.3746988,73.8726316 C80.3746988,78.6652632 76.413253,82.6315789 71.626506,82.6315789 Z" id="Shape"></path>
                    <path d="M83.1807229,83.9536842 C77.8987952,83.9536842 73.6072289,88.2505263 73.6072289,93.5389474 C73.6072289,98.8273684 77.8987952,103.124211 83.1807229,103.124211 C88.4626506,103.124211 92.7542169,98.8273684 92.7542169,93.5389474 C92.7542169,88.2505263 88.4626506,83.9536842 83.1807229,83.9536842 Z M83.1807229,102.297895 C78.3939759,102.297895 74.4325301,98.3315789 74.4325301,93.5389474 C74.4325301,88.7463158 78.3939759,84.78 83.1807229,84.78 C87.9674699,84.78 91.9289157,88.7463158 91.9289157,93.5389474 C91.9289157,98.3315789 88.1325301,102.297895 83.1807229,102.297895 Z" id="Shape"></path>
                    <path d="M117.513253,64.1221053 C112.231325,64.1221053 107.939759,68.4189474 107.939759,73.7073684 C107.939759,78.9957895 112.231325,83.2926316 117.513253,83.2926316 C122.795181,83.2926316 127.086747,78.9957895 127.086747,73.7073684 C127.086747,68.4189474 122.795181,64.1221053 117.513253,64.1221053 Z M117.513253,82.6315789 C112.726506,82.6315789 108.76506,78.6652632 108.76506,73.8726316 C108.76506,69.08 112.726506,65.1136842 117.513253,65.1136842 C122.3,65.1136842 126.261446,69.08 126.261446,73.8726316 C126.261446,78.6652632 122.3,82.6315789 117.513253,82.6315789 Z" id="Shape"></path>
                    <path d="M127.086747,73.8726316 C127.086747,68.5842105 122.795181,64.2873684 117.513253,64.2873684 C112.726506,64.2873684 108.6,67.9231579 107.939759,72.7157895 L108.76506,72.7157895 C109.425301,68.4189474 113.056627,65.1136842 117.513253,65.1136842 C122.3,65.1136842 126.261446,69.08 126.261446,73.8726316 C126.261446,78.3347368 122.960241,81.9705263 118.668675,82.6315789 L118.668675,83.4578947 C123.455422,82.7968421 127.086747,78.6652632 127.086747,73.8726316 Z" id="Shape"></path>
                    <path d="M105.959036,83.9536842 C100.677108,83.9536842 96.3855422,88.2505263 96.3855422,93.5389474 C96.3855422,98.8273684 100.677108,103.124211 105.959036,103.124211 C111.240964,103.124211 115.53253,98.8273684 115.53253,93.5389474 C115.53253,88.2505263 111.240964,83.9536842 105.959036,83.9536842 Z M105.959036,102.297895 C101.172289,102.297895 97.2108434,98.3315789 97.2108434,93.5389474 C97.2108434,88.7463158 101.172289,84.78 105.959036,84.78 C110.745783,84.78 114.707229,88.7463158 114.707229,93.5389474 C114.707229,98.3315789 110.745783,102.297895 105.959036,102.297895 Z" id="Shape"></path>
                    <path d="M91.9289157,94.6957895 C91.2686747,98.9926316 87.6373494,102.297895 83.1807229,102.297895 C78.3939759,102.297895 74.4325301,98.3315789 74.4325301,93.5389474 C74.4325301,89.0768421 77.7337349,85.4410526 82.0253012,84.78 L82.0253012,83.9536842 C77.2385542,84.6147368 73.6072289,88.7463158 73.6072289,93.5389474 C73.6072289,98.8273684 77.8987952,103.124211 83.1807229,103.124211 C87.9674699,103.124211 92.0939759,99.4884211 92.7542169,94.6957895 L91.9289157,94.6957895 Z" id="Shape"></path>
                    <path d="M134.184337,39.9936842 C133.689157,39.3326316 129.23253,34.0442105 125.601205,31.2347368 C124.445783,30.2431579 123.125301,29.7473684 121.639759,29.4168421 L119.163855,28.9210526 L120.979518,27.2684211 C122.960241,25.4505263 124.445783,23.6326316 125.271084,21.98 C127.251807,17.1873684 129.23253,7.10631579 129.23253,6.77578947 C129.23253,6.61052632 129.23253,6.44526316 129.06747,6.44526316 C128.90241,6.28 128.90241,6.28 128.737349,6.28 C127.581928,6.44526316 117.843373,8.26315789 113.386747,10.0810526 C111.571084,10.9073684 109.755422,12.2294737 108.104819,14.2126316 L106.454217,16.0305263 L105.959036,13.5515789 C105.628916,12.0642105 104.968675,10.7421053 103.978313,9.58526316 C101.007229,5.78421053 95.2301205,0.991578947 95.2301205,0.991578947 C95.0650602,0.826315789 94.7349398,0.826315789 94.7349398,0.991578947 C91.7638554,4.13157895 86.8120482,10.4115789 86.646988,14.3778947 C86.4819277,17.0221053 87.3072289,19.6663158 87.9674699,21.1536842 L88.7927711,23.1368421 L79.3843373,21.98 C79.2192771,21.98 79.0542169,21.98 79.0542169,22.1452632 C78.8891566,22.3105263 78.8891566,22.3105263 78.8891566,22.4757895 C78.8891566,22.8063158 80.539759,32.3915789 87.1421687,37.1842105 C89.453012,38.8368421 91.5987952,39.1673684 93.2493976,39.1673684 L95.2301205,39.3326316 L94.0746988,41.1505263 C92.4240964,43.7947368 91.4337349,46.4389474 91.1036145,49.4136842 L90.773494,52.0578947 L88.9578313,50.0747368 C86.3168675,47.1 82.6855422,44.9515789 78.2289157,43.6294737 L78.0638554,44.4557895 C79.0542169,44.7863158 80.0445783,45.1168421 81.0349398,45.4473684 L81.6951807,45.7778947 L81.6951807,46.6042105 C81.6951807,48.4221053 81.0349398,51.3968421 79.8795181,53.0494737 C78.2289157,55.3631579 75.5879518,56.6852632 73.6072289,57.3463158 L71.7915663,58.0073684 L72.6168675,51.8926316 C72.6168675,51.7273684 72.6168675,51.5621053 72.4518072,51.5621053 C72.286747,51.5621053 72.1216867,51.3968421 71.9566265,51.5621053 C71.7915663,51.5621053 69.3156627,53.2147368 66.3445783,53.0494737 C64.1987952,52.8842105 60.8975904,50.4052632 59.5771084,49.2484211 L58.586747,48.4221053 L59.4120482,47.4305263 C60.5674699,46.1084211 62.2180723,44.2905263 63.7036145,43.2989474 C65.6843373,41.6463158 68.160241,42.1421053 68.6554217,42.1421053 C68.8204819,42.1421053 68.9855422,42.1421053 69.1506024,41.8115789 C69.1506024,41.6463158 69.1506024,41.4810526 68.9855422,41.3157895 C66.5096386,39.9936842 64.8590361,38.1757895 64.1987952,36.5231579 C63.5385542,34.7052632 62.713253,31.7305263 62.2180723,29.4168421 L61.7228916,27.4336842 L63.7036145,27.9294737 C66.0144578,28.4252632 68.9855422,29.2515789 70.8012048,29.9126316 C73.1120482,30.7389474 74.9277108,32.7221053 76.0831325,35.6968421 L76.7433735,35.2010526 C75.5879518,32.2263158 73.6072289,30.0778947 71.1313253,29.0863158 C67.9951807,27.9294737 61.7228916,26.6073684 61.5578313,26.6073684 C61.3927711,26.6073684 61.2277108,26.6073684 61.2277108,26.6073684 L61.0626506,26.7726316 C60.8975904,26.9378947 60.8975904,27.1031579 60.8975904,27.1031579 C60.8975904,27.1031579 61.2277108,28.9210526 61.7228916,30.9042105 L62.053012,32.3915789 L16.9915663,32.3915789 C16.826506,32.3915789 16.6614458,32.5568421 16.6614458,32.5568421 C16.0012048,34.0442105 0.485542169,69.08 0.485542169,87.2589474 C0.485542169,111.387368 18.8072289,120.476842 32.3421687,127.252632 C39.7698795,130.888421 46.0421687,134.028421 46.0421687,138.490526 L46.0421687,156.173684 L20.953012,156.173684 L20.953012,157 L71.626506,157 L71.626506,156.173684 L46.5373494,156.173684 L46.5373494,138.490526 C46.5373494,134.854737 52.4795181,132.045263 60.0722892,128.574737 C67.0048193,125.269474 75.753012,121.303158 83.1807229,114.857895 L84.8313253,113.535789 L85.326506,115.518947 C86.3168675,119.981053 90.2783133,123.121053 94.7349398,123.121053 C100.016867,123.121053 104.308434,118.824211 104.308434,113.535789 C104.308434,108.247368 100.016867,103.950526 94.7349398,103.950526 C90.113253,103.950526 86.1518072,107.255789 85.326506,111.717895 L85.326506,112.048421 L84.9963855,112.378947 C77.2385542,119.815789 67.6650602,124.277895 59.9072289,127.748421 C54.460241,130.227368 49.673494,132.541053 47.5277108,135.02 L46.5373494,136.176842 L45.7120482,135.02 C43.5662651,131.88 38.6144578,129.401053 32.8373494,126.591579 C22.4385542,121.468421 8.24337349,114.362105 3.29156627,99.1578947 L2.96144578,98.1663158 L3.95180723,97.6705263 C21.2831325,89.2421053 33.8277108,94.6957895 46.0421687,99.9842105 C53.3048193,103.124211 60.7325301,106.429474 68.9855422,106.429474 C69.8108434,106.429474 70.8012048,106.429474 71.626506,106.264211 L71.4614458,105.437895 C62.3831325,106.264211 54.6253012,102.793684 46.3722892,99.1578947 C34.1578313,93.8694737 21.613253,88.4157895 4.11686747,96.5136842 L2.6313253,97.1747368 L2.30120482,95.6873684 C1.64096386,93.0431579 1.47590361,90.2336842 1.47590361,87.2589474 C1.47590361,70.8978947 14.5156627,39.9936842 17.1566265,33.8789474 L17.486747,33.0526316 L62.5481928,33.0526316 L62.8783133,33.8789474 C63.2084337,34.8705263 63.5385542,35.8621053 63.7036145,36.5231579 C64.0337349,37.5147368 64.6939759,38.3410526 65.6843373,39.1673684 L67.0048193,40.4894737 L65.1891566,41.1505263 C64.5289157,41.3157895 64.0337349,41.6463158 63.5385542,42.1421053 C61.2277108,43.96 58.0915663,47.5957895 58.0915663,47.7610526 C57.926506,47.9263158 57.926506,48.2568421 58.0915663,48.2568421 C60.7325301,50.7357895 64.3638554,53.2147368 66.6746988,53.38 C67.8301205,53.38 68.9855422,53.2147368 70.1409639,52.8842105 L71.9566265,52.2231579 L71.2963855,57.6768421 C71.2963855,57.8421053 71.2963855,58.0073684 71.4614458,58.0073684 C71.4614458,58.0073684 71.626506,58.1726316 71.7915663,58.1726316 C71.7915663,58.1726316 78.0638554,57.1810526 81.2,52.8842105 C82.0253012,51.5621053 82.8506024,49.4136842 83.1807229,47.4305263 L83.5108434,45.4473684 L85.1614458,46.4389474 C89.1228916,48.9178947 91.1036145,52.0578947 91.9289157,54.2063158 L91.9289157,54.3715789 C92.0939759,55.5284211 92.2590361,56.3547368 92.4240964,57.0157895 L93.0843373,56.6852632 L93.4144578,56.6852632 C93.2493976,56.0242105 93.0843373,55.0326316 92.5891566,53.8757895 L92.5891566,53.5452632 C92.2590361,50.9010526 92.2590361,47.1 94.4048193,42.6378947 L95.7253012,39.8284211 L96.7156627,42.8031579 C97.2108434,44.6210526 98.0361446,46.1084211 98.8614458,47.4305263 C103.483133,53.8757895 112.726506,55.5284211 113.386747,55.6936842 C113.716867,55.6936842 113.716867,55.6936842 113.716867,55.5284211 C113.881928,55.3631579 113.881928,55.3631579 113.881928,55.1978947 L112.726506,45.7778947 L114.707229,46.6042105 C116.357831,47.2652632 118.833735,48.0915789 121.474699,47.9263158 C125.601205,47.7610526 131.873494,42.6378947 134.844578,39.8284211 C134.349398,40.4894737 134.349398,40.1589474 134.184337,39.9936842 Z M94.5698795,104.776842 C99.3566265,104.776842 103.318072,108.743158 103.318072,113.535789 C103.318072,118.328421 99.3566265,122.294737 94.5698795,122.294737 C89.7831325,122.294737 85.8216867,118.328421 85.8216867,113.535789 C85.8216867,108.743158 89.6180723,104.776842 94.5698795,104.776842 Z M132.368675,41.1505263 C130.057831,43.1336842 124.445783,47.7610526 120.649398,47.9263158 C115.862651,48.2568421 111.571084,45.4473684 111.571084,45.4473684 C111.406024,45.4473684 111.240964,45.4473684 111.075904,45.4473684 C110.910843,45.6126316 110.910843,45.6126316 110.910843,45.7778947 L112.231325,55.6936842 L110.415663,55.1978947 C107.444578,54.3715789 101.83253,52.2231579 98.6963855,47.7610526 C96.7156627,44.9515789 96.0554217,41.6463158 95.8903614,40.3242105 L95.8903614,40.3242105 L95.8903614,39.8284211 L96.2204819,39.3326316 C98.6963855,36.1926316 101.99759,33.3831579 106.289157,30.9042105 L105.959036,30.2431579 C101.99759,32.5568421 98.8614458,35.2010526 96.3855422,38.0105263 L96.0554217,38.5063158 L94.5698795,38.5063158 C92.5891566,38.5063158 90.113253,38.3410526 87.4722892,36.5231579 C83.0156627,33.3831579 80.8698795,27.7642105 80.0445783,24.7894737 L79.5493976,22.9715789 L89.453012,24.2936842 C89.6180723,24.2936842 89.7831325,24.2936842 89.7831325,24.1284211 C89.9481928,23.9631579 89.9481928,23.7978947 89.7831325,23.6326316 C89.6180723,23.4673684 86.9771084,19.3357895 87.3072289,14.5431579 C87.4722892,10.7421053 92.0939759,5.12315789 94.0746988,2.80947368 L94.9,1.81789474 L95.8903614,2.64421053 C97.7060241,4.29684211 101.172289,7.43684211 103.318072,10.0810526 C105.959036,13.5515789 105.298795,17.8484211 105.133735,18.3442105 C105.133735,18.5094737 105.133735,18.6747368 105.463855,18.84 C105.628916,18.84 105.793976,18.84 105.959036,18.6747368 C106.124096,18.3442105 109.260241,12.56 113.716867,10.7421053 C117.018072,9.42 123.125301,8.09789474 126.591566,7.43684211 L128.407229,7.10631579 L128.077108,8.92421053 C127.416867,12.2294737 125.931325,18.3442105 124.610843,21.6494737 C122.795181,25.9463158 117.348193,29.0863158 116.687952,29.4168421 C116.522892,29.5821053 116.357831,29.7473684 116.522892,29.9126316 C116.522892,30.0778947 116.853012,30.2431579 117.018072,30.2431579 C117.843373,30.0778947 121.96988,29.4168421 125.271084,32.0610526 C127.912048,34.2094737 131.048193,37.68 132.698795,39.4978947 L133.524096,40.4894737 L132.368675,41.1505263 Z" id="Shape"></path>
                </g>
                <path d="M24,40 C24,40 13.6216216,63.4976526 12,75" id="Shape" stroke="#c75d76" stroke-width="1"></path>
            </g>
        </g>
    </g>
</svg>