<?xml version="1.0" encoding="UTF-8"?>
<svg width="150px" height="150px" viewBox="0 0 150 150" version="1.1" xmlns="http://www.w3.org/2000/svg" xmlns:xlink="http://www.w3.org/1999/xlink">
    <!-- Generator: Sketch 46 (44423) - http://www.bohemiancoding.com/sketch -->
    <title>Group 4</title>
    <desc>Created with Sketch.</desc>
    <defs>
        <polygon id="path-1" points="0.000717384972 103 121.781958 103 121.781958 0.414575 0.000717384972 0.414575"></polygon>
    </defs>
    <g id="Page-1" stroke="none" stroke-width="1" fill="none" fill-rule="evenodd">
        <g id="Group-4">
            <g id="Page-1" transform="translate(13.000000, 29.000000)">
                <g id="Group-3">
                    <mask id="mask-2" fill="white">
                        <use xlink:href="#path-1"></use>
                    </mask>
                    <g id="Clip-2"></g>
                    <path d="M91.2181254,2.114075 C92.461797,5.1397 93.700006,7.34684286 94.8963343,8.66928929 C96.4076776,10.2676286 98.3050507,10.6005393 99.6306627,10.6005393 L100.391797,10.57295 L100.502872,10.1977357 C100.777827,9.26153929 101.19117,6.8392 99.0516179,4.56768214 C96.9921851,2.33846786 93.2957672,1.57884286 91.8026328,1.35628929 L90.8484836,1.21466429 L91.2181254,2.114075 Z M29.9723045,1.35812857 C28.4791701,1.57884286 24.7845731,2.33662857 22.7251403,4.56584286 C20.5819463,6.84103929 20.9952896,9.26337857 21.2720657,10.199575 L21.3831403,10.5747893 L22.1424537,10.6023786 C23.4680657,10.6023786 25.3672597,10.2657893 26.8822448,8.66561071 C28.0785731,7.341325 29.3094985,5.14153929 30.554991,2.11591429 L30.9264537,1.21650357 L29.9723045,1.35812857 Z M110.084424,7.30637857 C109.119349,8.5902 106.799528,11.8880393 106.123976,14.7977893 C105.464812,17.6725929 106.531857,19.8889321 107.225618,20.9538786 L107.424096,21.2592 L107.780991,21.1929857 C109.9952,20.782825 111.535678,19.4052 112.234901,17.2109321 C113.292842,13.9811464 111.74326,9.30200357 111.029469,7.44064643 L110.676215,6.52100357 L110.084424,7.30637857 Z M10.7418269,7.44984286 C10.0280358,9.30936071 8.48027463,13.984825 9.54003582,17.2109321 C10.2374388,19.4052 11.7797373,20.7846643 13.9939463,21.194825 L14.3508418,21.2610393 L14.5493194,20.9557179 C15.2430806,19.8907714 16.3083045,17.6707536 15.6509612,14.7977893 C14.9954388,11.9781643 12.8850209,8.8992 11.6850507,7.31373571 L11.0950806,6.53203929 L10.7418269,7.44984286 Z M99.9802746,16.49545 C97.7842746,16.49545 95.4280358,17.3286464 93.8365731,18.0294143 L92.9807522,18.4046286 L93.7254985,18.9748071 C95.8432,20.5897 97.8043045,21.684075 99.5578269,22.2266643 C100.19514,22.4216286 100.852484,22.5191107 101.511648,22.5191107 C103.296125,22.5191107 104.700036,21.812825 105.377409,21.3916286 L105.717916,21.1801107 L105.621409,20.7883429 C105.371946,19.7804143 104.479707,17.3599143 101.573558,16.6646643 C101.080096,16.5524679 100.546573,16.49545 99.9802746,16.49545 L99.9802746,16.49545 Z M21.7855582,16.4991286 C21.2192597,16.4991286 20.6839164,16.5561464 20.1959164,16.6665036 C17.293409,17.3617536 16.4011701,19.7804143 16.1517075,20.7883429 L16.0552,21.1801107 L16.3957075,21.3916286 C17.0730806,21.8146643 18.4751701,22.5227893 20.2614687,22.5227893 C20.9224537,22.5227893 21.579797,22.4234679 22.2152896,22.2285036 C23.9651701,21.6877536 25.9280955,20.5933786 28.0476179,18.9766464 L28.7941851,18.4083071 L27.9365433,18.0312536 C26.3450806,17.332325 23.9870209,16.4991286 21.7855582,16.4991286 L21.7855582,16.4991286 Z M101.305887,27.8162536 C100.49923,27.8162536 99.6470507,27.8659143 98.7730209,27.9689143 L97.8443642,28.0755929 L98.3924537,28.8407357 C99.9474985,31.005575 101.504364,32.627825 103.019349,33.6633429 C104.168334,34.4395214 105.473916,34.8312893 106.90514,34.8312893 C107.731827,34.8312893 108.411021,34.6970214 108.83529,34.584825 L109.224961,34.481825 L109.24317,34.0753429 C109.286872,33.0379857 109.115707,30.4611464 106.568275,28.9382179 C105.268155,28.1914679 103.500066,27.8162536 101.305887,27.8162536 L101.305887,27.8162536 Z M20.4781552,27.8180929 C18.2730507,27.8180929 16.4976776,28.1969857 15.1993791,28.9437357 C12.6537672,30.464825 12.4862448,33.039825 12.5317672,34.0771821 L12.5481552,34.4855036 L12.9396478,34.5866643 C13.3639164,34.6988607 14.0431104,34.8331286 14.8661552,34.8331286 C16.2992,34.8331286 17.6084239,34.4395214 18.7555881,33.6633429 C20.2705731,32.627825 21.8256179,31.005575 23.3806627,28.842575 L23.9287522,28.0792714 L23.0019164,27.9707536 C22.1351701,27.8695929 21.2866328,27.8180929 20.4781552,27.8180929 L20.4781552,27.8180929 Z M117.422633,22.508075 C115.807499,23.6833786 112.884961,26.0247893 111.457379,28.5004679 C109.9952,31.0607536 110.368484,33.4922893 110.721737,34.713575 L110.823707,35.0648786 L111.182424,35.1071821 C111.442812,35.13845 111.697737,35.1531643 111.9472,35.1531643 C113.840931,35.1531643 115.454245,34.275825 116.606872,32.6167893 C118.613499,29.7640571 118.400454,24.4705929 118.287558,22.9163964 L118.214722,21.9323786 L117.422633,22.508075 Z M3.4910209,22.9163964 C3.34170746,24.902825 3.2033194,29.8265929 5.16624478,32.6167893 C6.32251343,34.2776643 7.93218507,35.1550036 9.81863284,35.1550036 C10.0717373,35.1550036 10.3303045,35.1402893 10.5943343,35.1071821 L10.9512299,35.0648786 L11.0532,34.7154143 C11.4064537,33.4959679 11.7833791,31.0662714 10.3157373,28.5004679 C8.87905075,26.0082357 5.96379701,23.6778607 4.35412537,22.5099143 L3.56567761,21.9378964 L3.4910209,22.9163964 Z M99.9748119,39.6520571 C100.816066,42.0964679 101.899499,44.2282 103.022991,45.6536464 C104.887588,47.8810214 107.356722,48.2010571 108.332722,48.2360036 L108.733319,48.2507179 L108.866245,47.8681464 C109.212215,46.8767714 109.796722,44.3385571 107.750036,42.1663607 C105.925499,40.1523429 102.480364,39.271325 100.588454,38.9273786 L99.6689015,38.7600036 L99.9748119,39.6520571 Z M21.1883045,38.9273786 C19.2945731,39.2731643 15.8494388,40.1523429 14.0321851,42.1608429 C11.9782149,44.3367179 12.5609015,46.8786107 12.9068716,47.8681464 L13.039797,48.2525571 L13.4422149,48.2378429 C14.4182149,48.2010571 16.8928119,47.8736643 18.7592299,45.6462893 C19.8809015,44.2245214 20.9570507,42.1001464 21.8001254,39.6520571 L22.1078567,38.7600036 L21.1883045,38.9273786 Z M120.01923,39.1977536 C118.14917,39.8359857 114.69311,41.2007357 112.571767,43.1742893 C111.466484,44.2061286 110.142693,46.0398964 110.119021,48.9128607 L110.115379,49.2788786 L110.448603,49.4241821 C111.231588,49.7662893 112.021857,49.9391821 112.797558,49.9391821 C114.044872,49.9391821 115.232096,49.494075 116.326454,48.6148964 C119.106961,46.3893607 120.479916,40.919325 120.727558,39.8451821 L120.949707,38.8795571 L120.01923,39.1977536 Z M1.04555821,39.8396643 C1.2932,40.9156464 2.66979701,46.3912 5.44848358,48.6167357 C6.54284179,49.494075 7.73006567,49.9391821 8.97555821,49.9391821 C9.7512597,49.9391821 10.5415284,49.7681286 11.3263343,49.4260214 L11.6595582,49.2807179 L11.6559164,48.9147 C11.6322448,46.0417357 10.3084537,44.2079679 9.20134925,43.1761286 C7.01445373,41.1418786 3.26522985,39.7127536 1.75388657,39.1922357 L0.823408955,38.8722 L1.04555821,39.8396643 Z M22.5485134,49.983325 C20.4781552,51.0574679 17.7704836,52.8305393 16.6269612,55.1701107 C15.3177373,57.8959321 16.6051104,60.11595 17.2187522,60.9436286 L17.4591104,61.2655036 L17.8360358,61.1349143 C18.7829015,60.8038429 21.0972597,59.7499321 22.1333493,57.116075 C22.8726328,55.3797893 23.271409,53.2075929 23.3442448,50.4891286 L23.3697373,49.5566107 L22.5485134,49.983325 Z M98.4288716,50.4872893 C98.5035284,53.2094321 98.9004836,55.3742714 99.6379463,57.1050393 C100.675857,59.7462536 102.992036,60.8038429 103.938901,61.1349143 L104.315827,61.2655036 L104.554364,60.9436286 C105.169827,60.1141107 106.455379,57.8922536 105.146155,55.1664321 C103.938901,52.7017893 100.918036,50.8606643 99.224603,49.9814857 L98.4033791,49.5547714 L98.4288716,50.4872893 Z M117.717618,55.9242179 C116.107946,55.9757179 112.085588,56.2368964 109.494454,57.5611821 C107.511499,58.5120929 106.144006,60.1104321 105.442961,62.3102179 L105.330066,62.6615214 L105.610484,62.9006286 C106.703021,63.8349857 107.924842,64.3076821 109.239528,64.3076821 C109.967887,64.3076821 110.718096,64.1587 111.473767,63.8644143 C114.576573,62.6541643 117.216872,58.4863429 118.207439,56.7518964 L118.699081,55.89295 L117.717618,55.9242179 Z M3.5711403,56.7610929 C4.56170746,58.4937 7.20018507,62.6578429 10.3011701,63.8680929 C11.0550209,64.1605393 11.8052299,64.3076821 12.5317672,64.3076821 C13.8519164,64.3076821 15.0737373,63.8349857 16.1644537,62.9006286 L16.4430507,62.6615214 L16.3319761,62.3102179 C15.6291104,60.1122714 14.2707224,58.5176107 12.2895881,57.5667 C9.80952836,56.2994321 6.06940896,55.9996286 4.06096119,55.9334143 L3.07949851,55.9021464 L3.5711403,56.7610929 Z M93.8056179,60.3679321 C92.9698269,63.5866821 92.9188418,65.7772714 93.0208119,67.0500571 C93.2957672,69.9027893 95.1913194,71.587575 95.9961552,72.1816643 L96.3184537,72.4207714 L96.6407522,72.1816643 C97.4692597,71.5655036 99.3484239,69.8126643 98.8895582,66.8311821 C98.4070209,64.0005214 95.808603,61.1900929 94.7142448,60.1141107 L94.0423343,59.4519679 L93.8056179,60.3679321 Z M27.0588716,60.1196286 C25.396394,61.7657893 23.3205731,64.2653786 22.8835582,66.8385393 C22.4265134,69.8089857 24.3038567,71.5636643 25.1323642,72.1816643 L25.4564836,72.4226107 L25.7787821,72.1835036 C26.5836179,71.587575 28.4791701,69.8972714 28.7541254,67.0482179 C28.8560955,65.768075 28.8032896,63.5830036 27.9693194,60.37345 L27.7307821,59.4556464 L27.0588716,60.1196286 Z M104.126454,70.2540929 C103.476394,70.2540929 102.866394,70.2945571 102.312842,70.3791643 C99.2865134,70.8812893 97.6604537,72.8953071 97.0996179,73.7395393 L96.9011403,74.0393429 L97.0923343,74.3446643 C98.1939761,76.093825 99.8327821,77.0189857 101.835767,77.0189857 C102.019678,77.0189857 102.209051,77.0116286 102.400245,76.995075 C105.748872,76.7982714 109.459857,73.5666464 110.898364,72.1871821 L111.604872,71.5084857 L110.663469,71.252825 C108.977319,70.7966821 106.473588,70.2540929 104.126454,70.2540929 L104.126454,70.2540929 Z M17.6320955,70.2522536 C15.2831403,70.2522536 12.7885134,70.7985214 11.1096478,71.2546643 L10.1700657,71.510325 L10.8747522,72.1890214 C12.3132597,73.570325 16.0169612,76.80195 19.3564836,76.995075 C19.5494985,77.0134679 19.7570806,77.0226643 19.9592,77.0226643 C21.945797,77.0226643 23.5791403,76.0975036 24.6807821,74.3446643 L24.8719761,74.0411821 L24.6753194,73.7432179 C24.1181254,72.8989857 22.4975284,70.8831286 19.452991,70.3810036 C18.895797,70.2945571 18.2839761,70.2522536 17.6320955,70.2522536 L17.6320955,70.2522536 Z M34.3151403,68.4994143 C33.3773791,70.2025929 31.8642149,73.4599679 32.2538866,76.1379679 C32.6544836,79.17095 34.9506328,80.2929143 35.9175284,80.6331821 L36.2908119,80.7656107 L36.5311701,80.4492536 C37.1320657,79.6602 38.468603,77.5174321 37.9150507,74.6481464 C37.5381254,72.8603607 36.6458866,70.7874857 35.2583642,68.4810214 L34.7703642,67.6680571 L34.3151403,68.4994143 Z M86.5147522,68.4791821 C85.1272299,70.7874857 84.234991,72.8640393 83.8580657,74.651825 C83.3063343,77.5137536 84.6410507,79.6583607 85.2419463,80.4492536 L85.4823045,80.76745 L85.8555881,80.6331821 C86.8243045,80.291075 89.1204537,79.1672714 89.5192299,76.1434857 C89.9089015,73.4618071 88.3957373,70.2025929 87.459797,68.4994143 L87.0045731,67.6698964 L86.5147522,68.4791821 Z M77.2500358,74.0798071 C75.2506925,75.8400036 73.795797,77.5707714 72.925409,79.2242893 C71.5670209,81.7018071 72.2207224,84.1774857 72.5666925,85.1283964 L72.7050806,85.5072893 L73.1038567,85.4888964 C74.1308418,85.441075 76.6509612,85.0382714 77.9055582,82.3400393 C79.0290507,79.7558429 78.5355881,76.2446464 78.1422746,74.38145 L77.9492597,73.4654857 L77.2500358,74.0798071 Z M43.6417672,74.4053607 C43.2484537,76.2667179 42.754991,79.7797536 43.8730209,82.3492357 C45.1330806,85.0621821 47.6532,85.4631464 48.6801851,85.5128071 L49.0789612,85.5312 L49.2173493,85.1504679 C49.5633194,84.2013964 50.2170209,81.7238786 48.8531701,79.2390036 C47.9882448,77.5946821 46.5333493,75.8639143 44.534006,74.1037179 L43.8347821,73.4893964 L43.6417672,74.4053607 Z M31.0648418,80.4805214 C30.6733493,80.4805214 30.3091701,80.5117893 29.9795881,80.5577714 C27.1262448,80.9697714 23.8886925,82.8035393 22.2134687,83.8592893 L21.3813194,84.3834857 L22.258991,84.823075 C23.3242149,85.3564679 27.0461254,87.0927536 30.2727522,87.0927536 C30.8153791,87.0927536 31.3197672,87.0430929 31.7768119,86.9419321 C34.0092299,86.4342893 35.5096478,85.0143607 36.1214687,82.8384857 L36.219797,82.4835036 L35.9357373,82.2554321 C34.4699164,81.0782893 32.8329313,80.4805214 31.0648418,80.4805214 L31.0648418,80.4805214 Z M90.7082746,80.4805214 C88.9383642,80.4805214 87.2995582,81.0782893 85.8373791,82.2535929 L85.5533194,82.4816643 L85.6534687,82.8366464 C86.2652896,85.0125214 87.7693493,86.4342893 90.0017672,86.9456107 C90.4624537,87.0449321 90.9650209,87.0945929 91.5021851,87.0945929 C94.7306328,87.0945929 98.4525433,85.3546286 99.5159463,84.8212357 L100.391797,84.3834857 L99.5614687,83.85745 C97.8862448,82.8017 94.6468716,80.9697714 91.7953493,80.5577714 C91.4639463,80.5117893 91.0997672,80.4805214 90.7082746,80.4805214 L90.7082746,80.4805214 Z M75.5311104,86.4729143 C74.5496478,86.4729143 73.5663642,86.6715571 72.6031104,87.063325 L72.2698866,87.1994321 L72.262603,87.5636107 C72.2152597,89.83145 73.238603,91.6284321 75.2215582,92.7595929 C76.5253194,93.5228964 78.3771701,93.912825 80.7206627,93.912825 C82.4978567,93.912825 84.1293791,93.681075 84.9433194,93.5449679 L85.9065731,93.3831107 L85.2656179,92.6400393 C83.9654985,91.1263071 81.394394,88.4096821 78.8105433,87.2325393 C77.7562448,86.7304143 76.6509612,86.4729143 75.5311104,86.4729143 L75.5311104,86.4729143 Z M46.2383642,86.4747536 C45.1221552,86.4747536 44.0241552,86.7304143 42.9698567,87.2325393 C40.3769015,88.4133607 37.805797,91.1281464 36.5056776,92.6400393 L35.8665433,93.3812714 L36.8279761,93.5449679 C37.6473791,93.6829143 39.2843642,93.9165036 41.0670209,93.9165036 C43.3995881,93.9165036 45.2423343,93.5284143 46.5479164,92.7632714 C48.5326925,91.63395 49.5596776,89.8332893 49.5123343,87.56545 L49.5050507,87.2012714 L49.170006,87.0651643 C48.2049313,86.6733964 47.2198269,86.4747536 46.2383642,86.4747536 L46.2383642,86.4747536 Z M67.2751701,103.000736 C67.0493791,103.000736 66.8654687,102.813129 66.8654687,102.585057 C66.8654687,98.8641821 64.9152896,95.2941286 61.2261552,92.2629857 L60.882006,91.9778964 L60.5360358,92.2629857 C56.8541851,95.2922893 54.9094687,98.8623429 54.9094687,102.585057 C54.9094687,102.813129 54.7237373,103.000736 54.4979463,103.000736 C54.2721552,103.000736 54.0882448,102.813129 54.0882448,102.585057 C54.0882448,98.6305929 55.9601254,95.0384679 59.6474388,91.9135214 L60.1991701,91.4463429 L59.6037373,91.0361821 C56.612006,88.9743429 53.2670209,87.6059143 51.2767821,87.166325 L50.9326328,87.10195 L50.3098866,87.0136643 L50.3117075,87.6500571 C50.318991,90.2103429 49.1590806,92.2262 46.9539761,93.4805929 C45.1622149,94.5326643 42.6603045,94.7533786 40.8776478,94.7533786 C37.7584537,94.7533786 35.2055582,94.10595 34.8869015,93.8815571 C34.8668716,93.8594857 34.8322746,93.8043071 34.8104239,93.7436107 C34.7339463,92.8276464 39.6321552,87.8450214 42.6275284,86.4821107 C42.7841254,86.4085393 42.9334388,86.3515214 43.0827522,86.2945036 L44.5048716,85.7482357 L43.1847224,85.209325 C41.4184537,84.6078786 39.5975582,83.8353786 37.6164239,82.8513607 L37.0428418,82.5644321 L36.8552896,83.1842714 C36.116006,85.6102893 34.4225731,87.1883964 31.9534388,87.7512179 C31.4690806,87.8578964 30.920991,87.9112357 30.3310209,87.9112357 C26.0500955,87.9112357 20.7840657,85.1210393 20.3379463,84.5637357 C20.3215582,84.5343071 20.3033493,84.4699321 20.2997075,84.4037179 C20.2978866,84.37245 20.2997075,84.3301464 20.3088119,84.2860036 L20.481797,84.1498964 C21.8256179,82.634325 27.5377672,80.0740393 29.8630507,79.7392893 C30.0597075,79.7098607 30.2691104,79.6914679 30.4839761,79.6749143 L31.9789313,79.570075 L30.7662149,78.6798607 C29.1183045,77.4677714 27.5541552,76.1600393 26.1192896,74.79345 L25.6476776,74.3446643 L25.2889612,74.8872536 C24.0106925,76.8258607 22.173409,77.8521821 19.9755881,77.8521821 C19.7534388,77.8521821 19.5276478,77.8411464 19.3000358,77.819075 C14.9189612,77.5652536 9.41803582,72.2717893 9.08299104,71.3687 C9.06296119,71.2638607 9.1030209,71.1259143 9.19588657,71.0265929 C9.67842388,70.67345 14.0777075,69.4392893 17.7504537,69.4392893 C18.4205433,69.4392893 19.0378269,69.4815929 19.5822746,69.5625214 C19.7370507,69.5882714 19.8845433,69.6324143 20.0338567,69.6747179 L21.8146925,70.1400571 L20.8678269,68.8801464 C19.574991,67.1622536 18.4223642,65.4186107 17.4427224,63.6970393 L17.1204239,63.1323786 L16.6214985,63.5462179 C15.3523343,64.6019679 13.9775582,65.1390393 12.535409,65.1390393 C11.7087224,65.1390393 10.8583642,64.969825 10.0043642,64.6405929 C5.84543881,63.0146643 2.1490209,56.4245036 2.07072239,55.4478429 C2.07800597,55.3724321 2.12534925,55.2731107 2.20182687,55.2013786 C2.20182687,55.2013786 2.20182687,55.2032179 2.20364776,55.2032179 C2.22185672,55.2032179 2.5550806,55.0781464 3.69496119,55.0781464 C5.99475224,55.0781464 10.2920657,55.6188964 12.6501254,56.8236286 C12.8631701,56.9247893 13.0725731,57.0351464 13.2856179,57.1620571 L14.6057672,57.9382357 L14.0722448,56.4925571 C13.4258269,54.7378786 12.8613493,52.80295 12.3496776,50.5737357 L12.2021851,49.9355036 L11.6049313,50.189325 C10.7017672,50.5737357 9.81499104,50.7687 8.96645373,50.7687 C7.53522985,50.7687 6.18230448,50.2628964 4.93863284,49.2641643 C1.46254328,46.481325 -0.181725373,39.1205036 0.0167522388,38.1677536 C0.0531701493,38.0794679 0.149677612,37.9875036 0.268035821,37.9470393 C1.94143881,38.1622357 7.23478209,40.2185571 9.75672239,42.567325 C9.92242388,42.721825 10.0917672,42.8910393 10.2611104,43.0768071 L11.2990209,44.215325 L11.1752,42.129575 C11.1242149,41.3405214 11.0732299,40.5477893 11.0732299,39.7477 C11.0732299,38.6570036 11.1333194,37.5773429 11.2043343,36.4995214 L11.2462149,35.8502536 L10.6052597,35.9146286 C10.2410806,35.9532536 10.0334985,35.9771643 9.8332,35.9771643 C7.65358806,35.9771643 5.8090209,34.9802714 4.49797612,33.0950036 C1.97785672,29.5139143 2.52412537,21.8422536 2.98845373,21.0072179 C3.01940896,20.9704321 3.0831403,20.92445 3.15597612,20.8968607 L3.44185672,20.8950214 C5.22087164,21.6803964 9.67478209,25.7452179 11.0240657,28.0847893 C11.1096478,28.2356107 11.1752,28.3845929 11.244394,28.5354143 L12.0055284,30.1668607 L12.3642448,28.6347357 C12.8158269,26.7034857 13.4112597,24.7667179 14.1833194,22.7122357 L14.4145731,22.1015929 L13.7809015,21.9746821 C11.2771701,21.4725571 9.54003582,19.9128429 8.76069254,17.4684321 C7.38773731,13.2822179 10.1281851,6.12371786 10.8128418,5.46709286 C10.8583642,5.43950357 10.9403045,5.41375357 11.0258866,5.41375357 C11.1442448,5.42478929 11.2243642,5.45605714 11.2880955,5.51123571 C12.6501254,6.66998571 15.7711403,11.7004321 16.4485134,14.6101821 C16.490394,14.7904321 16.5122448,14.9651643 16.5340955,15.1398964 L16.7872,16.9295214 L17.5774687,15.5702893 C18.5334388,13.9241286 19.4803045,12.4710929 20.4690507,11.1302536 L20.6420358,10.8966643 L20.5473493,10.6207714 C20.256006,9.76918214 19.5112597,6.77666429 22.1278866,3.99750357 C24.8300955,1.07303929 29.8685134,0.414575 31.4199164,0.414575 C31.5437373,0.414575 31.636603,0.416414286 31.689409,0.42745 C31.7895582,0.464235714 31.8933493,0.583789286 31.9224836,0.729092857 C31.9406925,0.817378571 31.9261254,0.914860714 31.8860657,0.997628571 L31.758603,1.315825 C31.2232597,2.69528929 29.5972,6.88702143 27.4813194,9.23027143 C25.7642149,11.0456464 23.6301254,11.4282179 22.1460955,11.4282179 C21.9421552,11.4282179 21.7618866,11.4190214 21.5998269,11.4079857 L21.3012,11.3859143 L21.1227522,11.6287 C20.2978866,12.7451464 19.5021552,13.9425214 18.6918567,15.2852 L17.8870209,16.6168429 L19.540394,16.0172357 C19.6915284,15.9602179 19.8426627,15.9013607 20.012006,15.8608964 C20.5491701,15.7376643 21.1464239,15.6751286 21.7764537,15.6751286 C25.101409,15.6751286 28.6630806,17.4150929 29.6754985,17.950325 C29.8776179,18.0662 29.9540955,18.2096643 29.9468119,18.362325 C29.9413493,18.5094679 29.8612299,18.6382179 29.7337672,18.7062714 L29.5006925,18.8828429 C28.3389612,19.8135214 25.5092896,22.0776821 22.4538269,23.0193964 C21.7418567,23.2382714 21.004394,23.3486286 20.2632896,23.3486286 C18.182006,23.3486286 16.5759761,22.4860036 15.9823642,22.1144679 L15.426991,21.7686821 L15.1866328,22.3811643 C14.3927224,24.4043786 13.7827224,26.28045 13.3220358,28.1123786 L12.9396478,29.6389857 L14.3872597,28.5243786 C14.5129015,28.4232179 14.6367224,28.3202179 14.7896776,28.2282536 C16.2154388,27.4079321 18.147409,26.9904143 20.5200358,26.9904143 C22.3172597,26.9904143 23.8704836,27.2332 24.6370806,27.3785036 C24.873797,27.4336821 24.9885134,27.5532357 25.0231104,27.7040571 C25.0558866,27.8438429 25.0158269,27.9873071 24.9174985,28.0866286 L24.7317672,28.3422893 C23.897797,29.5580571 21.8529313,32.5450571 19.2144537,34.3493964 C17.6084239,35.434575 15.9404836,35.6626464 14.8242746,35.6626464 C13.9211104,35.6626464 13.1891104,35.5155036 12.7320657,35.3922714 L12.1002149,35.2193786 L12.047409,35.8796821 C11.9454388,37.1653429 11.8944537,38.4657179 11.8944537,39.7477 C11.8944537,40.2112 11.9217672,40.6728607 11.9509015,41.1326821 L12.0583343,43.3306286 L12.9687821,42.1442893 C13.108991,41.9603607 13.2619463,41.7764321 13.4331104,41.5961821 C15.9313791,38.833575 21.0499164,38.0592357 22.5594388,37.8900214 C22.9072299,37.8937 23.0765731,38.0757893 23.0729313,38.2983429 C22.5048119,40.2810929 21.3175881,43.7279143 19.3929015,46.172325 C17.9817075,47.8571107 16.2682448,48.5560393 15.0810209,48.8411286 C14.8916478,48.8834321 14.2142746,49.0232179 13.5478269,49.0581643 L12.8995881,49.0931107 L13.0434388,49.7313429 C13.4786328,51.6809857 14.0212597,53.5717714 14.6567522,55.3466821 L15.1556776,56.7445393 L15.7492896,55.1682714 C15.7911701,55.0487179 15.8330507,54.927325 15.8913194,54.8059321 C17.6320955,51.245075 22.6049612,48.99195 23.5827821,48.5762714 L23.8031104,48.5174143 C23.9597075,48.5174143 24.1072,48.6112179 24.1745731,48.7565214 C24.2128119,48.8429679 24.2237373,48.9386107 24.2000657,49.0287357 L24.1800358,49.4572893 C24.1654687,51.0537893 24.1326925,54.515325 22.8908418,57.4324321 C21.7618866,60.2962 19.2854687,61.4807 18.2712299,61.8577536 L17.6685134,62.0821464 L17.9853493,62.6468071 C18.9868418,64.4382714 19.9956179,66.025575 21.0663045,67.5043607 L21.9385134,68.7054143 L22.0532299,67.2192714 L22.0623343,66.9636107 C22.0623343,66.8790036 22.0623343,66.7962357 22.0750806,66.7042714 C22.7178567,62.9282179 26.4925731,59.4446107 27.6324537,58.46795 C27.7071104,58.4017357 27.8109015,58.3318429 27.9383642,58.3318429 C28.1350209,58.3612714 28.2406328,58.4385214 28.3007224,58.5507179 C29.5862746,62.8233786 29.6955284,65.5565571 29.5717075,67.1217893 C29.2676179,70.2706464 27.226394,72.1228071 26.3632896,72.7739143 L25.8516179,73.1601643 L26.3086627,73.6107893 C27.576006,74.8596643 29.021797,76.1067 30.7279761,77.41995 L31.9243045,78.3414321 L31.5910806,76.8608071 L31.5200657,76.5867536 C31.4909313,76.4819143 31.4581552,76.3733964 31.4417672,76.2520036 C30.9082448,72.5807893 33.5594687,68.0653429 34.3843343,66.7686464 C34.5209015,66.5773607 34.6210507,66.5221821 34.7303045,66.5111464 C34.7357672,66.5093071 34.7430507,66.5093071 34.7485134,66.5093071 C34.8814388,66.5093071 34.9615582,66.5424143 35.0362149,66.60495 L35.1855284,66.9194679 L35.2638269,66.9397 L35.3002448,66.9948786 C35.9776179,68.0451107 38.033409,71.2289143 38.7162448,74.4826107 C39.3280657,77.6443429 37.8804537,80.0188607 37.2285731,80.8925214 L36.8407224,81.4130393 L37.4124836,81.7128429 C39.3080358,82.7134143 41.0925134,83.5153429 42.8642448,84.1609321 L44.3428119,84.6998429 L43.4123343,83.18795 C43.3121851,83.0316107 43.2120358,82.8752714 43.1264537,82.6913429 C41.5022149,78.9539143 42.9243343,73.699075 43.2247821,72.68195 C43.2775881,72.4943429 43.4396478,72.3674321 43.6199164,72.3674321 C43.7983642,72.4023786 43.8675582,72.4410036 43.9221851,72.4998607 L44.1479761,72.6929857 C45.1039463,73.4783607 48.0028119,75.8583964 49.5724239,78.8435571 C51.1129015,81.6447893 50.3790806,84.3742893 49.9930507,85.4171643 L49.7599761,86.0443607 L50.4118567,86.1547179 C50.5520657,86.1786286 50.6904537,86.2098964 50.8288418,86.239325 C51.0254985,86.2816286 51.2239761,86.3239321 51.4242746,86.3533607 C53.1668716,86.7377714 57.0799761,88.2239143 60.5651701,90.7179857 L60.8801851,90.9442179 L61.1952,90.7179857 C64.6694687,88.2275929 68.5589015,86.7469679 70.3233493,86.3588786 C70.5054388,86.3349679 70.7221254,86.2889857 70.9388119,86.2411643 C71.0881254,86.2098964 71.2356179,86.1767893 71.3849313,86.1510393 L72.0404537,86.0388429 L71.8037373,85.4116464 C71.4122448,84.3669321 70.6656776,81.6337536 72.2061552,78.8288429 C73.7812299,75.8344857 76.6800955,73.45445 77.6342448,72.6709143 L77.8145134,72.5200929 C77.9164836,72.4189321 77.9856776,72.3784679 78.0621552,72.3582357 C78.0767224,72.3563964 78.0894687,72.3563964 78.1022149,72.3563964 C78.3607821,72.3563964 78.5082746,72.4777893 78.5556179,72.6451643 C78.8597075,73.6696464 80.2818269,78.9318429 78.6521254,82.6803071 C78.5701851,82.8550393 78.4700358,83.0132179 78.3680657,83.1713964 L77.4375881,84.6924857 L78.9143343,84.153575 C80.6915284,83.5006286 82.4723642,82.7005393 84.356991,81.7054857 L84.9287522,81.4056821 L84.5409015,80.8851643 C83.8908418,80.0151821 82.4468716,77.6443429 83.0568716,74.4881286 C83.7360657,71.2473071 85.7900358,68.0561464 86.4655881,67.0059143 L86.6203642,66.7668071 L86.7423642,66.6012714 C86.8152,66.5387357 86.902603,66.5074679 86.9972896,66.5074679 C87.1575284,66.5221821 87.2594985,66.5810393 87.3250507,66.669325 C88.2081851,68.0579857 90.8648716,72.5863071 90.3313493,76.2575214 C90.3131403,76.3881107 90.284006,76.4984679 90.2548716,76.6106643 L89.8670209,78.3175214 L91.0633493,77.3960393 C92.7604239,76.0901464 94.2007522,74.8467893 95.4662746,73.5997536 L95.9233194,73.1509679 L95.4134687,72.7628786 C94.5485433,72.1080929 92.5054985,70.2412179 92.2050507,67.1236286 C92.079409,65.5657536 92.1795582,62.8564857 93.3777075,58.8542 C93.421409,58.6886643 93.4414388,58.609575 93.4669313,58.558075 C93.5233791,58.4458786 93.6308119,58.3631107 93.7546328,58.3373607 L93.7910507,58.3373607 C93.9458269,58.3373607 94.0332299,58.3723071 94.100603,58.4311643 C95.2550507,59.4243786 99.0607224,62.94845 99.6998567,66.6969143 C99.712603,66.7833607 99.712603,66.8698071 99.712603,66.9562536 L99.7198866,67.2137536 L99.8309612,68.703575 L100.704991,67.4988429 C101.773857,66.0274143 102.780812,64.44195 103.785946,62.6486464 L104.102782,62.0821464 L103.500066,61.8577536 C102.487648,61.4825393 100.014872,60.2998786 98.8804537,57.4213964 C97.6440657,54.5190036 97.6094687,51.0611464 97.5930806,49.5842 C97.5912597,49.2825571 97.5894388,49.1317357 97.5821552,49.0471286 C97.6294985,48.9349321 97.6458866,48.8484857 97.6713791,48.7914679 C97.7478567,48.6259321 97.8753194,48.5210929 98.0064239,48.5210929 L98.1866925,48.5725929 C99.1663343,48.9901107 104.144663,51.2524321 105.881797,54.8022536 C105.940066,54.9218071 105.981946,55.0432 106.025648,55.1645929 L106.617439,56.7427 L107.118185,55.3448429 C107.751857,53.5736107 108.294484,51.6846643 108.729678,49.7313429 L108.873528,49.0931107 L108.030454,49.0526464 C106.743081,48.9588429 104.30126,48.4603964 102.389319,46.1796821 C100.470096,43.7444679 99.2865134,40.3362714 98.752991,38.5227357 C98.7165731,38.4142179 98.702006,38.3498429 98.7001851,38.2983429 C98.6965433,38.0757893 98.8677075,37.8918607 99.0862149,37.8789857 C100.692245,38.0573964 105.828991,38.8188607 108.34729,41.6017 C108.522096,41.7856286 108.669588,41.9622 108.806155,42.1406107 L109.712961,43.3287893 L109.822215,41.1455571 C109.851349,40.6802179 109.880484,40.2148786 109.880484,39.7440214 C109.880484,38.4546821 109.829499,37.1524679 109.727528,35.8741643 L109.674722,35.2138607 L109.041051,35.3867536 C108.356394,35.5725214 107.611648,35.6718429 106.888752,35.6718429 C105.315499,35.6718429 103.858782,35.2267357 102.562304,34.3493964 C99.9238269,32.5450571 97.8753194,29.5580571 97.1050806,28.4324143 L96.9138866,28.1546821 C96.7554687,27.9817893 96.7172299,27.8272893 96.7572896,27.683825 C96.7955284,27.5422 96.9084239,27.4318429 97.0504537,27.3950571 C97.9080955,27.2313607 99.4722448,26.9848964 101.27129,26.9848964 C103.629349,26.9848964 105.550394,27.4024143 106.979797,28.2227357 C107.12911,28.3128607 107.258394,28.4177 107.385857,28.5225393 L108.83529,29.6389857 L108.452901,28.1123786 C107.992215,26.2767714 107.382215,24.4007 106.586484,22.379325 L106.346125,21.7668429 L105.792573,22.1126286 C105.198961,22.4841643 103.59111,23.3467893 101.509827,23.3467893 C100.770543,23.3467893 100.03126,23.2364321 99.3192896,23.0175571 C96.2674687,22.0758429 93.4396179,19.8135214 92.3725731,18.9619321 L92.1121851,18.7522536 C91.9173493,18.6382179 91.835409,18.5094679 91.8263045,18.3678429 C91.8190209,18.2133429 91.8936776,18.0698786 92.0211403,17.9907893 C93.4032,17.2624321 96.7682149,15.6732893 99.9912,15.6732893 C100.62123,15.6732893 101.214842,15.7339857 101.757469,15.8572179 C101.924991,15.8976821 102.079767,15.9583786 102.234543,16.0172357 L103.887916,16.6205214 L103.084901,15.2852 C102.276424,13.9480393 101.480693,12.7506643 100.652185,11.6250214 L100.473737,11.3859143 L100.176931,11.4043071 C100.014872,11.4153429 99.8364239,11.4245393 99.6324836,11.4245393 C98.1448119,11.4245393 96.0107224,11.0456464 94.2972597,9.23578929 C92.8897075,7.67791429 91.4457373,5.00911071 90.0145134,1.31214643 L89.9070806,1.03993214 C89.846991,0.913021429 89.8342448,0.817378571 89.8524537,0.725414286 C89.8815881,0.58195 89.9835582,0.464235714 90.1201254,0.416414286 C90.1219463,0.416414286 90.2384836,0.414575 90.3532,0.414575 C91.9064239,0.414575 96.9466627,1.07303929 99.6488716,4.00118214 C102.059737,6.55962857 101.664603,9.24130714 101.216663,10.6134143 L101.125618,10.8856286 L101.296782,11.1155393 C102.287349,12.4582179 103.236036,13.9149321 104.197469,15.56845 L104.989558,16.9332 L105.2372,15.1509321 C105.260872,14.9743607 105.282722,14.79595 105.324603,14.6083429 C106.018364,11.6287 109.112066,6.71780714 110.512334,5.55721786 L110.688961,5.41743214 C110.699887,5.41559286 110.712633,5.41559286 110.721737,5.41559286 C110.8492,5.41559286 110.920215,5.44134286 110.983946,5.48364643 C111.668603,6.14395 114.416334,13.1847357 113.014245,17.4702714 C112.227618,19.9312357 110.494125,21.4891107 107.997678,21.9765214 L107.360364,22.1015929 L107.591618,22.714075 C108.363678,24.7630393 108.95911,26.6998071 109.410693,28.6328964 L109.767588,30.1631821 L110.532364,28.5280571 C110.599737,28.3809143 110.663469,28.2337714 110.749051,28.0866286 C112.036424,25.855575 116.508543,21.6748786 118.344006,20.9869857 L118.440513,20.9502 L118.516991,20.8821464 C118.699081,20.9299679 118.757349,20.9741107 118.801051,21.0311286 C119.248991,21.8440929 119.789797,29.5212714 117.276961,33.0950036 C115.960454,34.98395 114.121349,35.9826821 111.956304,35.9826821 C111.779678,35.9826821 111.595767,35.9569321 111.413678,35.9348607 L110.528722,35.8392179 L110.570603,36.4921643 C110.641618,37.571825 110.699887,38.653325 110.699887,39.7440214 C110.699887,40.5606643 110.648901,41.3662714 110.597916,42.1718786 L110.472275,44.215325 L111.513827,43.0749679 C111.68317,42.8892 111.852513,42.7199857 112.016394,42.5654857 C114.616633,40.146825 119.860812,38.1585571 121.379439,37.9672714 C121.623439,37.9856643 121.721767,38.0757893 121.76729,38.1935036 C121.956663,39.1186643 120.312394,46.481325 116.834484,49.2641643 C115.588991,50.2647357 114.230603,50.7723786 112.799379,50.7723786 C111.949021,50.7723786 111.064066,50.5774143 110.170006,50.1930036 L109.570931,49.9355036 L109.42526,50.575575 C108.911767,52.8047893 108.34729,54.7415571 107.699051,56.4943964 L107.167349,57.9363964 L108.483857,57.1657357 C108.706006,57.0351464 108.924513,56.9174321 109.133916,56.8181107 C111.51929,55.6005036 115.776543,55.0542357 118.043558,55.0542357 C119.294513,55.0542357 119.582215,55.210575 119.585857,55.2124143 C119.644125,55.2657536 119.696931,55.3687536 119.704215,55.4754321 C119.624096,56.4245036 115.927678,63.012825 111.768752,64.6369143 C110.914752,64.969825 110.060752,65.1390393 109.230424,65.1390393 C107.77917,65.1390393 106.406215,64.6038071 105.149797,63.5480571 L104.650872,63.1287 L104.328573,63.6970393 C103.343469,65.4259679 102.189021,67.1677714 100.901648,68.8783071 L99.956603,70.1290214 L101.744722,69.6710393 C101.888573,69.630575 102.032424,69.5882714 102.190842,69.5606821 C102.746215,69.4779143 103.383528,69.4356107 104.075469,69.4356107 C107.988573,69.4356107 112.169349,70.7212714 112.59726,71.0431464 C112.670096,71.1203964 112.711976,71.2620214 112.684663,71.39445 C112.355081,72.2681107 106.839588,77.5634143 102.463976,77.819075 C102.219976,77.8411464 101.996006,77.8521821 101.777499,77.8521821 C99.5742149,77.8521821 97.742394,76.8258607 96.4805134,74.8854143 L96.121797,74.3373071 L95.6501851,74.7879321 C94.2116776,76.1563607 92.6457075,77.4659321 90.9941552,78.6761821 L89.7905433,79.5590393 L91.2727522,79.673075 C91.4949015,79.6914679 91.7115881,79.7098607 91.9100657,79.7392893 C95.336991,80.2340571 100.308036,83.0775929 101.356872,84.1333429 C101.47523,84.2970393 101.500722,84.4460214 101.420603,84.5858071 C100.989051,85.1192 95.7193791,87.9112357 91.4402746,87.9112357 C90.8539463,87.9112357 90.3094985,87.8578964 89.8251403,87.7548964 C87.337797,87.1847179 85.6389015,85.6029321 84.916006,83.1769143 L84.7302746,82.5533964 L84.1512299,82.8421643 C82.1555284,83.8353786 80.3364537,84.6078786 78.5865731,85.2038071 L77.1662746,85.6875393 L78.5629015,86.239325 C78.8542448,86.3533607 79.0053791,86.4122179 79.1546925,86.4821107 C81.9242746,87.7438607 87.0337075,92.6970571 86.9663343,93.7436107 C86.9499463,93.7914321 86.9135284,93.8539679 86.8661851,93.8981107 C86.5693791,94.10595 84.0219463,94.7515393 80.906394,94.7515393 C79.1200955,94.7515393 76.6127224,94.530825 74.8136776,93.4769143 C72.5994687,92.2151643 71.4413791,90.2029857 71.4577672,87.6518964 L71.461409,87.0099857 L70.8332,87.10195 L70.4307821,87.1792 C68.4605731,87.6132714 65.1392597,88.9743429 62.1566328,91.0343429 L61.5612,91.4445036 L62.1147522,91.9116821 C65.8111701,95.0403071 67.6848716,98.6324321 67.6848716,102.585057 C67.6848716,102.813129 67.5009612,103.000736 67.2751701,103.000736 L67.2751701,103.000736 Z" id="Fill-1" fill="#db89a7" mask="url(#mask-2)"></path>
                </g>
                <path d="M54.4275026,28.4322697 C54.366999,28.5517174 54.2514923,28.6349687 54.1176511,28.6548767 L38.3005583,30.9225715 L49.7448951,41.9352795 C49.8420674,42.0293898 49.88607,42.1633159 49.8622353,42.2954322 L47.1615771,57.8471495 L61.3084054,50.5047409 C61.3670756,50.4739741 61.4330794,50.4576858 61.5009167,50.4576858 C61.568754,50.4576858 61.6347579,50.4739741 61.6915946,50.5047409 L75.8402563,57.8453397 L73.1377647,42.2954322 C73.11393,42.1633159 73.1579326,42.0293898 73.2569384,41.9352795 L84.6994417,30.9225715 L68.8823489,28.6548767 C68.7485077,28.6349687 68.633001,28.5517174 68.5724974,28.4322697 L61.5009167,14.2849668 L54.4275026,28.4322697 Z M76.3884551,59 C76.3224512,59 76.2546139,58.9819019 76.1941104,58.9511351 L61.5009167,51.3245859 L46.8040562,58.9511351 C46.7472195,58.9819019 46.6793822,58.9981902 46.6115449,58.9981902 C46.5235398,58.9981902 46.4410349,58.9728528 46.3713642,58.9221781 C46.2430234,58.8280678 46.1788529,58.6760436 46.2063545,58.5203997 L49.0133522,42.3678247 L37.1253228,30.9298108 C37.0116495,30.821222 36.9713138,30.6619585 37.0208167,30.5117441 C37.0703196,30.3651493 37.1986605,30.2583704 37.3545029,30.2366526 L53.7839649,27.880277 L61.1305617,13.182791 C61.198399,13.0470551 61.3670756,13 61.5009167,13 C61.6347579,13 61.801601,13.0470551 61.8712717,13.182791 L69.2160351,27.880277 L85.6473305,30.2366526 C85.803173,30.2583704 85.9315138,30.3651493 85.9791833,30.5135539 C86.0286862,30.6619585 85.9883505,30.821222 85.8746772,30.9298108 L73.9866478,42.3678247 L76.7936455,58.5222095 C76.8211471,58.6760436 76.7588101,58.8280678 76.6286358,58.9203683 C76.5589651,58.9728528 76.4746268,59 76.3884551,59 L76.3884551,59 Z" id="Fill-4" fill="#db89a7"></path>
            </g>
        </g>
    </g>
</svg>