<?xml version="1.0" encoding="UTF-8"?>
<svg width="150px" height="150px" viewBox="0 0 150 150" version="1.1" xmlns="http://www.w3.org/2000/svg" xmlns:xlink="http://www.w3.org/1999/xlink">
    <!-- Generator: Sketch 46 (44423) - http://www.bohemiancoding.com/sketch -->
    <title>Group</title>
    <desc>Created with Sketch.</desc>
    <defs>
        <polygon id="path-1" points="0 105 100 105 100 0 0 0"></polygon>
    </defs>
    <g id="Page-1" stroke="none" stroke-width="1" fill="none" fill-rule="evenodd">
        <g id="Group">
            <g id="Page-1" transform="translate(25.000000, 21.000000)">
                <path d="M57.6054105,14 C51.1653297,14 47.1651353,8.9775641 47.1244947,8.92628205 C47.0345049,8.81089744 46.9924128,8.6650641 47.0011215,8.51602564 C47.0112817,8.36698718 47.073694,8.23076923 47.1767469,8.13461538 C47.2681882,8.04967949 47.3872071,8 47.5091288,8 C47.6571766,8 47.7965158,8.07051282 47.8937629,8.19391026 C48.0447136,8.38782051 51.6573711,12.8958333 57.5284837,12.8958333 L57.5299351,12.8958333 C59.4211737,12.8958333 61.36031,12.4278846 63.2907376,11.5080128 C63.3546014,11.4775641 63.4213681,11.463141 63.4895862,11.463141 C63.6927891,11.463141 63.8771232,11.5961538 63.9584043,11.8028846 C64.012108,11.9391026 64.0135594,12.0929487 63.9642101,12.2307692 C63.9134094,12.3701923 63.8161623,12.4807692 63.6913377,12.5400641 C61.6535028,13.5080128 59.6055077,14 57.6054105,14 Z" id="Fill-1" fill="#db89a7"></path>
                <mask id="mask-2" fill="white">
                    <use xlink:href="#path-1"></use>
                </mask>
                <g id="Clip-4"></g>
                <path d="M1.00892007,92.9959219 L98.9910799,92.9959219 L98.9910799,85.6932712 L1.00892007,85.6932712 L1.00892007,92.9959219 Z M21.577033,76.15351 C24.1332525,63.0104865 30.4581277,61.9734926 41.9430732,60.0888436 C42.0080252,60.0786484 42.0700904,60.0509758 42.1393724,60.0058258 L42.4294911,59.8121177 L42.9101354,60.077192 C43.1872636,60.2272065 43.4615052,60.380134 43.7429635,60.5126711 L44.0734967,60.669968 L44.0734967,62.2851733 C44.0734967,63.5493737 44.8096187,64.8339645 46.2616553,66.1039907 C47.338414,67.0448587 49.6218354,68.4925721 50.4806443,68.6804544 L50.4994082,68.6848238 L50.525389,68.6804544 C51.3798678,68.4925721 53.7181375,67.0026216 54.774689,66.0690358 C56.2021882,64.8092048 56.9238763,63.5362657 56.9238763,62.2851733 L56.9238763,60.7398777 L57.2572963,60.5840373 C57.4391617,60.4981066 57.6181404,60.4019808 57.797119,60.3058549 L58.065587,60.1645791 L58.3513755,60.0888436 L58.5852025,60.1689484 C69.7150775,62.1147684 76.6043128,64.1581707 78.4547213,76.1170987 L79.4910655,84.6722983 L20.5450189,84.6722983 L21.577033,76.15351 Z M55.9135129,61.1593359 L55.9135129,62.2851733 C55.9135129,64.9635887 50.9612886,67.4133411 50.7491123,67.5152927 L50.4979648,67.6390912 L50.2468174,67.5152927 C50.0360844,67.4118846 45.0824168,64.9577629 45.0824168,62.2851733 L45.0824168,61.1010778 L45.8459629,61.3603262 C47.5159493,61.9268861 49.1195404,62.2167201 50.6091048,62.2240023 C52.0221703,62.2181765 53.5521492,61.9443635 55.1557403,61.4113021 L55.9135129,61.1593359 Z M31.924598,41.5773376 L31.4035392,26.0326245 L34.1358506,20.04515 L34.574637,20.122342 C35.0076499,20.1995339 35.4435496,20.2388581 35.8707889,20.2388581 C36.1666811,20.2388581 36.4640166,20.2053597 36.7627955,20.1558404 L37.0817817,20.0844742 C37.2751941,20.0422371 37.4686066,19.9970871 37.6634624,19.9344597 C37.7875927,19.8965919 37.907393,19.8528983 38.0502872,19.7975532 C38.2206056,19.7349257 38.390924,19.6693854 38.5612425,19.5921934 C38.6998066,19.5310224 38.835484,19.468395 38.9726047,19.3999417 C39.1313761,19.3183804 39.2887041,19.2339062 39.5254179,19.0999126 C39.6365578,19.0358287 39.7476978,18.9732013 39.855951,18.9062045 C40.0046188,18.814448 40.1475131,18.7154093 40.323605,18.5945237 L40.6945527,18.3396446 C40.9543604,18.1488494 41.2069513,17.9507719 41.4479952,17.7468686 L42.1105049,17.1570055 L42.5189804,16.7695893 L42.9130221,17.1730265 C43.0155019,17.2764346 43.1208683,17.371104 43.2940735,17.5298573 L43.4427413,17.6682202 C46.2616553,20.1252549 50.0245374,20.4587824 50.1847522,20.470434 L50.7577726,20.5199534 C51.2109928,20.5592776 51.710401,20.6000583 52.2329032,20.6350131 L52.57354,20.6597728 L52.6558125,20.6932712 C52.7121042,20.715118 52.7741693,20.728226 52.8549984,20.728226 C52.8593285,20.728226 53.3255391,20.6932712 53.3255391,20.6932712 L54.786236,20.7005535 L55.2899743,20.6772502 C55.6334979,20.6626857 55.9770214,20.6437518 56.320545,20.6146228 L56.9397535,20.5519953 C57.2904939,20.5112147 57.6484513,20.4616953 58.0064086,20.4078066 L58.6285038,20.3102243 L58.7858318,20.2752694 C60.2407552,20.0043694 61.7952715,19.5659773 63.4479374,18.9615497 L65.8020842,18.3003204 L69.6775497,26.5278182 L69.1738114,41.5933586 C69.1738114,50.2039033 60.3778759,61.1637052 50.4878612,61.2044859 C40.6642418,61.1622488 31.9231546,50.183513 31.924598,41.5773376 L31.924598,41.5773376 Z M30.8117549,22.2385669 C30.6602003,20.4777163 30.3094599,16.3268278 30.3094599,15.7937664 L30.3051298,15.1951646 C30.2805924,12.2866298 30.2488381,8.66734634 35.4955111,6.34430527 C37.2578736,5.56364696 38.6998066,5.18351296 39.9021391,5.18351296 C40.2398891,5.18351296 40.5429982,5.21409846 40.8100228,5.26507428 L41.5143905,5.39761142 L41.2372622,6.06321002 C41.0510667,6.50888436 40.9125025,7.00699097 40.7782685,7.70900087 C40.5776392,8.51004952 40.457839,9.30964171 40.4217546,10.0815613 C40.3250484,12.1657442 40.7436275,14.0023303 41.6616148,15.5432566 L41.8492538,15.9874745 L41.5230507,16.3093504 L41.2430357,16.5715118 C41.0828209,16.7186135 40.9226062,16.8642587 40.7623914,16.9982523 L40.504027,17.2079814 C40.3279351,17.3478008 40.1518432,17.4832508 39.9771947,17.6085057 L39.7375942,17.7759977 C39.552842,17.902709 39.3680898,18.0192252 39.1414797,18.1561317 L38.9523974,18.2653656 C38.7633151,18.3716866 38.5771196,18.4678124 38.3404059,18.5814157 L38.1614272,18.6658899 C37.9737883,18.7489077 37.7890361,18.8188174 37.5335585,18.9091174 L37.3776739,18.9630061 C37.1871482,19.0241771 37.0009526,19.0664142 36.7642389,19.11739 L36.611241,19.1523449 C36.35432,19.194582 36.1075027,19.2193417 35.8707889,19.2193417 C35.5864438,19.2193417 35.3006553,19.1931255 35.0163102,19.1552578 C34.9095003,19.1406933 34.8026905,19.1203029 34.5688635,19.0751529 C34.3653474,19.0358287 34.160388,18.9950481 33.8183078,18.9149432 C33.6191218,18.9149432 33.4372564,19.0329158 33.354984,19.2149723 L31.0022805,24.4567434 L30.8117549,22.2385669 Z M41.7799717,7.86047189 C42.8249762,3.82027381 45.9311221,1.07340518 49.509252,1.02388581 L50.2843451,1.01806001 C62.4274703,1.01806001 69.1463872,5.17186135 71.431252,14.0926304 L71.4630063,14.2178852 L71.4399122,14.3445966 C71.2363962,15.4427614 70.9477209,17.796388 70.3400595,23.0002913 L70.1033457,25.0262161 L69.2445368,23.1794349 L66.4443867,17.2181765 L66.4169626,17.1307894 C66.3274732,16.9662103 66.1571548,16.8642587 65.9709593,16.8642587 C65.8987905,16.8642587 65.828065,16.8802796 65.7616697,16.9123216 C64.9533789,17.2880862 64.1335412,17.6332654 63.2761756,17.9536848 L58.5491181,19.2834256 C58.3023007,19.330032 58.0569268,19.3737256 57.7437141,19.4217885 C57.4362749,19.4669385 57.1331659,19.5077192 56.7939725,19.545587 C56.3335354,19.5936499 55.894749,19.6256918 55.4703964,19.6475386 C55.2769839,19.6577338 55.0821281,19.6679289 54.8887157,19.6737547 L54.2579602,19.6839499 L53.7065905,19.6781241 C53.3385295,19.6722983 52.9834589,19.6591902 52.6442655,19.6402563 C51.990416,19.6023886 51.3813112,19.5514128 50.8212811,19.5018934 L50.233827,19.452374 C50.0476314,19.4334401 45.6438902,18.9863094 43.1381889,15.8884358 L43.0400393,15.7122051 L43.008285,15.6335567 C42.0643168,14.2761433 41.543258,12.5080105 41.543258,10.6568599 C41.543258,9.6169531 41.6183136,8.71686572 41.7799717,7.86047189 L41.7799717,7.86047189 Z M10.7488236,58.2435188 C10.7488236,55.4660647 12.9903871,53.2071075 15.7429058,53.2071075 C18.4954245,53.2071075 20.736988,55.4660647 20.736988,58.2435188 C20.736988,61.0238858 18.4954245,63.2857559 15.7429058,63.2857559 C15.1006033,63.2857559 14.4669611,63.1575881 13.8607431,62.9070784 L13.1924598,62.6318089 L14.6675904,60.5039324 C14.7455328,60.3917856 14.7744003,60.2548791 14.7513063,60.1208855 C14.7282122,59.9868919 14.6531567,59.8703758 14.5405733,59.7917274 C14.4568575,59.7305564 14.3558211,59.6985144 14.2533414,59.6985144 C14.0902399,59.6985144 13.9357986,59.7800757 13.8405358,59.9169822 L12.3812823,62.0215555 L11.8977512,61.427323 C11.1471955,60.502476 10.7488236,59.4013982 10.7488236,58.2435188 L10.7488236,58.2435188 Z M99.4962617,84.6722983 L80.5072024,84.6722983 L79.4549811,75.9758229 C77.7200427,64.7524031 71.8700384,61.6443344 60.9739904,59.5688902 L59.641754,59.3154675 L60.7459369,58.5217011 C66.5670737,54.3402272 70.1827314,47.8662977 70.1841748,41.610836 L70.6619324,27.3361491 L70.7846194,27.1846781 C70.8524581,27.0987475 70.8914292,27.0128168 70.9015329,26.929799 C71.4673364,22.0550539 72.3117116,14.8791145 72.428625,14.1523449 C72.4459456,14.0678707 72.4445022,13.9848529 72.4257383,13.9032916 C70.0600445,4.5470434 62.7810975,0 50.1732052,0 L49.497705,0.00436935625 C46.6658006,0.0436935625 44.0446292,1.5744247 42.3053607,4.20769007 L42.0628735,4.57471599 L41.6471811,4.43926595 C41.0885944,4.25720944 40.5083571,4.16836586 39.8761583,4.16836586 C38.5424786,4.16836586 36.9764152,4.57471599 35.0899223,5.41071949 C29.2312578,8.00466065 29.2673422,12.1657442 29.2962097,15.2053597 L29.3005398,15.789397 C29.3005398,16.095252 29.4073497,17.8459074 30.133368,26.1272939 L30.1636789,26.475386 C30.1752259,26.6020973 30.2372911,26.6996796 30.2878092,26.7593941 L30.4205999,26.913778 L30.9142346,41.5933586 C30.9142346,47.7483251 34.4548368,54.1683659 40.1561733,58.3469269 L41.2733466,59.1639965 L39.9107993,59.3926595 C29.2788892,61.1753568 23.1387662,62.825517 20.5811033,75.9933003 L19.528882,84.6722983 L5.13553304,84.6722983 L5.13553304,74.2441014 L12.64109,63.4241188 L13.08565,63.6484125 C13.9516758,64.0838916 14.8451257,64.3052724 15.7429058,64.3052724 C19.0540111,64.3052724 21.745908,61.5860763 21.745908,58.2435188 C21.745908,54.9038742 19.0540111,52.187591 15.7429058,52.187591 C12.4318005,52.187591 9.73990358,54.9038742 9.73990358,58.2435188 C9.73990358,59.8427032 10.3562253,61.3515875 11.474842,62.4963589 L11.812592,62.841538 L4.21321555,73.7955141 C4.1554805,73.8770754 4.1251696,73.9775706 4.1251696,74.0838916 L4.1251696,84.6722983 L0.505181721,84.6722983 C0.22516671,84.6722983 0,84.9024177 0,85.183513 L0,93.5056802 C0,93.7867754 0.22516671,94.0154384 0.505181721,94.0154384 L10.8224358,94.0154384 L10.8224358,104.490242 C10.8224358,104.771337 11.0476026,105 11.3276176,105 C11.6061892,105 11.8313559,104.771337 11.8313559,104.490242 L11.8313559,94.0154384 L86.8162005,94.0154384 L86.8162005,104.490242 C86.8162005,104.771337 87.0428105,105 87.3213822,105 C87.5999538,105 87.8265639,104.771337 87.8265639,104.490242 L87.8265639,94.0154384 L99.4962617,94.0154384 C99.7748333,94.0154384 100,93.7867754 100,93.5056802 L100,85.183513 C100,84.9024177 99.7748333,84.6722983 99.4962617,84.6722983 L99.4962617,84.6722983 Z" id="Fill-3" fill="#db89a7" mask="url(#mask-2)"></path>
            </g>
        </g>
    </g>
</svg>