<?xml version="1.0" encoding="UTF-8"?>
<svg width="200px" height="200px" viewBox="0 0 200 200" version="1.1" xmlns="http://www.w3.org/2000/svg" xmlns:xlink="http://www.w3.org/1999/xlink">
    <!-- Generator: Sketch 46 (44423) - http://www.bohemiancoding.com/sketch -->
    <title>Group 2</title>
    <desc>Created with Sketch.</desc>
    <defs>
        <polygon id="path-1" points="33.5509918 0.447943714 0.163685714 0.447943714 0.163685714 136.910626 33.5509918 136.910626 33.5509918 0.447943714"></polygon>
        <polygon id="path-3" points="1.93607531e-20 0.382808759 1.93607531e-20 95.9392467 44.7119286 95.9392467 44.7119286 0.382808759"></polygon>
    </defs>
    <g id="Page-1" stroke="none" stroke-width="1" fill="none" fill-rule="evenodd">
        <g id="Group-2">
            <g id="Page-1" transform="translate(52.000000, 32.000000)">
                <g id="Group-3" transform="translate(52.000000, 0.000000)">
                    <mask id="mask-2" fill="white">
                        <use xlink:href="#path-1"></use>
                    </mask>
                    <g id="Clip-2"></g>
                    <path d="M11.6674816,45.0835689 L11.6841347,45.0175709 L11.6841347,36.8991177 L22.9089918,36.8991177 L22.9291143,45.7084434 C23.0685837,46.1992156 23.2607878,46.665414 23.502951,47.095103 C24.2294408,48.3932972 25.3687878,49.3959048 26.8890735,50.078352 C27.6641347,50.4813609 28.3045837,50.9089435 28.846502,51.375142 C29.0213592,51.5218822 29.1927469,51.6819624 29.3599714,51.8518721 C30.2592367,52.7632058 30.9211959,53.6597954 31.3833184,54.5942986 C31.4339714,54.6975082 31.4839306,54.7979094 31.5789918,55.0310086 C31.7795224,55.4571871 31.9384204,55.8840676 32.0584612,56.3256924 C32.3589102,57.2953009 32.5101755,58.3470559 32.5101755,59.5076374 L32.5101755,76.7941925 L9.11817551,76.7941925 L9.11817551,119.18385 L32.5101755,119.18385 L32.5101755,134.241921 C32.5101755,135.132893 31.7927061,135.857467 30.9114816,135.857467 L2.80111429,135.857467 C1.92058367,135.857467 1.20450204,135.132893 1.20450204,134.241921 L1.20450204,59.5076374 C1.20450204,58.2213789 1.39531837,57.0306069 1.78666531,55.867217 C1.93376735,55.4206775 2.15580816,54.9523728 2.33135918,54.5942986 C2.49650204,54.2615003 2.70327755,53.9160641 2.98429796,53.5060341 C3.3694,52.9422429 3.82527755,52.3889833 4.33944082,51.8631058 C4.44629796,51.7577898 4.54621633,51.6679203 4.64821633,51.5766465 L4.83001224,51.4074389 C5.23801224,51.05779 5.64254286,50.7685223 6.07205306,50.508743 C6.25107347,50.3971081 6.44397143,50.290388 6.64450204,50.1857742 L6.76454286,50.131712 C9.44568571,49.1410403 11.0492367,47.4896866 11.6674816,45.0835689 L11.6674816,45.0835689 Z M11.6848286,35.8459585 L22.9089918,35.8459585 L22.9089918,22.5508767 L11.6848286,22.5508767 L11.6848286,35.8459585 Z M11.6841347,21.4991217 L22.908298,21.4991217 L22.908298,10.2822741 L11.6841347,10.2822741 L11.6841347,21.4991217 Z M11.6841347,7.99902498 L11.6841347,1.50103271 L22.9089918,1.50103271 L22.9089918,8.03834293 L23.010298,9.18558435 L21.8813592,9.22911493 L11.5738082,9.22911493 L11.6841347,7.99902498 Z M10.1589918,118.130691 L32.5101755,118.130691 L32.5101755,77.8473517 L10.1589918,77.8473517 L10.1589918,118.130691 Z M6.35931837,49.1606992 L6.21429796,49.2238888 C6.01168571,49.3292047 5.76397143,49.4654133 5.53082857,49.6072387 C5.05482857,49.8958044 4.60727755,50.2180711 4.19719592,50.5670178 C4.16111429,50.5979105 4.12642041,50.6316116 4.06119592,50.694099 L3.99458367,50.7558844 C3.86552245,50.8703277 3.73854286,50.984771 3.61433878,51.1111501 C3.05021633,51.6840687 2.54923673,52.2892842 2.12874694,52.9064355 C1.8178898,53.359996 1.58682857,53.7468565 1.40017551,54.1245896 C1.19548163,54.5402365 0.964420408,55.033115 0.800665306,55.5309082 C0.3774,56.786274 0.163685714,58.1216798 0.163685714,59.5076374 L0.163685714,134.241921 C0.163685714,135.713535 1.34674694,136.910626 2.80111429,136.910626 L30.9114816,136.910626 C32.3672367,136.910626 33.5509918,135.713535 33.5509918,134.241921 L33.5509918,59.5076374 C33.5509918,58.2564842 33.3851551,57.0874775 33.0590327,56.0343183 L33.0472367,55.9957025 C32.926502,55.5456524 32.7516449,55.0738371 32.5414,54.6329145 L32.5122571,54.563406 C32.444951,54.3927942 32.3804204,54.2572877 32.3131143,54.1210791 C31.8003388,53.0833662 31.0752367,52.0969071 30.0975633,51.1083417 C29.9088286,50.9166667 29.7152367,50.7383317 29.5147061,50.5677199 C28.9040939,50.0432467 28.194951,49.5742398 27.3442571,49.132615 C26.0272776,48.5400374 25.0225429,47.6715321 24.4084612,46.5755445 C24.2502571,46.2961062 24.1135633,45.9871795 24.0046245,45.6621044 L23.9498082,45.4978115 L23.9498082,9.22911493 L23.8526653,9.22911493 L23.9518898,7.98077022 L23.9498082,0.447873503 L10.6433184,0.447873503 L10.6537265,8.08187351 L10.7550327,9.22911493 L10.6433184,9.22911493 L10.6433184,44.8897876 L10.600298,45.0372299 C10.0299306,46.9806597 8.64217551,48.3294056 6.35931837,49.1606992 L6.35931837,49.1606992 Z" id="Fill-1" fill="#c75d76" mask="url(#mask-2)"></path>
                </g>
                <path d="M78.8140438,69.5037163 C78.8140438,69.7761076 79.0640693,70 79.3721366,70 C79.6802038,70 79.9302294,69.7761076 79.9302294,69.5017232 L79.9369265,63.0699664 C80.0247331,62.3644064 80.3409857,58.718349 77.9374659,56.2515467 C76.482704,54.7573807 74.3359069,54 71.5580928,54 C71.2500256,54 71,54.2238924 71,54.4982768 C71,54.7726612 71.2500256,54.9965536 71.5580928,54.9965536 C73.9906334,54.9965536 75.8494546,55.6343479 77.0832119,56.8926629 C79.2195912,59.0717934 78.9003621,62.394303 78.8304145,62.9444006 L78.8140438,69.5037163 Z" id="Fill-4" fill="#c75d76"></path>
                <g id="Group-8" transform="translate(0.000000, 40.000000)">
                    <mask id="mask-4" fill="white">
                        <use xlink:href="#path-3"></use>
                    </mask>
                    <g id="Clip-7"></g>
                    <path d="M23.8033571,52.4000934 L20.9090714,52.4000934 C10.1055,52.4000934 1.40335714,42.5800642 1.09907143,30.0454073 L1.08835714,29.594838 L3.23764286,27.4863416 C4.97907143,25.7765606 7.15621429,24.5488818 9.53407143,23.9378453 C14.2990714,22.7185752 19.4140714,24.0772905 22.8890714,27.4863416 C25.7097857,30.2542248 29.4662143,31.7783124 33.4662143,31.7783124 L33.4719286,31.7783124 C36.5047857,31.7783124 39.4305,30.8876847 41.9333571,29.2031299 L43.6647857,28.0364146 L43.6105,30.0958599 C43.2833571,42.6031883 34.5833571,52.4000934 23.8033571,52.4000934 L23.8033571,52.4000934 Z M25.8019286,55.2205314 C25.3026429,55.6851153 24.8883571,56.1272759 24.5333571,56.570838 L24.5333571,56.5715387 C24.0812143,57.1370277 23.6683571,57.7669839 23.3047857,58.4452905 L22.3569286,60.2146336 L21.4083571,58.4459912 C21.0426429,57.7648818 20.6297857,57.1349255 20.1797857,56.570838 C19.8240714,56.1265752 19.4083571,55.6844146 18.9097857,55.2205314 L16.7576429,53.2150423 L19.7190714,53.4091445 C20.1126429,53.4357723 20.5097857,53.4511883 20.9090714,53.4511883 L23.8033571,53.4511883 C24.2033571,53.4511883 24.5997857,53.4350715 24.9940714,53.4091445 L27.9483571,53.2213489 L25.8019286,55.2205314 Z M42.9869286,27.114254 L41.8647857,27.9509255 C39.3940714,29.7924438 36.4319286,30.7139036 33.4719286,30.7139036 C30.5105,30.7139036 27.5497857,29.7931445 25.0790714,27.9509255 L23.9562143,27.114254 L25.0790714,26.2775825 C30.0219286,22.5952467 36.9240714,22.5952467 41.8640714,26.2775825 L42.9869286,27.114254 Z M1.42835714,25.1325898 C1.61264286,24.0030131 1.83764286,22.9848526 2.11692857,22.0227504 L7.52192857,1.43390365 L37.1912143,1.43390365 L42.6097857,22.0746044 C42.7462143,22.5433927 42.8662143,23.0437139 42.9805,23.5475387 L43.5333571,25.9888818 L41.3683571,24.6680058 C35.8990714,21.3325314 28.8976429,21.7887066 23.9462143,25.8059912 L23.2647857,26.3581664 L22.5826429,25.8073927 C18.8755,22.812473 13.8955,21.7333489 9.26335714,22.9210861 C7.03264286,23.4935825 4.93407143,24.5895241 3.19335714,26.0876847 L0.959785714,28.0118891 L1.42835714,25.1325898 Z M43.6433571,21.7985168 L38.0219286,0.382808759 L6.69121429,0.382808759 L1.08692857,21.7340496 C0.363357143,24.2251445 -0.000214285714,26.792619 -0.000214285714,29.392327 C-0.000214285714,38.136035 4.1505,46.2084438 10.8326429,50.4597723 L11.0426429,50.6349547 C11.0662143,50.6615825 11.0926429,50.686108 11.1226429,50.7078307 L17.1105,55.0908964 C17.9476429,55.704035 18.6969286,56.420181 19.3369286,57.2211153 C20.9219286,59.204181 21.7955,61.6735533 21.7955,64.1744584 L21.7955,94.8881518 L10.5533571,94.8881518 C10.2583571,94.8881518 10.0176429,95.1242978 10.0176429,95.4136993 C10.0176429,95.7031007 10.2583571,95.9392467 10.5533571,95.9392467 L34.1590714,95.9392467 C34.4547857,95.9392467 34.6947857,95.7031007 34.6947857,95.4136993 C34.6947857,95.1242978 34.4547857,94.8881518 34.1590714,94.8881518 L22.9162143,94.8881518 L22.9162143,64.1744584 C22.9162143,61.6735533 23.7897857,59.2048818 25.3762143,57.2211153 C26.0155,56.4208818 26.7640714,55.7047358 27.5997857,55.0915971 L33.5912143,50.7071299 C33.6169286,50.6882102 33.6405,50.6664876 33.6619286,50.6426628 L33.7590714,50.5368526 L33.8805,50.4583708 C40.5612143,46.2077431 44.7119286,38.136035 44.7119286,29.3930277 C44.7119286,26.7940204 44.3526429,24.2391591 43.6433571,21.7985168 L43.6433571,21.7985168 Z" id="Fill-6" fill="#c75d76" mask="url(#mask-4)"></path>
                </g>
                <path d="M7.41965333,74.0114245 C7.13636748,74.070689 6.95106019,74.3548733 7.01140931,74.6447697 C8.63941549,82.5076758 14.5841585,88 21.4675078,88 C21.7614435,88 22,87.7593717 22,87.464477 C22,87.1695823 21.7614435,86.9289539 21.4675078,86.9289539 C15.093931,86.9289539 9.57802175,81.7879329 8.05367406,74.4262763 C8.00184482,74.1749375 7.7774881,74 7.52828174,74 C7.49278226,74 7.4558628,74.0035702 7.41965333,74.0114245" id="Fill-9" fill="#c75d76"></path>
                <path d="M11.9305809,46.2518963 C11.8915401,46.1839997 11.8002244,46.0638228 11.6275186,46.0183321 C11.5805373,46.0054317 11.5362029,46 11.4958387,46 C11.3853335,46 11.3019583,46.03938 11.254977,46.0672176 C11.1874828,46.1072766 11.0683753,46.2023318 11.0227175,46.3829367 L8.01591601,58.3632879 C7.97158157,58.5411769 8.02981188,58.6810439 8.06951437,58.7482615 C8.10855514,58.816837 8.19920915,58.937014 8.37323837,58.9825047 C8.63395134,59.0571909 8.90988361,58.8847336 8.97737783,58.6179001 L8.97737783,58.6172211 L11.9841793,46.6368699 C12.0285137,46.4603388 11.9696217,46.3197929 11.9305809,46.2518963" id="Fill-11" fill="#c75d76"></path>
            </g>
        </g>
    </g>
</svg>