<svg width="45" height="31" viewBox="0 0 45 31" xmlns="http://www.w3.org/2000/svg" xmlns:xlink="http://www.w3.org/1999/xlink"><title>Page 1</title><defs><path id="a" d="M44.75.76H0V19.4h44.75z"/><path id="c" d="M0 31.24h44.75V1H0z"/></defs><g transform="translate(0 -1)" fill="none" fill-rule="evenodd"><g transform="translate(0 .24)"><mask id="b" fill="#fff"><use xlink:href="#a"/></mask><path d="M3.757 10.08l18.618 7.246 18.618-7.247L22.375 2.83 3.757 10.08zm18.618 9.32c-.123 0-.246-.024-.363-.07L.637 11.01C.253 10.86 0 10.49 0 10.08c0-.413.253-.783.637-.933L22.012.827c.234-.09.493-.09.726 0l21.375 8.32c.384.15.637.52.637.932 0 .41-.253.78-.637.93l-21.375 8.32c-.117.046-.24.07-.363.07z" fill="#000" mask="url(#b)"/></g><path d="M22.375 31.24c-12.44 0-16.446-3.435-16.61-3.58l-.336-.3V12.507h2v13.89c1.135.72 5.32 2.845 14.945 2.845 9.612 0 13.807-2.126 14.946-2.843v-13.89h2V27.36l-.334.3c-.165.145-4.17 3.58-16.61 3.58" fill="#000"/><mask id="d" fill="#fff"><use xlink:href="#c"/></mask><path fill="#000" mask="url(#d)" d="M42.75 26.912h2V10.32h-2"/></g></svg>