<?xml version="1.0" encoding="UTF-8"?>
<svg width="200px" height="200px" viewBox="0 0 200 200" version="1.1" xmlns="http://www.w3.org/2000/svg" xmlns:xlink="http://www.w3.org/1999/xlink">
    <!-- Generator: Sketch 46 (44423) - http://www.bohemiancoding.com/sketch -->
    <title>Group 9</title>
    <desc>Created with Sketch.</desc>
    <defs></defs>
    <g id="Page-1" stroke="none" stroke-width="1" fill="none" fill-rule="evenodd">
        <g id="Group-9">
            <g id="Page-1" transform="translate(30.000000, 10.000000)">
                <path d="M48.2434684,65.9980272 L48.2759848,66 C48.4149183,66 48.5325684,65.8836037 48.5497134,65.7297238 C48.5727704,65.523893 48.8275804,63.7207365 50.7383597,63.6128891 C50.8116693,63.6089434 50.8790669,63.5727751 50.9287282,63.5129329 C50.9777984,63.4517755 51.0032202,63.3735204 50.999673,63.2919772 C50.9955346,63.2097764 50.9630182,63.1348093 50.9068536,63.0789128 C50.8560098,63.0269619 50.7927507,63 50.7271268,63 L50.7117554,63 C48.7672773,63.1098203 48.0885723,64.7886892 48.001665,65.6606751 C47.9851112,65.8270495 48.0938932,65.978299 48.2434684,65.9980272" id="Fill-1" fill="#c75d76"></path>
                <path d="M48.2434684,65.9980272 L48.2759848,66 C48.4149183,66 48.5325684,65.8836037 48.5497134,65.7297238 C48.5727704,65.523893 48.8275804,63.7207365 50.7383597,63.6128891 C50.8116693,63.6089434 50.8790669,63.5727751 50.9287282,63.5129329 C50.9777984,63.4517755 51.0032202,63.3735204 50.999673,63.2919772 C50.9955346,63.2097764 50.9630182,63.1348093 50.9068536,63.0789128 C50.8560098,63.0269619 50.7927507,63 50.7271268,63 L50.7117554,63 C48.7672773,63.1098203 48.0885723,64.7886892 48.001665,65.6606751 C47.9851112,65.8270495 48.0938932,65.978299 48.2434684,65.9980272 Z" id="Stroke-3" stroke="#c75d76" stroke-width="0.25"></path>
                <path d="M58.2434659,65.9980272 L58.2759819,66 C58.414914,66 58.5325629,65.8836037 58.5497077,65.7297238 C58.5727645,65.523893 58.8275719,63.7207365 60.7383316,63.6128891 C60.8902701,63.6043402 61.0073278,63.4603244 60.9996422,63.2913196 C60.9955038,63.207146 60.963579,63.1308637 60.9091885,63.0769399 C60.8601189,63.0263043 60.7950868,63 60.7265076,63 L60.7105452,63 C58.7672695,63.1098203 58.0885714,64.7886892 58.0016649,65.6606751 C57.9851113,65.8270495 58.0938922,65.978299 58.2434659,65.9980272" id="Fill-5" fill="#c75d76"></path>
                <path d="M58.2434659,65.9980272 L58.2759819,66 C58.414914,66 58.5325629,65.8836037 58.5497077,65.7297238 C58.5727645,65.523893 58.8275719,63.7207365 60.7383316,63.6128891 C60.8902701,63.6043402 61.0073278,63.4603244 60.9996422,63.2913196 C60.9955038,63.207146 60.963579,63.1308637 60.9091885,63.0769399 C60.8601189,63.0263043 60.7950868,63 60.7265076,63 L60.7105452,63 C58.7672695,63.1098203 58.0885714,64.7886892 58.0016649,65.6606751 C57.9851113,65.8270495 58.0938922,65.978299 58.2434659,65.9980272 Z" id="Stroke-7" stroke="#c75d76" stroke-width="0.25"></path>
                <path d="M50.7295019,82 C50.7241812,82 50.7182694,82.0006578 50.7129487,82.0006578 L50.7099928,82.0013155 C48.7673617,82.1105021 48.0886824,83.7903968 48.0017783,84.662574 C47.9846339,84.8289849 48.0934118,84.9796097 48.2435726,85 L48.2471197,85 C48.4161984,85 48.5326616,84.8835782 48.549806,84.7303223 C48.5728622,84.5251041 48.8276625,82.7228678 50.7383696,82.614339 C50.8116765,82.6097347 50.8790715,82.5735584 50.9287309,82.5130454 C50.9777992,82.4518746 51.0032201,82.3736023 50.999673,82.2920412 C50.9955347,82.2091647 50.9624284,82.1328656 50.9056747,82.0769568 C50.8554241,82.0269678 50.7933498,82 50.7295019,82" id="Fill-9" fill="#c75d76"></path>
                <path d="M50.7295019,82 C50.7241812,82 50.7182694,82.0006578 50.7129487,82.0006578 L50.7099928,82.0013155 C48.7673617,82.1105021 48.0886824,83.7903968 48.0017783,84.662574 C47.9846339,84.8289849 48.0934118,84.9796097 48.2435726,85 L48.2471197,85 C48.4161984,85 48.5326616,84.8835782 48.549806,84.7303223 C48.5728622,84.5251041 48.8276625,82.7228678 50.7383696,82.614339 C50.8116765,82.6097347 50.8790715,82.5735584 50.9287309,82.5130454 C50.9777992,82.4518746 51.0032201,82.3736023 50.999673,82.2920412 C50.9955347,82.2091647 50.9624284,82.1328656 50.9056747,82.0769568 C50.8554241,82.0269678 50.7933498,82 50.7295019,82 Z" id="Stroke-11" stroke="#c75d76" stroke-width="0.25"></path>
                <path d="M60.7265083,82 L60.7105459,82 L60.7099547,82.0006579 C58.7672751,82.1098684 58.08917,83.7901316 58.0016725,84.6625 C57.985119,84.8289474 58.0933084,84.9796053 58.2434729,85 L58.2470201,85 C58.4166942,85 58.5331603,84.8835526 58.5497139,84.7302632 C58.5727707,84.525 58.8281686,82.7223684 60.7383323,82.6131579 C60.8902704,82.6046053 61.0073278,82.4598684 60.9996422,82.2907895 C60.996095,82.2065789 60.9635791,82.1302632 60.90978,82.0763158 C60.8601192,82.0263158 60.7956786,82 60.7265083,82" id="Fill-13" fill="#c75d76"></path>
                <path d="M60.7265083,82 L60.7105459,82 L60.7099547,82.0006579 C58.7672751,82.1098684 58.08917,83.7901316 58.0016725,84.6625 C57.985119,84.8289474 58.0933084,84.9796053 58.2434729,85 L58.2470201,85 C58.4166942,85 58.5331603,84.8835526 58.5497139,84.7302632 C58.5727707,84.525 58.8281686,82.7223684 60.7383323,82.6131579 C60.8902704,82.6046053 61.0073278,82.4598684 60.9996422,82.2907895 C60.996095,82.2065789 60.9635791,82.1302632 60.90978,82.0763158 C60.8601192,82.0263158 60.7956786,82 60.7265083,82 Z" id="Stroke-15" stroke="#c75d76" stroke-width="0.25"></path>
                <path d="M55.7281567,91 L55.7127829,91 L55.7104177,91.000658 C53.7668149,91.1098864 53.0891852,92.789767 53.0016728,93.6622785 C52.9851164,93.8287531 53.0933243,93.9794357 53.2435145,93.9998338 C53.4073045,94.0050978 53.5326601,93.8846833 53.5498078,93.7293947 C53.5728685,93.5247559 53.8283101,91.7218288 55.7388001,91.6126004 C55.8121213,91.6086524 55.8795295,91.5724623 55.9291987,91.511926 C55.9782765,91.4513898 56.0037024,91.3724295 55.9995633,91.2908371 C55.9960155,91.2079288 55.9634941,91.1322585 55.9079119,91.0769863 C55.8570601,91.0269781 55.793791,91 55.7281567,91" id="Fill-17" fill="#c75d76"></path>
                <path d="M55.7281567,91 L55.7127829,91 L55.7104177,91.000658 C53.7668149,91.1098864 53.0891852,92.789767 53.0016728,93.6622785 C52.9851164,93.8287531 53.0933243,93.9794357 53.2435145,93.9998338 C53.4073045,94.0050978 53.5326601,93.8846833 53.5498078,93.7293947 C53.5728685,93.5247559 53.8283101,91.7218288 55.7388001,91.6126004 C55.8121213,91.6086524 55.8795295,91.5724623 55.9291987,91.511926 C55.9782765,91.4513898 56.0037024,91.3724295 55.9995633,91.2908371 C55.9960155,91.2079288 55.9634941,91.1322585 55.9079119,91.0769863 C55.8570601,91.0269781 55.793791,91 55.7281567,91 Z" id="Stroke-19" stroke="#c75d76" stroke-width="0.25"></path>
                <path d="M43.2445007,76 L43.2492296,76 C43.4171049,76 43.5329626,75.8835782 43.5501048,75.73098 C43.5731581,75.5251041 43.8308823,73.7215523 45.7378047,73.6136812 C45.8116935,73.6097347 45.8796712,73.5742162 45.9287334,73.5137031 C45.9783867,73.4525323 46.0032133,73.37426 45.9996666,73.2920412 C45.9955289,73.2091647 45.9630178,73.1335234 45.9068623,73.0776146 C45.8566179,73.0269678 45.7939602,73 45.7283469,73 C45.7230269,73 45.7177069,73.0006578 45.7123869,73.0006578 L45.7100225,73.0006578 C43.7670423,73.1111598 43.0890386,74.7903968 43.0015543,75.662574 C42.9855943,75.8283271 43.0943586,75.9802675 43.2445007,76" id="Fill-21" fill="#c75d76"></path>
                <path d="M43.2445007,76 L43.2492296,76 C43.4171049,76 43.5329626,75.8835782 43.5501048,75.73098 C43.5731581,75.5251041 43.8308823,73.7215523 45.7378047,73.6136812 C45.8116935,73.6097347 45.8796712,73.5742162 45.9287334,73.5137031 C45.9783867,73.4525323 46.0032133,73.37426 45.9996666,73.2920412 C45.9955289,73.2091647 45.9630178,73.1335234 45.9068623,73.0776146 C45.8566179,73.0269678 45.7939602,73 45.7283469,73 C45.7230269,73 45.7177069,73.0006578 45.7123869,73.0006578 L45.7100225,73.0006578 C43.7670423,73.1111598 43.0890386,74.7903968 43.0015543,75.662574 C42.9855943,75.8283271 43.0943586,75.9802675 43.2445007,76 Z" id="Stroke-23" stroke="#c75d76" stroke-width="0.25"></path>
                <path d="M55.7288418,73 C55.7235199,73 55.7181981,73.0006578 55.7128762,73.0006578 L55.7105109,73.0006578 C53.7662498,73.1111598 53.0885968,74.7903968 53.0016727,75.662574 C52.9851157,75.8289849 53.0933273,75.9796097 53.244114,76 L53.2488446,76 C53.4167795,76 53.5326783,75.8835782 53.5498266,75.7296645 C53.5728881,75.5251041 53.8277471,73.7215523 55.7383029,73.6136812 C55.812218,73.6097347 55.8796285,73.5735584 55.9287081,73.5130454 C55.978379,73.4518746 56.0032144,73.3736023 55.9996665,73.2920412 C55.9961186,73.2091647 55.9630047,73.1328656 55.9068292,73.0769568 C55.856567,73.0269678 55.7938871,73 55.7288418,73" id="Fill-25" fill="#c75d76"></path>
                <path d="M55.7288418,73 C55.7235199,73 55.7181981,73.0006578 55.7128762,73.0006578 L55.7105109,73.0006578 C53.7662498,73.1111598 53.0885968,74.7903968 53.0016727,75.662574 C52.9851157,75.8289849 53.0933273,75.9796097 53.244114,76 L53.2488446,76 C53.4167795,76 53.5326783,75.8835782 53.5498266,75.7296645 C53.5728881,75.5251041 53.8277471,73.7215523 55.7383029,73.6136812 C55.812218,73.6097347 55.8796285,73.5735584 55.9287081,73.5130454 C55.978379,73.4518746 56.0032144,73.3736023 55.9996665,73.2920412 C55.9961186,73.2091647 55.9630047,73.1328656 55.9068292,73.0769568 C55.856567,73.0269678 55.7938871,73 55.7288418,73 Z" id="Stroke-27" stroke="#c75d76" stroke-width="0.25"></path>
                <path d="M45.6077153,70.8895544 C47.8167758,70.8895544 49.7905247,72.3687886 50.4065065,74.4872703 L50.424106,74.5483366 L50.4097656,74.6107022 C50.3106871,75.0368672 50.260496,75.4610832 50.260496,75.8723064 C50.260496,76.2822303 50.3106871,76.7064464 50.4097656,77.1326114 L50.424106,77.194977 L50.4065065,77.2560433 C49.7905247,79.3751746 47.8174276,80.8544088 45.6077153,80.8544088 C42.8511155,80.8544088 40.6081598,78.6189916 40.6081598,75.8723064 C40.6081598,73.1243219 42.8511155,70.8895544 45.6077153,70.8895544 L45.6077153,70.8895544 Z M45.7387337,66.5752837 C45.7387337,63.8285985 47.9810376,61.5931814 50.7376374,61.5931814 C52.9466979,61.5931814 54.9204468,63.0730652 55.5370804,65.1915469 L55.5546799,65.2519635 L55.5403395,65.3143291 C55.4406092,65.7404941 55.3904181,66.1653598 55.3904181,66.5752837 C55.3904181,66.9865069 55.4406092,67.4113726 55.5403395,67.8375376 L55.5546799,67.8992536 L55.5370804,67.9603199 C54.9204468,70.0788015 52.9466979,71.5580357 50.7376374,71.5580357 C47.9810376,71.5580357 45.7387337,69.3232682 45.7387337,66.5752837 L45.7387337,66.5752837 Z M55.6537584,69.2596033 L55.8675595,68.8717672 L56.0820124,69.2596033 C56.1973867,69.4681383 56.3381826,69.6838194 56.5135255,69.9163911 L56.8374863,70.3464539 L56.2990726,70.3055265 C56.0142218,70.2834387 55.7228527,70.2834387 55.43735,70.3055265 L54.8989363,70.3464539 L55.2222453,69.9163911 C55.3969364,69.6838194 55.538384,69.4681383 55.6537584,69.2596033 L55.6537584,69.2596033 Z M56.1954312,65.3149788 L56.1810909,65.2526132 L56.1986904,65.1915469 C56.8146722,63.0730652 58.7884211,61.5931814 60.9974816,61.5931814 C63.7540814,61.5931814 65.9970371,63.8285985 65.9970371,66.5752837 C65.9970371,69.3232682 63.7540814,71.5580357 60.9974816,71.5580357 C58.7884211,71.5580357 56.815324,70.0788015 56.1986904,67.9596702 L56.1810909,67.8986039 L56.1954312,67.836888 C56.2951616,67.410723 56.3453527,66.9858573 56.3453527,66.5752837 C56.3453527,66.1660094 56.2951616,65.7411438 56.1954312,65.3149788 L56.1954312,65.3149788 Z M66.1547806,70.8895544 C68.9113804,70.8895544 71.1536843,73.1243219 71.1536843,75.8723064 C71.1536843,78.6189916 68.9113804,80.8544088 66.1547806,80.8544088 C63.9202987,80.8544088 61.9406832,79.3524371 61.3416491,77.2027727 L61.3253533,77.1443049 L61.33839,77.0845379 C61.4289947,76.6759132 61.4752748,76.2679382 61.4752748,75.8723064 C61.4752748,75.4747257 61.4289947,75.066101 61.33839,74.6594253 L61.3253533,74.6003079 L61.3416491,74.5411905 C61.9406832,72.3915261 63.9202987,70.8895544 66.1547806,70.8895544 L66.1547806,70.8895544 Z M68.0626944,50.8585015 L83.3846701,50.8585015 L83.3846701,75.301921 L71.7331635,75.301921 C71.5115404,73.1379644 70.0449172,71.341705 68.0626944,70.6232013 L68.0626944,50.8585015 Z M83.3846701,87.0890204 C83.3846701,87.7893342 82.8117093,88.3597196 82.1077301,88.3597196 L65.7747622,88.3597196 L65.4501496,88.5513639 C66.1717282,87.6113324 66.6051969,86.4400283 66.6051969,85.1680298 C66.6051969,83.9590466 66.2167047,82.8039836 65.4814376,81.8256232 L65.1561732,81.3936114 L65.6965423,81.4364878 C65.8477675,81.448831 66.0002963,81.4598749 66.1547806,81.4598749 C69.232082,81.4598749 71.7357708,78.9769442 71.7598886,75.9151828 L83.3846701,75.9151828 L83.3846701,87.0890204 Z M60.9974816,90.1501322 C60.1774762,90.1501322 59.3620337,89.9461447 58.6391514,89.5589582 L58.5172587,89.4881473 C57.3811146,88.8352574 56.5604575,87.7938817 56.1986904,86.5517667 L56.1810909,86.49135 L56.1954312,86.4289844 C56.2951616,86.0028194 56.3453527,85.5779538 56.3453527,85.1680298 C56.3453527,84.7581059 56.2951616,84.3332402 56.1954312,83.9070752 L56.1810909,83.8447096 L56.1986904,83.784293 C56.8146722,81.6651617 58.7884211,80.1859275 60.9974816,80.1859275 C63.7540814,80.1859275 65.9970371,82.420695 65.9970371,85.1680298 C65.9970371,87.9153647 63.7540814,90.1501322 60.9974816,90.1501322 L60.9974816,90.1501322 Z M60.867115,94.4111323 C60.867115,97.1591167 58.6241593,99.3938843 55.8675595,99.3938843 C53.1109597,99.3938843 50.8686557,97.1591167 50.8686557,94.4111323 C50.8686557,92.6389096 51.8307606,90.9855715 53.3801665,90.094263 L53.5033629,90.0228024 C54.9608604,89.2425827 56.7820805,89.2458309 58.2258896,90.0195542 L58.3477823,90.0910148 C59.9043584,90.9855715 60.867115,92.6389096 60.867115,94.4111323 L60.867115,94.4111323 Z M50.7376374,78.1674906 L50.9520903,78.5559764 C51.0668128,78.7638617 51.2076087,78.9782435 51.3836034,79.2134138 L51.7062606,79.6434766 L51.1684987,79.6018996 C50.8829961,79.5804614 50.5916269,79.5804614 50.3061243,79.6018996 L49.7677106,79.6434766 L50.0910195,79.2134138 C50.2670143,78.9788931 50.408462,78.7645114 50.5238363,78.5559764 L50.7376374,78.1674906 Z M51.3836034,72.5305494 C51.2076087,72.7657197 51.0668128,72.9801015 50.9520903,73.1879868 L50.7376374,73.5764726 L50.5238363,73.1879868 C50.4091138,72.9801015 50.2676661,72.7657197 50.0916714,72.5305494 L49.7690143,72.1004866 L50.3061243,72.1420637 C50.5909751,72.1635018 50.8829961,72.1635018 51.1684987,72.1420637 L51.7056087,72.1004866 L51.3836034,72.5305494 Z M56.4737637,88.4552169 L56.7846879,88.8787834 L56.2593108,88.8424034 C55.9431721,88.8203156 55.7508815,88.8229142 55.5201327,88.8391552 L54.993452,88.8761848 L55.2620071,88.4552169 C55.4210542,88.2382366 55.5488134,88.0407455 55.6537584,87.8516998 L55.8675595,87.4645133 L56.0820124,87.8516998 C56.1856538,88.0394462 56.3140648,88.237587 56.4737637,88.4552169 L56.4737637,88.4552169 Z M55.8675595,82.872196 L55.6537584,82.4843599 C55.5390359,82.2758249 55.3975882,82.0614431 55.2215934,81.8269225 L54.8989363,81.3968596 L55.43735,81.4377871 C55.7228527,81.4598749 56.0142218,81.4598749 56.2990726,81.4377871 L56.8368345,81.3968596 L56.5135255,81.8269225 C56.3375307,82.0614431 56.1967349,82.2758249 56.0820124,82.4843599 L55.8675595,82.872196 Z M60.6806909,74.5411905 L60.6969868,74.6003079 L60.6839501,74.6594253 C60.5933454,75.06805 60.5470653,75.476025 60.5470653,75.8723064 C60.5470653,76.2679382 60.5933454,76.6759132 60.6839501,77.0845379 L60.6969868,77.1436553 L60.6813428,77.2027727 C60.0816568,79.3524371 58.1020414,80.8544088 55.8675595,80.8544088 C53.658499,80.8544088 51.6847501,79.3751746 51.0681165,77.2560433 L51.0511689,77.194977 L51.0655092,77.1326114 C51.1645877,76.7064464 51.2147788,76.2822303 51.2147788,75.8723064 C51.2147788,75.4610832 51.1645877,75.0368672 51.0655092,74.6107022 L51.0511689,74.5483366 L51.0681165,74.4872703 C51.6847501,72.3687886 53.658499,70.8895544 55.8675595,70.8895544 C58.1020414,70.8895544 60.0816568,72.3915261 60.6806909,74.5411905 L60.6806909,74.5411905 Z M61.6714764,79.2140634 L61.996089,79.6460752 L61.4557198,79.6031988 C61.163047,79.5798117 60.8612486,79.5798117 60.5659684,79.6018996 L60.0295102,79.6434766 L60.3515155,79.2134138 C60.5385914,78.9639514 60.6800391,78.7482703 60.7960653,78.5351878 L61.0105182,78.1408553 L61.2256229,78.5345382 C61.342301,78.7482703 61.4883115,78.9697982 61.6714764,79.2140634 L61.6714764,79.2140634 Z M61.0105182,73.6018086 L60.7960653,73.2081257 C60.6793873,72.9943936 60.5379396,72.7787125 60.3515155,72.5305494 L60.0282066,72.1004866 L60.5659684,72.1420637 C60.8605967,72.1641515 61.1617434,72.1654508 61.455068,72.1407644 L61.9980445,72.0946398 L61.6714764,72.5292501 C61.4883115,72.7728658 61.342301,72.9956929 61.2256229,73.2087754 L61.0105182,73.6018086 Z M50.7376374,90.1501322 C47.9810376,90.1501322 45.7387337,87.9153647 45.7387337,85.1680298 C45.7387337,82.420695 47.9810376,80.1859275 50.7376374,80.1859275 C52.9466979,80.1859275 54.9204468,81.6651617 55.5370804,83.7836433 L55.5546799,83.84406 L55.5403395,83.9064256 C55.4406092,84.3325906 55.3904181,84.7574563 55.3904181,85.1680298 C55.3904181,85.5786034 55.4406092,86.0034691 55.5403395,86.4296341 L55.5546799,86.4919997 L55.5370804,86.5524163 C55.1759652,87.7938817 54.3546562,88.8346077 53.2250304,89.4842494 L53.1011822,89.5563597 C52.3730852,89.9461447 51.5576427,90.1501322 50.7376374,90.1501322 L50.7376374,90.1501322 Z M75.3553969,6.46783299 L69.1134485,6.46783299 L69.2040532,5.47323151 L69.2034014,0.612612144 L76.2040828,0.612612144 L76.2040828,5.50961145 L76.2875174,6.43275234 L75.3553969,6.46783299 Z M69.2034014,13.6931482 L76.2040828,13.6931482 L76.2040828,7.08109478 L69.2034014,7.08109478 L69.2034014,13.6931482 Z M69.2034014,21.0269536 L76.2040828,21.0269536 L76.2040828,14.3057604 L69.2034014,14.3057604 L69.2034014,21.0269536 Z M45.6077153,81.4598749 C45.753074,81.4598749 45.8964771,81.448831 46.0392285,81.4377871 L46.5769903,81.3968596 L46.2536814,81.8269225 C45.5190661,82.8052829 45.1305739,83.9603459 45.1305739,85.1680298 C45.1305739,88.2492805 47.6453438,90.7562479 50.7376374,90.7562479 C50.8549673,90.7562479 50.9703416,90.7478026 51.0850641,90.7400069 L51.611093,90.7023277 L51.3438417,91.1232955 C50.6346479,92.0899624 50.260496,93.2268354 50.260496,94.4111323 C50.260496,97.492383 52.7759178,100 55.8675595,100 C58.959853,100 61.4752748,97.492383 61.4752748,94.4111323 C61.4752748,93.2268354 61.1004711,92.0899624 60.3919291,91.1232955 L60.081005,90.6997291 L60.606382,90.7367587 C60.7647773,90.7478026 60.8801517,90.7562479 60.9974816,90.7562479 C62.6140263,90.7562479 64.0689165,90.0669781 65.0929454,88.9729814 L82.1077301,88.9729814 C83.151314,88.9729814 84,88.1277975 84,87.0890204 L84,38.3756358 C84,37.4628892 83.8774555,36.6099096 83.6356256,35.8407338 L83.6356256,35.8407338 L83.6271518,35.8127992 C83.5365471,35.4827812 83.4081361,35.1404201 83.2529999,34.819497 L83.2295339,34.7662264 C83.1799947,34.6414952 83.1337146,34.5466475 83.0828716,34.4433545 C82.7028532,33.6865219 82.1657432,32.9673685 81.4415573,32.2462662 C81.3072798,32.1117903 81.166484,31.9825116 81.010696,31.8519337 C80.5576724,31.468645 80.0316435,31.1269335 79.4026251,30.8053608 C78.3929365,30.3577577 77.6413736,29.7126635 77.1733578,28.8895674 C77.0527688,28.6790835 76.9491274,28.4484607 76.865041,28.2028961 L76.8194128,28.0554274 L76.8194128,6.46783299 L76.7398892,6.46783299 L76.8213683,5.46088832 L76.8200646,0 L68.5880715,0 L68.5958935,5.54144389 L68.679328,6.46783299 L68.5880715,6.46783299 L68.5848123,27.6305617 L68.5528725,27.7390519 C68.1181002,29.1974976 67.064087,30.2083401 65.3302124,30.8300472 L65.2265711,30.8748725 C65.0675239,30.9560777 64.8830553,31.0580715 64.7253118,31.1529192 C64.3726704,31.3627534 64.0408877,31.5985734 63.7384374,31.851284 C63.7175787,31.8688243 63.6980238,31.887664 63.6680395,31.9162482 L63.5891677,31.9883584 C63.4926965,32.0728118 63.3988326,32.1566156 63.3069242,32.2482151 C62.8871441,32.6678837 62.5169032,33.10964 62.2059791,33.5591921 C61.976534,33.8885605 61.8051021,34.1711546 61.6669136,34.4459531 C61.5150366,34.7499854 61.3436046,35.1098869 61.2230156,35.4710877 C60.9094842,36.3877322 60.750437,37.3647933 60.750437,38.3756358 L60.750437,60.9448389 L60.9603271,60.656398 L61.3664188,60.7116175 L61.3664188,38.3756358 C61.3664188,37.4187136 61.5098219,36.5326023 61.8057539,35.6679291 C61.9172173,35.3353126 62.0840864,34.986455 62.2177121,34.7201019 C62.3415603,34.4719387 62.4986519,34.2146806 62.7118011,33.9080497 C63.0031703,33.4883812 63.346686,33.0771579 63.7345264,32.6873729 C63.8114426,32.6113648 63.8844479,32.5470503 63.9574531,32.4827358 L64.1034636,32.3489096 C64.4052621,32.0936004 64.712927,31.8746711 65.0460135,31.67718 C65.168558,31.6018216 65.3060946,31.5258135 65.4781784,31.4368126 L65.5726941,31.3952355 C67.5555687,30.6728339 68.7386448,29.4748946 69.1936239,27.7299569 L69.2034014,27.6916281 L69.2034014,21.6402154 L76.203431,21.6402154 L76.219075,28.1989983 C76.3214127,28.5498048 76.4615567,28.8837206 76.6375515,29.1923004 C77.1720542,30.132332 78.0109626,30.8599307 79.1327664,31.356257 C79.7142011,31.6537929 80.1978608,31.9695188 80.6163373,32.3229239 C80.7408373,32.4262169 80.8679447,32.5425028 81.0048295,32.6782779 C81.6833872,33.3558542 82.1826909,34.0230363 82.532725,34.7201019 C82.5718349,34.7967596 82.6096412,34.872118 82.6819946,35.0468717 C82.8345234,35.3651961 82.9531569,35.6822213 83.0444135,36.0102903 C83.2725549,36.7365898 83.3846701,37.5109627 83.3846701,38.3756358 L83.3846701,50.2458894 L67.4473645,50.2458894 L67.4473645,70.4387031 C67.0314954,70.3406072 66.5999822,70.282789 66.1547806,70.282789 C66.0002963,70.282789 65.8477675,70.2944826 65.6965423,70.3068258 L65.1555213,70.3497021 L65.4814376,69.9176904 C66.2167047,68.9399796 66.6051969,67.7849166 66.6051969,66.5752837 C66.6051969,63.494033 64.0897751,60.9870656 60.9974816,60.9870656 C59.2825101,60.9870656 57.6822613,61.7607889 56.6073894,63.1100948 L56.1719653,63.6577428 L56.1719653,54.1456887 C56.1719653,53.9787307 56.0357323,53.8429556 55.8675595,53.8429556 C55.7000385,53.8429556 55.5638055,53.9787307 55.5638055,54.1456887 L55.5638055,63.6564435 L55.1277295,63.1094451 C54.0535095,61.7601393 52.4532606,60.9870656 50.7376374,60.9870656 C47.6453438,60.9870656 45.1305739,63.494033 45.1305739,66.5752837 C45.1305739,67.784267 45.5184143,68.93933 46.2536814,69.9163911 L46.5769903,70.3464539 L46.0392285,70.3055265 C45.8964771,70.2944826 45.753074,70.282789 45.6077153,70.282789 C42.5154218,70.282789 40,72.7904061 40,75.8723064 C40,78.9535571 42.5154218,81.4598749 45.6077153,81.4598749 L45.6077153,81.4598749 Z" id="Fill-29" fill="#c75d76"></path>
                <path d="M45.6077153,70.8895544 C47.8167758,70.8895544 49.7905247,72.3687886 50.4065065,74.4872703 L50.424106,74.5483366 L50.4097656,74.6107022 C50.3106871,75.0368672 50.260496,75.4610832 50.260496,75.8723064 C50.260496,76.2822303 50.3106871,76.7064464 50.4097656,77.1326114 L50.424106,77.194977 L50.4065065,77.2560433 C49.7905247,79.3751746 47.8174276,80.8544088 45.6077153,80.8544088 C42.8511155,80.8544088 40.6081598,78.6189916 40.6081598,75.8723064 C40.6081598,73.1243219 42.8511155,70.8895544 45.6077153,70.8895544 Z M45.7387337,66.5752837 C45.7387337,63.8285985 47.9810376,61.5931814 50.7376374,61.5931814 C52.9466979,61.5931814 54.9204468,63.0730652 55.5370804,65.1915469 L55.5546799,65.2519635 L55.5403395,65.3143291 C55.4406092,65.7404941 55.3904181,66.1653598 55.3904181,66.5752837 C55.3904181,66.9865069 55.4406092,67.4113726 55.5403395,67.8375376 L55.5546799,67.8992536 L55.5370804,67.9603199 C54.9204468,70.0788015 52.9466979,71.5580357 50.7376374,71.5580357 C47.9810376,71.5580357 45.7387337,69.3232682 45.7387337,66.5752837 Z M55.6537584,69.2596033 L55.8675595,68.8717672 L56.0820124,69.2596033 C56.1973867,69.4681383 56.3381826,69.6838194 56.5135255,69.9163911 L56.8374863,70.3464539 L56.2990726,70.3055265 C56.0142218,70.2834387 55.7228527,70.2834387 55.43735,70.3055265 L54.8989363,70.3464539 L55.2222453,69.9163911 C55.3969364,69.6838194 55.538384,69.4681383 55.6537584,69.2596033 Z M56.1954312,65.3149788 L56.1810909,65.2526132 L56.1986904,65.1915469 C56.8146722,63.0730652 58.7884211,61.5931814 60.9974816,61.5931814 C63.7540814,61.5931814 65.9970371,63.8285985 65.9970371,66.5752837 C65.9970371,69.3232682 63.7540814,71.5580357 60.9974816,71.5580357 C58.7884211,71.5580357 56.815324,70.0788015 56.1986904,67.9596702 L56.1810909,67.8986039 L56.1954312,67.836888 C56.2951616,67.410723 56.3453527,66.9858573 56.3453527,66.5752837 C56.3453527,66.1660094 56.2951616,65.7411438 56.1954312,65.3149788 Z M66.1547806,70.8895544 C68.9113804,70.8895544 71.1536843,73.1243219 71.1536843,75.8723064 C71.1536843,78.6189916 68.9113804,80.8544088 66.1547806,80.8544088 C63.9202987,80.8544088 61.9406832,79.3524371 61.3416491,77.2027727 L61.3253533,77.1443049 L61.33839,77.0845379 C61.4289947,76.6759132 61.4752748,76.2679382 61.4752748,75.8723064 C61.4752748,75.4747257 61.4289947,75.066101 61.33839,74.6594253 L61.3253533,74.6003079 L61.3416491,74.5411905 C61.9406832,72.3915261 63.9202987,70.8895544 66.1547806,70.8895544 Z M68.0626944,50.8585015 L83.3846701,50.8585015 L83.3846701,75.301921 L71.7331635,75.301921 C71.5115404,73.1379644 70.0449172,71.341705 68.0626944,70.6232013 L68.0626944,50.8585015 Z M83.3846701,87.0890204 C83.3846701,87.7893342 82.8117093,88.3597196 82.1077301,88.3597196 L65.7747622,88.3597196 L65.4501496,88.5513639 C66.1717282,87.6113324 66.6051969,86.4400283 66.6051969,85.1680298 C66.6051969,83.9590466 66.2167047,82.8039836 65.4814376,81.8256232 L65.1561732,81.3936114 L65.6965423,81.4364878 C65.8477675,81.448831 66.0002963,81.4598749 66.1547806,81.4598749 C69.232082,81.4598749 71.7357708,78.9769442 71.7598886,75.9151828 L83.3846701,75.9151828 L83.3846701,87.0890204 Z M60.9974816,90.1501322 C60.1774762,90.1501322 59.3620337,89.9461447 58.6391514,89.5589582 L58.5172587,89.4881473 C57.3811146,88.8352574 56.5604575,87.7938817 56.1986904,86.5517667 L56.1810909,86.49135 L56.1954312,86.4289844 C56.2951616,86.0028194 56.3453527,85.5779538 56.3453527,85.1680298 C56.3453527,84.7581059 56.2951616,84.3332402 56.1954312,83.9070752 L56.1810909,83.8447096 L56.1986904,83.784293 C56.8146722,81.6651617 58.7884211,80.1859275 60.9974816,80.1859275 C63.7540814,80.1859275 65.9970371,82.420695 65.9970371,85.1680298 C65.9970371,87.9153647 63.7540814,90.1501322 60.9974816,90.1501322 Z M60.867115,94.4111323 C60.867115,97.1591167 58.6241593,99.3938843 55.8675595,99.3938843 C53.1109597,99.3938843 50.8686557,97.1591167 50.8686557,94.4111323 C50.8686557,92.6389096 51.8307606,90.9855715 53.3801665,90.094263 L53.5033629,90.0228024 C54.9608604,89.2425827 56.7820805,89.2458309 58.2258896,90.0195542 L58.3477823,90.0910148 C59.9043584,90.9855715 60.867115,92.6389096 60.867115,94.4111323 Z M50.7376374,78.1674906 L50.9520903,78.5559764 C51.0668128,78.7638617 51.2076087,78.9782435 51.3836034,79.2134138 L51.7062606,79.6434766 L51.1684987,79.6018996 C50.8829961,79.5804614 50.5916269,79.5804614 50.3061243,79.6018996 L49.7677106,79.6434766 L50.0910195,79.2134138 C50.2670143,78.9788931 50.408462,78.7645114 50.5238363,78.5559764 L50.7376374,78.1674906 Z M51.3836034,72.5305494 C51.2076087,72.7657197 51.0668128,72.9801015 50.9520903,73.1879868 L50.7376374,73.5764726 L50.5238363,73.1879868 C50.4091138,72.9801015 50.2676661,72.7657197 50.0916714,72.5305494 L49.7690143,72.1004866 L50.3061243,72.1420637 C50.5909751,72.1635018 50.8829961,72.1635018 51.1684987,72.1420637 L51.7056087,72.1004866 L51.3836034,72.5305494 Z M56.4737637,88.4552169 L56.7846879,88.8787834 L56.2593108,88.8424034 C55.9431721,88.8203156 55.7508815,88.8229142 55.5201327,88.8391552 L54.993452,88.8761848 L55.2620071,88.4552169 C55.4210542,88.2382366 55.5488134,88.0407455 55.6537584,87.8516998 L55.8675595,87.4645133 L56.0820124,87.8516998 C56.1856538,88.0394462 56.3140648,88.237587 56.4737637,88.4552169 Z M55.8675595,82.872196 L55.6537584,82.4843599 C55.5390359,82.2758249 55.3975882,82.0614431 55.2215934,81.8269225 L54.8989363,81.3968596 L55.43735,81.4377871 C55.7228527,81.4598749 56.0142218,81.4598749 56.2990726,81.4377871 L56.8368345,81.3968596 L56.5135255,81.8269225 C56.3375307,82.0614431 56.1967349,82.2758249 56.0820124,82.4843599 L55.8675595,82.872196 Z M60.6806909,74.5411905 L60.6969868,74.6003079 L60.6839501,74.6594253 C60.5933454,75.06805 60.5470653,75.476025 60.5470653,75.8723064 C60.5470653,76.2679382 60.5933454,76.6759132 60.6839501,77.0845379 L60.6969868,77.1436553 L60.6813428,77.2027727 C60.0816568,79.3524371 58.1020414,80.8544088 55.8675595,80.8544088 C53.658499,80.8544088 51.6847501,79.3751746 51.0681165,77.2560433 L51.0511689,77.194977 L51.0655092,77.1326114 C51.1645877,76.7064464 51.2147788,76.2822303 51.2147788,75.8723064 C51.2147788,75.4610832 51.1645877,75.0368672 51.0655092,74.6107022 L51.0511689,74.5483366 L51.0681165,74.4872703 C51.6847501,72.3687886 53.658499,70.8895544 55.8675595,70.8895544 C58.1020414,70.8895544 60.0816568,72.3915261 60.6806909,74.5411905 Z M61.6714764,79.2140634 L61.996089,79.6460752 L61.4557198,79.6031988 C61.163047,79.5798117 60.8612486,79.5798117 60.5659684,79.6018996 L60.0295102,79.6434766 L60.3515155,79.2134138 C60.5385914,78.9639514 60.6800391,78.7482703 60.7960653,78.5351878 L61.0105182,78.1408553 L61.2256229,78.5345382 C61.342301,78.7482703 61.4883115,78.9697982 61.6714764,79.2140634 Z M61.0105182,73.6018086 L60.7960653,73.2081257 C60.6793873,72.9943936 60.5379396,72.7787125 60.3515155,72.5305494 L60.0282066,72.1004866 L60.5659684,72.1420637 C60.8605967,72.1641515 61.1617434,72.1654508 61.455068,72.1407644 L61.9980445,72.0946398 L61.6714764,72.5292501 C61.4883115,72.7728658 61.342301,72.9956929 61.2256229,73.2087754 L61.0105182,73.6018086 Z M50.7376374,90.1501322 C47.9810376,90.1501322 45.7387337,87.9153647 45.7387337,85.1680298 C45.7387337,82.420695 47.9810376,80.1859275 50.7376374,80.1859275 C52.9466979,80.1859275 54.9204468,81.6651617 55.5370804,83.7836433 L55.5546799,83.84406 L55.5403395,83.9064256 C55.4406092,84.3325906 55.3904181,84.7574563 55.3904181,85.1680298 C55.3904181,85.5786034 55.4406092,86.0034691 55.5403395,86.4296341 L55.5546799,86.4919997 L55.5370804,86.5524163 C55.1759652,87.7938817 54.3546562,88.8346077 53.2250304,89.4842494 L53.1011822,89.5563597 C52.3730852,89.9461447 51.5576427,90.1501322 50.7376374,90.1501322 Z M75.3553969,6.46783299 L69.1134485,6.46783299 L69.2040532,5.47323151 L69.2034014,0.612612144 L76.2040828,0.612612144 L76.2040828,5.50961145 L76.2875174,6.43275234 L75.3553969,6.46783299 Z M69.2034014,13.6931482 L76.2040828,13.6931482 L76.2040828,7.08109478 L69.2034014,7.08109478 L69.2034014,13.6931482 Z M69.2034014,21.0269536 L76.2040828,21.0269536 L76.2040828,14.3057604 L69.2034014,14.3057604 L69.2034014,21.0269536 Z M45.6077153,81.4598749 C45.753074,81.4598749 45.8964771,81.448831 46.0392285,81.4377871 L46.5769903,81.3968596 L46.2536814,81.8269225 C45.5190661,82.8052829 45.1305739,83.9603459 45.1305739,85.1680298 C45.1305739,88.2492805 47.6453438,90.7562479 50.7376374,90.7562479 C50.8549673,90.7562479 50.9703416,90.7478026 51.0850641,90.7400069 L51.611093,90.7023277 L51.3438417,91.1232955 C50.6346479,92.0899624 50.260496,93.2268354 50.260496,94.4111323 C50.260496,97.492383 52.7759178,100 55.8675595,100 C58.959853,100 61.4752748,97.492383 61.4752748,94.4111323 C61.4752748,93.2268354 61.1004711,92.0899624 60.3919291,91.1232955 L60.081005,90.6997291 L60.606382,90.7367587 C60.7647773,90.7478026 60.8801517,90.7562479 60.9974816,90.7562479 C62.6140263,90.7562479 64.0689165,90.0669781 65.0929454,88.9729814 L82.1077301,88.9729814 C83.151314,88.9729814 84,88.1277975 84,87.0890204 L84,38.3756358 C84,37.4628892 83.8774555,36.6099096 83.6356256,35.8407338 L83.6356256,35.8407338 L83.6271518,35.8127992 C83.5365471,35.4827812 83.4081361,35.1404201 83.2529999,34.819497 L83.2295339,34.7662264 C83.1799947,34.6414952 83.1337146,34.5466475 83.0828716,34.4433545 C82.7028532,33.6865219 82.1657432,32.9673685 81.4415573,32.2462662 C81.3072798,32.1117903 81.166484,31.9825116 81.010696,31.8519337 C80.5576724,31.468645 80.0316435,31.1269335 79.4026251,30.8053608 C78.3929365,30.3577577 77.6413736,29.7126635 77.1733578,28.8895674 C77.0527688,28.6790835 76.9491274,28.4484607 76.865041,28.2028961 L76.8194128,28.0554274 L76.8194128,6.46783299 L76.7398892,6.46783299 L76.8213683,5.46088832 L76.8200646,0 L68.5880715,0 L68.5958935,5.54144389 L68.679328,6.46783299 L68.5880715,6.46783299 L68.5848123,27.6305617 L68.5528725,27.7390519 C68.1181002,29.1974976 67.064087,30.2083401 65.3302124,30.8300472 L65.2265711,30.8748725 C65.0675239,30.9560777 64.8830553,31.0580715 64.7253118,31.1529192 C64.3726704,31.3627534 64.0408877,31.5985734 63.7384374,31.851284 C63.7175787,31.8688243 63.6980238,31.887664 63.6680395,31.9162482 L63.5891677,31.9883584 C63.4926965,32.0728118 63.3988326,32.1566156 63.3069242,32.2482151 C62.8871441,32.6678837 62.5169032,33.10964 62.2059791,33.5591921 C61.976534,33.8885605 61.8051021,34.1711546 61.6669136,34.4459531 C61.5150366,34.7499854 61.3436046,35.1098869 61.2230156,35.4710877 C60.9094842,36.3877322 60.750437,37.3647933 60.750437,38.3756358 L60.750437,60.9448389 L60.9603271,60.656398 L61.3664188,60.7116175 L61.3664188,38.3756358 C61.3664188,37.4187136 61.5098219,36.5326023 61.8057539,35.6679291 C61.9172173,35.3353126 62.0840864,34.986455 62.2177121,34.7201019 C62.3415603,34.4719387 62.4986519,34.2146806 62.7118011,33.9080497 C63.0031703,33.4883812 63.346686,33.0771579 63.7345264,32.6873729 C63.8114426,32.6113648 63.8844479,32.5470503 63.9574531,32.4827358 L64.1034636,32.3489096 C64.4052621,32.0936004 64.712927,31.8746711 65.0460135,31.67718 C65.168558,31.6018216 65.3060946,31.5258135 65.4781784,31.4368126 L65.5726941,31.3952355 C67.5555687,30.6728339 68.7386448,29.4748946 69.1936239,27.7299569 L69.2034014,27.6916281 L69.2034014,21.6402154 L76.203431,21.6402154 L76.219075,28.1989983 C76.3214127,28.5498048 76.4615567,28.8837206 76.6375515,29.1923004 C77.1720542,30.132332 78.0109626,30.8599307 79.1327664,31.356257 C79.7142011,31.6537929 80.1978608,31.9695188 80.6163373,32.3229239 C80.7408373,32.4262169 80.8679447,32.5425028 81.0048295,32.6782779 C81.6833872,33.3558542 82.1826909,34.0230363 82.532725,34.7201019 C82.5718349,34.7967596 82.6096412,34.872118 82.6819946,35.0468717 C82.8345234,35.3651961 82.9531569,35.6822213 83.0444135,36.0102903 C83.2725549,36.7365898 83.3846701,37.5109627 83.3846701,38.3756358 L83.3846701,50.2458894 L67.4473645,50.2458894 L67.4473645,70.4387031 C67.0314954,70.3406072 66.5999822,70.282789 66.1547806,70.282789 C66.0002963,70.282789 65.8477675,70.2944826 65.6965423,70.3068258 L65.1555213,70.3497021 L65.4814376,69.9176904 C66.2167047,68.9399796 66.6051969,67.7849166 66.6051969,66.5752837 C66.6051969,63.494033 64.0897751,60.9870656 60.9974816,60.9870656 C59.2825101,60.9870656 57.6822613,61.7607889 56.6073894,63.1100948 L56.1719653,63.6577428 L56.1719653,54.1456887 C56.1719653,53.9787307 56.0357323,53.8429556 55.8675595,53.8429556 C55.7000385,53.8429556 55.5638055,53.9787307 55.5638055,54.1456887 L55.5638055,63.6564435 L55.1277295,63.1094451 C54.0535095,61.7601393 52.4532606,60.9870656 50.7376374,60.9870656 C47.6453438,60.9870656 45.1305739,63.494033 45.1305739,66.5752837 C45.1305739,67.784267 45.5184143,68.93933 46.2536814,69.9163911 L46.5769903,70.3464539 L46.0392285,70.3055265 C45.8964771,70.2944826 45.753074,70.282789 45.6077153,70.282789 C42.5154218,70.282789 40,72.7904061 40,75.8723064 C40,78.9535571 42.5154218,81.4598749 45.6077153,81.4598749 Z" id="Stroke-31" stroke="#c75d76" stroke-width="0.25"></path>
                <path d="M63.2439623,75.9980276 L63.2764795,76 C63.4154164,76 63.5330693,75.8829717 63.5502147,75.7284681 C63.5726811,75.5239974 63.8251323,73.721236 65.7383226,73.6127548 C65.8902663,73.6042078 66.007328,73.4602235 65.9996422,73.2912558 C65.9960949,73.2084155 65.9647602,73.1328074 65.9109591,73.0788955 C65.8577492,73.0243261 65.785029,73.0059172 65.709944,73 C63.7671927,73.1104536 63.0890625,74.7889546 63.0015618,75.6607495 C62.9855989,75.82643 63.0937923,75.9776463 63.2439623,75.9980276" id="Fill-33" fill="#c75d76"></path>
                <path d="M63.2439623,75.9980276 L63.2764795,76 C63.4154164,76 63.5330693,75.8829717 63.5502147,75.7284681 C63.5726811,75.5239974 63.8251323,73.721236 65.7383226,73.6127548 C65.8902663,73.6042078 66.007328,73.4602235 65.9996422,73.2912558 C65.9960949,73.2084155 65.9647602,73.1328074 65.9109591,73.0788955 C65.8577492,73.0243261 65.785029,73.0059172 65.709944,73 C63.7671927,73.1104536 63.0890625,74.7889546 63.0015618,75.6607495 C62.9855989,75.82643 63.0937923,75.9776463 63.2439623,75.9980276 Z" id="Stroke-35" stroke="#c75d76" stroke-width="0.25"></path>
                <path d="M136.239603,71.4696857 L136.02394,72.1178464 C134.642914,76.2780127 131.80746,77.2966436 129.671613,77.4186198 L128.161319,77.5062091 L128.399069,76.0139473 C128.519892,75.252245 128.63422,74.4172272 128.746599,73.4589356 L128.85573,72.5356797 L129.776846,72.3987809 C130.169847,72.340388 130.539463,72.2391738 130.875301,72.0970845 L135.024223,70.3478941 C135.357462,70.2090489 135.729027,70.2726322 135.993409,70.5172334 C136.259091,70.7618346 136.353281,71.1271143 136.239603,71.4696857 L136.239603,71.4696857 Z M127.721548,76.0210842 L127.500688,77.3809889 L126.176826,76.9930008 C123.12246,76.0976437 121.327647,73.9338641 120.986613,70.7358822 L120.922304,70.1350846 C120.886576,69.7951085 121.041828,69.4674597 121.328297,69.2806026 C121.615415,69.0937454 121.977236,69.0807692 122.275397,69.2507573 L126.838757,71.8492393 C127.005701,71.9439655 127.177842,72.0289595 127.35518,72.1035726 L128.202243,72.4578226 L128.093762,73.3687511 C127.98723,74.2634593 127.862509,75.1555724 127.721548,76.0210842 L127.721548,76.0210842 Z M128.510798,56.5944309 L129.452701,56.273919 C129.749563,56.1727047 130.029536,56.0455381 130.284824,55.8950143 L134.440892,53.4490026 C134.74425,53.2699312 135.112567,53.2848538 135.400335,53.4872823 C135.688752,53.6903597 135.826465,54.0309847 135.760856,54.3768001 L135.623144,55.0976274 C135.011231,58.2988534 133.211221,60.3594723 130.41799,61.054996 L129.040862,61.3982163 L128.910295,59.9870556 C128.858328,59.4303771 128.801164,58.872401 128.734906,58.3144248 C128.718666,58.1749308 128.699828,58.0341391 128.679691,57.8939963 L128.510798,56.5944309 Z M126.124859,87.9708571 C126.422371,87.964369 126.714036,87.9286845 126.992709,87.86575 L131.774331,86.7841846 C132.148494,86.7017858 132.527204,86.8510119 132.740919,87.1669822 C132.955283,87.4848988 132.952685,87.8923511 132.734423,88.2070237 L132.300498,88.8331249 C130.270534,91.7573092 127.793652,93.3027734 125.136835,93.3027734 C125.086167,93.3027734 125.034849,93.3001781 124.982882,93.2975829 L123.271216,93.1944222 L123.869487,91.6119759 C124.272882,90.6673093 124.656139,89.7103153 125.012763,88.7598094 L125.30183,87.9903214 L126.124859,87.9708571 Z M122.560566,92.9439817 L121.409495,92.3678389 C118.727994,91.0267497 117.388542,88.5346725 117.535998,85.1615121 L117.560033,84.6002919 C117.574974,84.2590181 117.776346,83.9553753 118.0862,83.8093931 C118.394755,83.6627622 118.757875,83.6990955 119.032001,83.9041193 L123.277712,87.0787441 C123.421271,87.1870952 123.570677,87.2824702 123.72333,87.3700595 L124.627557,87.8865119 L124.257292,88.8584285 C123.887026,89.8290474 123.488828,90.8068033 123.072442,91.7644461 L122.560566,92.9439817 Z M119.52309,101.57185 C120.196713,101.696422 120.852798,101.715886 121.529669,101.630243 L126.321035,101.024904 C126.633487,100.984029 126.935546,101.128713 127.099892,101.401862 C127.264237,101.675011 127.252545,102.005904 127.068062,102.266725 L126.510715,103.055029 C124.615215,105.735261 122.196797,107.15226 119.516594,107.15226 C118.731891,107.15226 117.898469,107.025743 117.037764,106.775951 L115.394305,106.297778 L116.385577,104.903487 C117.035815,103.988665 117.672412,103.04854 118.277829,102.109713 L118.720198,101.42457 L119.52309,101.57185 Z M114.838907,105.961046 L113.863224,105.322618 C110.943973,103.412523 109.965693,100.573981 111.034266,97.1138802 L111.247981,96.4222493 C111.331778,96.1503981 111.547441,95.9492672 111.824166,95.8843863 C112.099591,95.8208029 112.382812,95.9032017 112.578988,96.1095231 L115.972439,99.6630526 C116.295284,100.001082 116.663601,100.308618 117.066995,100.577225 L118.069311,101.24485 L117.411927,102.2531 C116.803262,103.186737 116.166016,104.115832 115.519675,105.014433 L114.838907,105.961046 Z M110.302829,113.52876 C110.834193,113.727944 111.385044,113.857058 111.938493,113.913504 L117.868588,114.517546 C118.256392,114.556474 118.565596,114.814051 118.674727,115.187117 C118.784508,115.560831 118.663684,115.943629 118.359027,116.185635 L117.826365,116.609307 C115.422887,118.521998 112.771266,119.533492 110.157321,119.533492 C108.917906,119.533492 107.655106,119.303813 106.403349,118.848998 L104.555269,118.17748 L106.068811,116.740367 C106.473504,116.355623 106.851565,115.996182 107.22248,115.629605 C107.825298,115.034647 108.415125,114.433849 108.993908,113.827861 L109.549306,113.247177 L110.302829,113.52876 Z M104.038846,117.793385 L103.219065,117.132897 C102.215451,116.323182 101.551572,115.336343 101.245615,114.200927 C100.618113,111.872349 101.574957,109.324475 102.487629,107.597344 L102.650675,107.28851 C102.813073,106.980975 103.11773,106.783088 103.46461,106.758433 C103.814738,106.731183 104.141481,106.886897 104.346102,107.167832 L107.314722,111.256629 C107.535582,111.56157 107.792819,111.85548 108.079937,112.130575 L108.963378,112.976623 L108.113066,113.854462 C107.057485,114.943813 105.947338,116.028623 104.812506,117.079045 L104.038846,117.793385 Z M97.9509019,124.465741 C98.6823386,124.849836 99.4657425,125.091194 100.279677,125.180729 L107.362142,125.970979 C107.748647,126.013801 108.057201,126.272027 108.168281,126.644443 C108.279361,127.016211 108.161785,127.400955 107.861675,127.648152 L107.375783,128.048467 C105.440009,129.643241 102.385643,131.544901 98.8278465,131.544901 C96.6634172,131.544901 94.5340658,130.833157 92.4995543,129.429783 L91.00615,128.400122 L92.5261874,127.40939 C93.9169566,126.504301 95.3103242,125.54536 96.6673148,124.558521 L97.2798768,124.114086 L97.9509019,124.465741 Z M89.8485831,127.112235 C88.7111535,125.797098 88.1258742,124.376206 88.1089849,122.887188 C88.0778046,120.249777 89.8115566,117.884867 91.2718318,116.365355 L91.5634971,116.061712 C91.7908531,115.824897 92.1188953,115.725629 92.4397921,115.789212 C92.7613385,115.854742 93.0231227,116.076635 93.139399,116.383522 L94.9004338,121.018616 C95.136884,121.641474 95.4707726,122.2267 95.8930052,122.760021 L96.6894008,123.764378 L95.6442127,124.505967 C94.3021627,125.460366 92.8828115,126.414765 91.4251347,127.342562 L90.5371471,127.907675 L89.8485831,127.112235 Z M81.6345352,154.516001 L76.7080552,152.596174 C76.5099306,152.519614 76.2903697,152.536483 76.1058865,152.644186 C75.9227025,152.75059 75.8012295,152.933555 75.7713484,153.143769 L75.0373133,158.365387 L69.0591493,148.004549 C68.811656,147.573739 68.104254,147.574388 67.8587096,148.001305 L61.8779472,158.366685 L61.1445617,153.141822 C61.1153302,152.932906 60.992558,152.749941 60.8080748,152.642239 C60.6248908,152.535186 60.4072786,152.518316 60.2085045,152.596174 L55.2800757,154.518596 L62.8893567,141.534621 L64.0040507,142.602561 C65.1687631,143.717865 66.6952964,144.332936 68.3023786,144.332936 C69.9958561,144.332936 71.5815019,143.660121 72.7663515,142.439061 L73.8816951,141.288722 L81.6345352,154.516001 Z M68.3023786,132.581699 C71.3606417,132.581699 73.8485661,135.066639 73.8485661,138.121234 C73.8485661,141.176478 71.3606417,143.661418 68.3023786,143.661418 C65.244765,143.661418 62.756191,141.176478 62.756191,138.121234 C62.756191,135.066639 65.244765,132.581699 68.3023786,132.581699 L68.3023786,132.581699 Z M46.1546549,127.905729 L45.2614706,127.334128 C43.8330253,126.418658 42.4260163,125.466854 41.0800687,124.503372 L40.0439749,123.761783 L40.8325755,122.761319 C41.2522097,122.229944 41.5847991,121.64342 41.8205997,121.017968 L43.6400974,116.196016 C43.7407837,115.930653 43.9661909,115.739254 44.2435653,115.683456 C44.5215892,115.628307 44.802861,115.715897 44.9983872,115.92092 L45.4381587,116.382873 C46.880895,117.899141 48.5945098,120.258861 48.5626799,122.891729 C48.545141,124.37361 47.9670072,125.789961 46.844518,127.100557 L46.1546549,127.905729 Z M44.2052395,129.427836 C42.1837198,130.833157 40.0680097,131.54555 37.9172218,131.54555 C34.3808614,131.54555 31.346633,129.641943 29.4238507,128.045223 L28.7015082,127.445723 C28.4455703,127.232914 28.3455336,126.90267 28.4410232,126.583455 C28.5365127,126.264241 28.8015448,126.042997 29.132835,126.006015 L36.4757847,125.182027 C37.2825737,125.091194 38.0581825,124.851783 38.7811746,124.470283 L39.454798,124.115384 L40.0693089,124.565009 C41.4172052,125.550551 42.7995298,126.508842 44.1779568,127.412634 L45.6850024,128.400122 L44.2052395,129.427836 Z M32.7458469,117.793385 L31.9669901,117.068016 C30.8380051,116.014998 29.7369524,114.932135 28.6950123,113.849272 L27.8531455,112.974677 L28.7274917,112.131873 C29.0126611,111.856129 29.2692486,111.562218 29.4901088,111.25598 L32.6016382,106.943344 C32.7679329,106.711719 33.036213,106.592987 33.3226816,106.605314 C33.607851,106.626076 33.857293,106.789576 33.9898091,107.041963 L34.289919,107.616159 C35.1928472,109.34329 36.1379986,111.889867 35.5111456,114.214552 C35.2071381,115.336992 34.5543016,116.314099 33.5695252,117.119272 L32.7458469,117.793385 Z M30.3917378,118.848998 C29.1490747,119.303813 27.8947191,119.53414 26.6637487,119.53414 C24.0653943,119.53414 21.4300133,118.521998 19.0434248,116.605414 L18.2834061,115.995534 C18.0203227,115.78467 17.9157389,115.45248 18.0112285,115.128075 C18.1073676,114.804319 18.3756477,114.581129 18.7121346,114.546742 L24.8942694,113.914153 C25.4431717,113.857706 25.9868774,113.729891 26.5110954,113.533302 L27.2672165,113.248474 L27.8232644,113.834349 C28.392304,114.432552 28.9717371,115.02751 29.5628627,115.61598 C29.9662572,116.016295 30.378746,116.410772 30.7912348,116.805248 L32.1969445,118.149581 L30.3917378,118.848998 Z M22.0185406,105.961695 L21.3345238,105.00535 C20.6933798,104.107398 20.0619797,103.1796 19.4585119,102.248558 L18.8076241,101.24485 L19.8021443,100.577225 C20.2016412,100.309267 20.5680092,100.001731 20.8895556,99.6624038 L24.2193468,96.1523446 C24.422668,95.9388863 24.7143333,95.8506482 25.0014515,95.919422 C25.2879201,95.9862493 25.5107289,96.1945172 25.5958251,96.4761005 L25.7965479,97.1333445 C26.8456335,100.577874 25.8783961,103.406034 22.9994194,105.312237 L22.0185406,105.961695 Z M19.8268286,106.777249 L19.8268286,106.7766 C18.975218,107.026391 18.1482917,107.152909 17.3668366,107.152909 C14.7048224,107.152909 12.3026438,105.735261 10.420136,103.052433 L9.90046508,102.311493 C9.71208439,102.043535 9.70039179,101.702261 9.86993442,101.420678 C10.0401266,101.139094 10.3486812,100.992463 10.6741251,101.032689 L15.3680524,101.630243 C16.0273848,101.713939 16.6938628,101.695773 17.3512464,101.573148 L18.1580355,101.423922 L18.5991061,102.114255 C19.1947789,103.043999 19.8274782,103.984124 20.4796652,104.908677 L21.4611936,106.298427 L19.8268286,106.777249 Z M14.3462495,92.9452793 L13.8330745,91.7560116 C13.4225345,90.8035593 13.0269351,89.827101 12.6592679,88.8538868 L12.2916008,87.8845654 L13.2075207,87.3596786 C13.3543277,87.2746845 13.4965876,87.1819048 13.6323516,87.0800417 L17.9020976,83.8645419 C18.1632322,83.6692503 18.5094629,83.6335658 18.8050257,83.7730598 C19.1005886,83.9125538 19.2922172,84.2019229 19.3058586,84.528274 L19.3331413,85.1764347 C19.4747516,88.5340237 18.1495908,91.0176664 15.5025172,92.3587556 L14.3462495,92.9452793 Z M11.9395237,93.2975829 C11.8713169,93.3001781 11.8277945,93.3021245 11.784272,93.3021245 C9.14629271,93.3021245 6.68630065,91.7566604 4.67062719,88.8324761 L4.17499108,88.1135952 C3.96777232,87.8138452 3.96712273,87.4258571 4.17109355,87.1248095 C4.37571396,86.8237619 4.738834,86.6810239 5.0922102,86.762125 L9.94268834,87.8663988 C10.2135668,87.9280357 10.500685,87.9637202 10.7962478,87.9715059 L11.618627,87.9922678 L11.9063947,88.7624047 C12.2630189,89.7193986 12.6436778,90.6757438 13.0386277,91.6054878 L13.7460296,93.2716305 L11.9395237,93.2975829 Z M9.21709787,76.0152449 C9.08068426,75.1717926 8.95726242,74.2803284 8.84878112,73.3661558 L8.741599,72.4584714 L9.58411543,72.102275 C9.76145312,72.0270131 9.9335941,71.942019 10.0998888,71.846644 L14.6645479,69.2293466 C14.9523157,69.064549 15.302444,69.07493 15.5804679,69.255299 C15.8578422,69.4363168 16.0085468,69.7529359 15.973469,70.0825311 L15.9033134,70.7462632 C15.562929,73.9319177 13.7869537,76.089858 10.7663667,76.9878103 L9.43665882,77.3829353 L9.21709787,76.0152449 Z M7.26768245,77.4173222 C5.15262194,77.292102 2.34380079,76.2708758 0.973818417,72.1217392 L0.738017752,71.4080488 C0.628886865,71.0778048 0.720478859,70.7255013 0.97706636,70.4893346 C1.23365386,70.253168 1.59352595,70.1908823 1.91377313,70.3264834 L6.08218324,72.0964357 C6.41672137,72.2378761 6.78243976,72.3390904 7.16829539,72.3968345 L8.08941204,72.5356797 L8.19659416,73.4589356 C8.30572505,74.3925724 8.41940305,75.228239 8.54282489,76.0132985 L8.77992473,77.5081555 L7.26768245,77.4173222 Z M7.90492888,61.4008115 L6.52260432,61.0504544 C3.76120314,60.3510378 1.98003117,58.2956093 1.37266582,55.1073596 L1.23170509,54.3664192 C1.16609665,54.023199 1.30251025,53.685818 1.58897883,53.4853359 C1.87479782,53.2848538 2.23856744,53.2699312 2.54062614,53.4496514 L6.66941134,55.8950143 C6.9227509,56.0455381 7.19882606,56.1720559 7.49114093,56.2719726 L8.43239483,56.5931333 L8.26415138,57.8862106 C8.24206536,58.0477641 8.21997935,58.2080201 8.20179087,58.3689248 C8.13878078,58.9061391 8.08421533,59.4446509 8.0348466,59.9831628 L7.90492888,61.4008115 Z M8.68898233,59.9273652 C8.76563378,59.1137581 8.85982413,58.2813355 8.97025419,57.4528058 L9.08263302,56.6002702 L9.92385027,56.4211988 C10.0888458,56.3868119 10.2518925,56.3433416 10.4110417,56.2881928 L14.7126175,54.8257763 C15.0328647,54.7148299 15.3790954,54.7972287 15.618144,55.0366394 C15.856543,55.2766989 15.9351433,55.6238119 15.8240636,55.9423774 L15.5934597,56.6022166 C14.6580521,59.2798533 12.7463128,60.8863056 10.0641614,61.2470436 L8.54542324,61.4514186 L8.68898233,59.9273652 Z M9.34571641,46.109021 C6.91170789,44.9690627 5.65345476,42.9168784 5.70737061,40.1737119 L5.72555909,39.2621346 C5.73205498,38.9344858 5.92368362,38.6535513 6.22639191,38.5276823 C6.52845061,38.399218 6.86363834,38.4621525 7.10138777,38.688587 L10.0180406,41.4512178 C10.314253,41.7328011 10.6520391,41.9741582 11.0203558,42.1700987 L11.9401733,42.6586522 L11.5997889,43.6415986 C11.399066,44.219039 11.2074374,44.797777 11.0229542,45.3765151 L10.6020208,46.6974912 L9.34571641,46.109021 Z M12.3507133,43.4949676 L12.6183438,42.737807 L13.4205858,42.6859022 C13.7538247,42.6644915 14.0870637,42.604801 14.4112084,42.509426 L17.8455834,41.494688 C18.1645314,41.399313 18.4912744,41.5011761 18.7036899,41.7542118 C18.9148062,42.0085451 18.9531319,42.3491701 18.8037266,42.6437296 L18.3795452,43.4774498 C17.2109353,45.7742353 15.379745,46.987509 13.0840989,46.987509 C13.01914,46.987509 12.9515828,46.9849138 12.8846752,46.9816697 L11.2925335,46.9239257 L11.706971,45.3992234 C11.9141898,44.756902 12.1279044,44.1249616 12.3507133,43.4949676 L12.3507133,43.4949676 Z M126.882929,61.2496389 C124.173495,60.8940913 122.242268,59.2856926 121.298416,56.5983238 L121.073008,55.9566512 C120.95998,55.6348417 121.03923,55.2838358 121.279578,55.041181 C121.519925,54.7991751 121.870703,54.7180739 122.192899,54.8257763 L126.504868,56.2830024 C126.671813,56.3394488 126.842654,56.3861631 127.014795,56.4224964 L127.859261,56.5989726 L127.972289,57.4528058 C128.082719,58.2806867 128.176909,59.1137581 128.25421,59.9293116 L128.39777,61.4481746 L126.882929,61.2496389 Z M125.903999,45.3830032 C125.718217,44.8029675 125.52334,44.2242295 125.321968,43.6461402 L124.977686,42.6586522 L125.903999,42.1707475 C126.274264,41.9754558 126.61335,41.7340987 126.911511,41.4531642 L129.805428,38.7301108 C130.052921,38.4965394 130.40175,38.4323073 130.716801,38.5646644 C131.030552,38.6957239 131.230625,38.9889858 131.237771,39.3296108 L131.255959,40.1548964 C131.316371,42.9142831 130.043178,44.9755508 127.57539,46.1168067 L126.324283,46.6942471 L125.903999,45.3830032 Z M124.105288,46.9771281 C123.970823,46.9836162 123.898069,46.9868602 123.828563,46.9868602 C121.516677,46.9868602 119.672495,45.7735865 118.495441,43.4768009 L118.105038,42.7163962 C117.947838,42.4095094 117.986813,42.0539618 118.207023,41.7885987 C118.427234,41.521938 118.768918,41.4194261 119.101507,41.5141523 L122.498206,42.5107236 C122.82365,42.6060986 123.159487,42.6651403 123.495974,42.6859022 L124.298216,42.7358605 L124.567795,43.4923724 C124.791903,44.123664 125.006267,44.753658 125.211537,45.3849496 L125.707823,46.9090031 L124.105288,46.9771281 Z M136.492943,69.8684239 L136.492943,69.8677751 C136.0863,69.5193644 135.481533,69.4259359 134.987196,69.6342037 L128.914193,72.1944059 L129.045409,70.225918 C129.20261,67.8610074 129.227294,65.4519779 129.118813,63.0637102 L129.071393,62.0139364 L130.105538,61.8147519 C133.717251,61.1205258 135.966776,58.409151 136.440326,54.1802108 C136.501387,53.6326157 136.251945,53.1057824 135.788789,52.8053836 C135.339273,52.5140681 134.726711,52.5010919 134.265503,52.7729431 L128.468575,56.1837345 L128.161969,54.4598477 C127.804695,52.4524312 127.338291,50.3924611 126.775747,48.3363839 L126.491227,47.2976399 L127.488346,46.8901876 C130.775264,45.5452056 132.322584,42.7585689 131.844487,39.0441346 C131.757442,38.3667775 131.235173,37.8607061 130.54531,37.7854442 C130.135419,37.7406764 129.709289,37.8970395 129.373452,38.2130097 L126.100175,41.2546285 L124.815288,42.2051344 L124.231958,40.7323369 C122.68074,36.8154741 120.763155,32.923266 118.532467,29.1653616 C118.486996,29.0881532 118.413593,29.0330044 118.326548,29.0109449 C118.239503,28.9882366 118.14921,29.0012128 118.073208,29.0466294 C117.993958,29.0939925 117.940692,29.1653616 117.917957,29.2535996 C117.895871,29.3405401 117.908213,29.4307246 117.954333,29.507933 C119.984947,32.9297541 121.751179,36.4443551 123.206257,39.9550631 L124.178692,42.3024558 L119.193749,40.8413369 C118.676026,40.6914619 118.083602,40.8536642 117.717883,41.2520333 C117.342421,41.661432 117.234589,42.236926 117.436611,42.7559736 C118.687719,45.9630389 120.898269,47.6590268 123.828563,47.6590268 C124.116981,47.6590268 124.440476,47.6369673 124.815938,47.5909018 L125.859177,47.464384 L126.137201,48.4758779 C126.641932,50.3061695 127.07066,52.1533301 127.412344,53.9661037 L127.79755,56.0098536 L122.242917,54.1334966 C121.748581,53.9641573 121.18084,54.0861335 120.794335,54.4416811 C120.405881,54.8011215 120.244783,55.344175 120.37535,55.8580322 C121.304912,59.5393771 123.782442,61.7109424 127.351932,61.9717638 L128.432198,62.0509186 L128.479618,63.1318352 C128.579005,65.3780136 128.55432,67.6728527 128.408163,69.9547156 L128.283442,71.8979 L122.422854,68.5617217 C121.981783,68.3099836 121.394555,68.3164717 120.95998,68.5766443 C120.514362,68.8426562 120.244133,69.3318585 120.257125,69.8528525 C120.31299,72.2151678 121.167199,76.379227 126.256076,77.7157745 L127.380514,78.0109829 L127.137568,79.1463994 C126.668565,81.3393755 126.064447,83.5699824 125.344054,85.7772323 L124.816588,87.3908214 L119.241818,83.2202741 C118.837774,82.9192265 118.258341,82.8511015 117.796483,83.0528813 C117.320985,83.2585539 116.990994,83.7068812 116.93383,84.222036 C116.481716,88.3264047 117.99201,91.4478271 121.187336,93.0108091 L122.280594,93.5454281 L121.745333,94.6380233 C120.930749,96.3009219 120.034966,97.9599278 119.082019,99.5689753 L118.414242,100.697255 L117.337224,99.94788 C117.016977,99.7253383 116.722064,99.4736003 116.46028,99.1998027 L113.06553,95.6449756 C112.730342,95.2939696 112.208073,95.129172 111.731275,95.2251958 C111.241485,95.3238149 110.842637,95.6611958 110.66465,96.1283386 C109.138766,100.115922 110.094311,103.545529 113.355896,105.785868 L114.423819,106.519022 L113.625475,107.538302 C112.558201,108.898856 111.427917,110.247082 110.265803,111.544052 L109.416141,112.491962 L108.506067,111.601147 C108.251428,111.353302 108.039663,111.111296 107.859077,110.862153 L104.687785,106.495016 C104.405214,106.107028 103.949203,105.892272 103.469157,105.899409 C102.960529,105.916278 102.527254,106.168665 102.286906,106.576766 C101.100107,108.592617 99.8431535,111.582331 100.596027,114.376754 C100.905231,115.522551 101.533383,116.530153 102.462944,117.371658 L103.484098,118.29751 L102.439559,119.195462 C101.08062,120.363968 99.6476273,121.52339 98.1815058,122.639991 L97.2532437,123.345896 L96.507516,122.451837 C96.0904801,121.952253 95.7617883,121.389736 95.5298851,120.779855 L93.6759592,115.900807 C93.5025191,115.445343 93.1160139,115.10926 92.640515,115.002206 C92.1695632,114.895153 91.6648329,115.037242 91.3205509,115.367486 C89.8531303,116.770212 87.3983349,119.612646 87.4360111,122.895622 C87.4535499,124.413836 87.9992044,125.864574 89.0573842,127.20761 L89.9154908,128.29761 L88.7228461,129.005461 C84.5336491,131.492348 80.0332993,133.764479 75.3465174,135.75827 L74.3195179,136.195568 L73.7940007,135.211973 C72.7065893,133.174711 70.6025718,131.909532 68.3023786,131.909532 C66.0002365,131.909532 63.8949199,133.176657 62.8081581,135.216514 L62.2819913,136.203353 L61.253043,135.763461 C56.5896464,133.765127 52.1165792,131.49105 47.9559642,129.003515 L46.7724137,128.295664 L47.6220756,127.210205 C48.6744092,125.866521 49.2168156,124.415783 49.2356537,122.898866 C49.2752786,119.623027 46.8432189,116.782539 45.3907387,115.381111 C44.9912417,114.996367 44.4124583,114.872444 43.8810948,115.062546 C43.4906921,115.201391 43.1710945,115.53423 43.0041502,115.976718 L41.1904988,120.781801 C40.9637924,121.384545 40.6415964,121.940575 40.2323556,122.436914 L39.4840295,123.345247 L38.5499211,122.628962 C37.0954922,121.513658 35.6754915,120.356831 34.3301935,119.19092 L33.2953988,118.294914 L34.3074579,117.372956 C35.2285745,116.534045 35.85153,115.530337 36.1600846,114.389081 C36.9103594,111.611528 35.6787394,108.635439 34.5133775,106.628022 C34.2658842,106.202403 33.824164,105.933796 33.333075,105.90979 C32.8445843,105.87735 32.3697351,106.113516 32.0852153,106.508641 L28.9438047,110.864099 C28.7677662,111.108052 28.5631458,111.344218 28.3176013,111.586873 L27.4049293,112.490665 L26.5500707,111.531076 C25.3989997,110.237998 24.2804081,108.894963 23.2248266,107.540248 L22.4264822,106.515129 L23.5028506,105.786516 C27.8765307,102.824052 27.050254,98.4724873 26.1681126,96.1419636 C25.962193,95.6002077 25.4717536,95.2427137 24.8884231,95.207678 C24.4622929,95.1849696 24.0335645,95.3718268 23.6990263,95.7241303 L20.4010649,99.1998027 C20.1503237,99.4658146 19.862556,99.7136598 19.5481551,99.9355526 L18.4665901,100.697904 L17.795565,99.5579455 C16.8504136,97.9508444 15.9617764,96.2944338 15.1530386,94.6334816 L14.6236239,93.5447793 L15.709736,93.0108091 C18.880378,91.4478271 20.3809277,88.3302975 19.9359595,84.2330657 C19.8800949,83.7159646 19.5494543,83.2676372 19.0733058,83.0613158 C18.6101492,82.8621313 18.0281178,82.9289587 17.6247232,83.2326015 L12.1045192,87.388875 L11.5770533,85.7642561 C10.8625058,83.5583039 10.2642347,81.3302921 9.79912926,79.1425066 L9.55813189,78.0109829 L10.6786722,77.7138281 C15.7266253,76.3766318 16.5762872,72.2203583 16.633451,69.861287 C16.6464428,69.3383466 16.3762139,68.8478466 15.9279978,68.5818348 C15.493423,68.322311 14.9055453,68.3190669 14.4651242,68.5695074 L8.66105002,71.8959536 L8.53697859,69.9443347 C8.39147074,67.665067 8.36808555,65.3728231 8.46617343,63.1311864 L8.5135934,62.0522162 L9.59256008,61.971115 C13.1334676,61.7076984 15.5921605,59.5374307 16.5158755,55.8599786 C16.6457932,55.3448239 16.4840456,54.8024191 16.0936429,54.4442763 C15.7084368,54.0893775 15.1406964,53.9693478 14.6450603,54.1380382 L9.14304476,56.0098536 L9.52695163,53.9635085 C9.86733606,52.1455443 10.2928166,50.300979 10.7917007,48.4797708 L11.069075,47.4663304 L12.1136135,47.5928483 C12.4799814,47.6382649 12.7969807,47.6596756 13.0840989,47.6596756 C15.995555,47.6596756 18.1918141,45.9636877 19.4357763,42.7553248 C19.6533885,42.1954022 19.5059318,41.5693011 19.0590149,41.1605511 C18.689399,40.8218726 18.1262056,40.7102773 17.5870471,40.8705333 L12.7385177,42.3037534 L13.7057552,39.9537655 C15.149141,36.4443551 16.9043295,32.9291053 18.9213021,29.5066353 C18.9667733,29.429427 18.9797651,29.3392425 18.9570295,29.2529508 C18.9349435,29.1660104 18.8797284,29.0933437 18.8024274,29.0472782 C18.7231776,29.0018616 18.6348335,28.9875878 18.5464895,29.0115937 C18.4600942,29.0336532 18.3873403,29.088802 18.3412195,29.1660104 C16.1287207,32.9206708 14.225426,36.8083372 12.685901,40.7206583 L12.1006217,42.2083784 L10.4675559,40.9516345 L7.5502535,38.1870573 C7.15790198,37.8159383 6.5745714,37.6952597 6.06594352,37.8762776 C5.55017017,38.0605395 5.18640055,38.5127597 5.11754415,39.0571108 C4.64789159,42.7644081 6.18481824,45.5458544 9.44510347,46.8895388 L10.4363757,47.2989376 L10.1557534,48.3337887 C9.59775679,50.3846754 9.13460011,52.4426991 8.77927514,54.4507644 L8.47266932,56.1824369 L2.81280377,52.8287407 C2.33405696,52.5439134 1.76371817,52.5114729 1.32459627,52.7437467 C0.791284018,53.0240324 0.489225314,53.5917407 0.555483353,54.1886454 C1.02708468,58.409151 3.26037032,61.1172818 6.8428515,61.8128055 L7.87439821,62.0132876 L7.82697824,63.0617637 C7.71979612,65.4454898 7.7438309,67.8538705 7.89973217,70.2194299 L8.02964989,72.1911619 L2.09890589,69.6757275 C1.5850813,69.459674 1.01604168,69.503793 0.611347973,69.7918644 C0.121558162,70.1422215 -0.101250731,70.7430191 0.0436075287,71.322406 C1.13751475,75.7005723 3.87423156,78.1108995 7.75097638,78.1108995 L8.90269698,78.0927328 L9.1066678,79.0750304 C9.55228559,81.2186969 10.1167781,83.3779348 10.7845552,85.4904585 L11.4237504,87.5140952 L5.04024311,86.0614108 C4.49458868,85.9342442 3.87942827,86.1632739 3.54748849,86.6219822 C3.20515529,87.0910714 3.17722298,87.7165238 3.47473456,88.2148095 C5.69632761,91.9285949 8.64740866,93.97494 11.784272,93.97494 C12.1941625,93.97494 12.6261389,93.937309 13.0691583,93.8646424 L13.9701377,93.7154162 L14.3676859,94.5432971 C15.1186104,96.1043327 15.9390408,97.659529 16.805592,99.1660646 L17.9956383,101.232523 L15.4654907,100.965862 L10.7105021,100.360523 C10.1726427,100.289803 9.61204774,100.548678 9.31323698,101.006088 C9.01247745,101.467392 9.00208404,102.070785 9.28660385,102.543118 C11.340603,105.948719 14.2104855,107.824427 17.3668366,107.824427 C18.5133605,107.824427 19.7274416,107.578528 20.9759509,107.093868 L21.8262624,106.764272 L22.3823102,107.486397 C23.3579923,108.752225 24.3973341,110.018701 25.4724032,111.251439 L27.0171249,113.021391 L18.686151,113.873927 C18.1957116,113.924534 17.7630856,114.167837 17.5292337,114.524682 C17.1368822,115.12548 17.2336709,115.910539 17.7598377,116.391956 C19.6637819,118.132063 22.7545245,120.205658 26.6637487,120.205658 C28.4247834,120.205658 30.1988099,119.772902 31.9377586,118.919069 L32.6717938,118.559629 L33.2830567,119.101384 C34.5107791,120.188789 35.8093068,121.276843 37.1435618,122.333753 L39.3703515,124.099164 L36.4036803,124.513104 L28.997071,125.344878 C28.1935299,125.435711 27.6322853,126.145509 27.7186806,126.959765 C27.7537584,127.291306 27.923301,127.612467 28.1961283,127.864205 C30.3488649,129.849562 33.7825903,132.217717 37.9172218,132.217717 C40.5623466,132.217717 43.1301704,131.221794 45.5485888,129.25655 L46.2170155,128.714146 L46.9517002,129.162473 C51.4293145,131.895907 56.2765447,134.375008 61.3582763,136.5323 L62.1501249,136.869032 L62.0975082,137.72546 C62.0897131,137.85652 62.0838668,137.988228 62.0838668,138.121234 C62.0838668,138.813514 62.1994936,139.496062 62.4268496,140.150061 L62.6106832,140.680139 L54.728575,154.128662 C54.5791696,154.383644 54.6064523,154.704156 54.7974314,154.926697 C54.98906,155.151834 55.3028113,155.23034 55.5769377,155.123287 L60.4754854,153.213191 L61.2043238,158.403667 C61.2452479,158.695631 61.4674072,158.929852 61.7571237,158.986298 C62.0494386,159.040798 62.3411039,158.90909 62.4879109,158.654108 L68.4576302,148.308192 L74.4273496,158.653459 C74.5748062,158.909739 74.8671211,159.04534 75.1574872,158.986298 C75.4485029,158.929852 75.6706622,158.69628 75.7109367,158.404965 L76.4404247,153.213191 L81.3389724,155.123287 C81.6143979,155.230989 81.9274996,155.152483 82.1178291,154.927995 C82.3081586,154.704156 82.3367405,154.383644 82.1886343,154.130608 L74.1220429,140.36871 L74.2701491,139.865234 C74.4364438,139.296877 74.5215399,138.711002 74.5215399,138.121234 C74.5215399,137.986931 74.5156936,137.853925 74.5065994,137.721568 L74.4513843,136.859949 L75.24778,136.523217 C80.3678374,134.36333 85.2449487,131.884878 89.7420506,129.157283 L90.474137,128.713497 L91.1399653,129.25136 C93.5772218,131.219199 96.163234,132.217068 98.8278465,132.217068 C102.988462,132.217068 106.442974,129.851509 108.608702,127.868098 C108.883478,127.61636 109.05367,127.295199 109.090047,126.96236 C109.178391,126.145509 108.616497,125.434414 107.811007,125.345527 L100.219265,124.494938 L97.4935915,124.055694 L99.6060536,122.333753 C100.950052,121.275545 102.258974,120.186843 103.499038,119.095545 L104.109002,118.558331 L104.839139,118.915176 C106.593029,119.771605 108.381996,120.205658 110.157321,120.205658 C114.049007,120.205658 117.135202,118.170992 119.039146,116.464623 C119.416557,116.125944 119.621178,115.660099 119.58675,115.218909 C119.532184,114.516897 118.98588,113.955677 118.288222,113.884308 L109.800048,113.020742 L111.358411,111.247546 C112.440625,110.014808 113.488412,108.747683 114.471889,107.47926 L115.027937,106.762326 L115.874351,107.089975 C117.135202,107.576582 118.360976,107.823778 119.516594,107.823778 C122.693082,107.823778 125.580504,105.949368 127.648144,102.545064 C127.934613,102.074029 127.925519,101.469987 127.624759,101.007386 C127.32335,100.543487 126.776396,100.2911 126.228144,100.359225 L121.444573,100.963916 C121.400401,100.969755 121.347135,100.974945 121.294518,100.978838 L118.976136,101.176076 L120.078488,99.1673622 C120.953484,97.6575826 121.779761,96.099791 122.53848,94.5335649 L122.934729,93.7134698 L123.83376,93.8626959 C124.282626,93.9366602 124.721748,93.97494 125.136835,93.97494 C128.293835,93.97494 131.263755,91.9298925 133.498989,88.2167559 C133.799099,87.719119 133.772466,87.0936667 133.432081,86.622631 C133.100142,86.1645715 132.485631,85.9329465 131.939327,86.0588156 L125.497356,87.514744 L126.141099,85.4917561 C126.814722,83.3746908 127.383112,81.2154528 127.831328,79.073084 L128.036598,78.0933817 L129.159737,78.1096019 C133.08715,78.1096019 135.855696,75.6986259 136.95545,71.3198107 C137.090564,70.7832453 136.913227,70.2272156 136.492943,69.8684239 L136.492943,69.8684239 Z" id="Fill-37" fill="#c75d76"></path>
                <path d="M136.239603,71.4696857 L136.02394,72.1178464 C134.642914,76.2780127 131.80746,77.2966436 129.671613,77.4186198 L128.161319,77.5062091 L128.399069,76.0139473 C128.519892,75.252245 128.63422,74.4172272 128.746599,73.4589356 L128.85573,72.5356797 L129.776846,72.3987809 C130.169847,72.340388 130.539463,72.2391738 130.875301,72.0970845 L135.024223,70.3478941 C135.357462,70.2090489 135.729027,70.2726322 135.993409,70.5172334 C136.259091,70.7618346 136.353281,71.1271143 136.239603,71.4696857 Z M127.721548,76.0210842 L127.500688,77.3809889 L126.176826,76.9930008 C123.12246,76.0976437 121.327647,73.9338641 120.986613,70.7358822 L120.922304,70.1350846 C120.886576,69.7951085 121.041828,69.4674597 121.328297,69.2806026 C121.615415,69.0937454 121.977236,69.0807692 122.275397,69.2507573 L126.838757,71.8492393 C127.005701,71.9439655 127.177842,72.0289595 127.35518,72.1035726 L128.202243,72.4578226 L128.093762,73.3687511 C127.98723,74.2634593 127.862509,75.1555724 127.721548,76.0210842 Z M128.510798,56.5944309 L129.452701,56.273919 C129.749563,56.1727047 130.029536,56.0455381 130.284824,55.8950143 L134.440892,53.4490026 C134.74425,53.2699312 135.112567,53.2848538 135.400335,53.4872823 C135.688752,53.6903597 135.826465,54.0309847 135.760856,54.3768001 L135.623144,55.0976274 C135.011231,58.2988534 133.211221,60.3594723 130.41799,61.054996 L129.040862,61.3982163 L128.910295,59.9870556 C128.858328,59.4303771 128.801164,58.872401 128.734906,58.3144248 C128.718666,58.1749308 128.699828,58.0341391 128.679691,57.8939963 L128.510798,56.5944309 Z M126.124859,87.9708571 C126.422371,87.964369 126.714036,87.9286845 126.992709,87.86575 L131.774331,86.7841846 C132.148494,86.7017858 132.527204,86.8510119 132.740919,87.1669822 C132.955283,87.4848988 132.952685,87.8923511 132.734423,88.2070237 L132.300498,88.8331249 C130.270534,91.7573092 127.793652,93.3027734 125.136835,93.3027734 C125.086167,93.3027734 125.034849,93.3001781 124.982882,93.2975829 L123.271216,93.1944222 L123.869487,91.6119759 C124.272882,90.6673093 124.656139,89.7103153 125.012763,88.7598094 L125.30183,87.9903214 L126.124859,87.9708571 Z M122.560566,92.9439817 L121.409495,92.3678389 C118.727994,91.0267497 117.388542,88.5346725 117.535998,85.1615121 L117.560033,84.6002919 C117.574974,84.2590181 117.776346,83.9553753 118.0862,83.8093931 C118.394755,83.6627622 118.757875,83.6990955 119.032001,83.9041193 L123.277712,87.0787441 C123.421271,87.1870952 123.570677,87.2824702 123.72333,87.3700595 L124.627557,87.8865119 L124.257292,88.8584285 C123.887026,89.8290474 123.488828,90.8068033 123.072442,91.7644461 L122.560566,92.9439817 Z M119.52309,101.57185 C120.196713,101.696422 120.852798,101.715886 121.529669,101.630243 L126.321035,101.024904 C126.633487,100.984029 126.935546,101.128713 127.099892,101.401862 C127.264237,101.675011 127.252545,102.005904 127.068062,102.266725 L126.510715,103.055029 C124.615215,105.735261 122.196797,107.15226 119.516594,107.15226 C118.731891,107.15226 117.898469,107.025743 117.037764,106.775951 L115.394305,106.297778 L116.385577,104.903487 C117.035815,103.988665 117.672412,103.04854 118.277829,102.109713 L118.720198,101.42457 L119.52309,101.57185 Z M114.838907,105.961046 L113.863224,105.322618 C110.943973,103.412523 109.965693,100.573981 111.034266,97.1138802 L111.247981,96.4222493 C111.331778,96.1503981 111.547441,95.9492672 111.824166,95.8843863 C112.099591,95.8208029 112.382812,95.9032017 112.578988,96.1095231 L115.972439,99.6630526 C116.295284,100.001082 116.663601,100.308618 117.066995,100.577225 L118.069311,101.24485 L117.411927,102.2531 C116.803262,103.186737 116.166016,104.115832 115.519675,105.014433 L114.838907,105.961046 Z M110.302829,113.52876 C110.834193,113.727944 111.385044,113.857058 111.938493,113.913504 L117.868588,114.517546 C118.256392,114.556474 118.565596,114.814051 118.674727,115.187117 C118.784508,115.560831 118.663684,115.943629 118.359027,116.185635 L117.826365,116.609307 C115.422887,118.521998 112.771266,119.533492 110.157321,119.533492 C108.917906,119.533492 107.655106,119.303813 106.403349,118.848998 L104.555269,118.17748 L106.068811,116.740367 C106.473504,116.355623 106.851565,115.996182 107.22248,115.629605 C107.825298,115.034647 108.415125,114.433849 108.993908,113.827861 L109.549306,113.247177 L110.302829,113.52876 Z M104.038846,117.793385 L103.219065,117.132897 C102.215451,116.323182 101.551572,115.336343 101.245615,114.200927 C100.618113,111.872349 101.574957,109.324475 102.487629,107.597344 L102.650675,107.28851 C102.813073,106.980975 103.11773,106.783088 103.46461,106.758433 C103.814738,106.731183 104.141481,106.886897 104.346102,107.167832 L107.314722,111.256629 C107.535582,111.56157 107.792819,111.85548 108.079937,112.130575 L108.963378,112.976623 L108.113066,113.854462 C107.057485,114.943813 105.947338,116.028623 104.812506,117.079045 L104.038846,117.793385 Z M97.9509019,124.465741 C98.6823386,124.849836 99.4657425,125.091194 100.279677,125.180729 L107.362142,125.970979 C107.748647,126.013801 108.057201,126.272027 108.168281,126.644443 C108.279361,127.016211 108.161785,127.400955 107.861675,127.648152 L107.375783,128.048467 C105.440009,129.643241 102.385643,131.544901 98.8278465,131.544901 C96.6634172,131.544901 94.5340658,130.833157 92.4995543,129.429783 L91.00615,128.400122 L92.5261874,127.40939 C93.9169566,126.504301 95.3103242,125.54536 96.6673148,124.558521 L97.2798768,124.114086 L97.9509019,124.465741 Z M89.8485831,127.112235 C88.7111535,125.797098 88.1258742,124.376206 88.1089849,122.887188 C88.0778046,120.249777 89.8115566,117.884867 91.2718318,116.365355 L91.5634971,116.061712 C91.7908531,115.824897 92.1188953,115.725629 92.4397921,115.789212 C92.7613385,115.854742 93.0231227,116.076635 93.139399,116.383522 L94.9004338,121.018616 C95.136884,121.641474 95.4707726,122.2267 95.8930052,122.760021 L96.6894008,123.764378 L95.6442127,124.505967 C94.3021627,125.460366 92.8828115,126.414765 91.4251347,127.342562 L90.5371471,127.907675 L89.8485831,127.112235 Z M81.6345352,154.516001 L76.7080552,152.596174 C76.5099306,152.519614 76.2903697,152.536483 76.1058865,152.644186 C75.9227025,152.75059 75.8012295,152.933555 75.7713484,153.143769 L75.0373133,158.365387 L69.0591493,148.004549 C68.811656,147.573739 68.104254,147.574388 67.8587096,148.001305 L61.8779472,158.366685 L61.1445617,153.141822 C61.1153302,152.932906 60.992558,152.749941 60.8080748,152.642239 C60.6248908,152.535186 60.4072786,152.518316 60.2085045,152.596174 L55.2800757,154.518596 L62.8893567,141.534621 L64.0040507,142.602561 C65.1687631,143.717865 66.6952964,144.332936 68.3023786,144.332936 C69.9958561,144.332936 71.5815019,143.660121 72.7663515,142.439061 L73.8816951,141.288722 L81.6345352,154.516001 Z M68.3023786,132.581699 C71.3606417,132.581699 73.8485661,135.066639 73.8485661,138.121234 C73.8485661,141.176478 71.3606417,143.661418 68.3023786,143.661418 C65.244765,143.661418 62.756191,141.176478 62.756191,138.121234 C62.756191,135.066639 65.244765,132.581699 68.3023786,132.581699 Z M46.1546549,127.905729 L45.2614706,127.334128 C43.8330253,126.418658 42.4260163,125.466854 41.0800687,124.503372 L40.0439749,123.761783 L40.8325755,122.761319 C41.2522097,122.229944 41.5847991,121.64342 41.8205997,121.017968 L43.6400974,116.196016 C43.7407837,115.930653 43.9661909,115.739254 44.2435653,115.683456 C44.5215892,115.628307 44.802861,115.715897 44.9983872,115.92092 L45.4381587,116.382873 C46.880895,117.899141 48.5945098,120.258861 48.5626799,122.891729 C48.545141,124.37361 47.9670072,125.789961 46.844518,127.100557 L46.1546549,127.905729 Z M44.2052395,129.427836 C42.1837198,130.833157 40.0680097,131.54555 37.9172218,131.54555 C34.3808614,131.54555 31.346633,129.641943 29.4238507,128.045223 L28.7015082,127.445723 C28.4455703,127.232914 28.3455336,126.90267 28.4410232,126.583455 C28.5365127,126.264241 28.8015448,126.042997 29.132835,126.006015 L36.4757847,125.182027 C37.2825737,125.091194 38.0581825,124.851783 38.7811746,124.470283 L39.454798,124.115384 L40.0693089,124.565009 C41.4172052,125.550551 42.7995298,126.508842 44.1779568,127.412634 L45.6850024,128.400122 L44.2052395,129.427836 Z M32.7458469,117.793385 L31.9669901,117.068016 C30.8380051,116.014998 29.7369524,114.932135 28.6950123,113.849272 L27.8531455,112.974677 L28.7274917,112.131873 C29.0126611,111.856129 29.2692486,111.562218 29.4901088,111.25598 L32.6016382,106.943344 C32.7679329,106.711719 33.036213,106.592987 33.3226816,106.605314 C33.607851,106.626076 33.857293,106.789576 33.9898091,107.041963 L34.289919,107.616159 C35.1928472,109.34329 36.1379986,111.889867 35.5111456,114.214552 C35.2071381,115.336992 34.5543016,116.314099 33.5695252,117.119272 L32.7458469,117.793385 Z M30.3917378,118.848998 C29.1490747,119.303813 27.8947191,119.53414 26.6637487,119.53414 C24.0653943,119.53414 21.4300133,118.521998 19.0434248,116.605414 L18.2834061,115.995534 C18.0203227,115.78467 17.9157389,115.45248 18.0112285,115.128075 C18.1073676,114.804319 18.3756477,114.581129 18.7121346,114.546742 L24.8942694,113.914153 C25.4431717,113.857706 25.9868774,113.729891 26.5110954,113.533302 L27.2672165,113.248474 L27.8232644,113.834349 C28.392304,114.432552 28.9717371,115.02751 29.5628627,115.61598 C29.9662572,116.016295 30.378746,116.410772 30.7912348,116.805248 L32.1969445,118.149581 L30.3917378,118.848998 Z M22.0185406,105.961695 L21.3345238,105.00535 C20.6933798,104.107398 20.0619797,103.1796 19.4585119,102.248558 L18.8076241,101.24485 L19.8021443,100.577225 C20.2016412,100.309267 20.5680092,100.001731 20.8895556,99.6624038 L24.2193468,96.1523446 C24.422668,95.9388863 24.7143333,95.8506482 25.0014515,95.919422 C25.2879201,95.9862493 25.5107289,96.1945172 25.5958251,96.4761005 L25.7965479,97.1333445 C26.8456335,100.577874 25.8783961,103.406034 22.9994194,105.312237 L22.0185406,105.961695 Z M19.8268286,106.777249 L19.8268286,106.7766 C18.975218,107.026391 18.1482917,107.152909 17.3668366,107.152909 C14.7048224,107.152909 12.3026438,105.735261 10.420136,103.052433 L9.90046508,102.311493 C9.71208439,102.043535 9.70039179,101.702261 9.86993442,101.420678 C10.0401266,101.139094 10.3486812,100.992463 10.6741251,101.032689 L15.3680524,101.630243 C16.0273848,101.713939 16.6938628,101.695773 17.3512464,101.573148 L18.1580355,101.423922 L18.5991061,102.114255 C19.1947789,103.043999 19.8274782,103.984124 20.4796652,104.908677 L21.4611936,106.298427 L19.8268286,106.777249 Z M14.3462495,92.9452793 L13.8330745,91.7560116 C13.4225345,90.8035593 13.0269351,89.827101 12.6592679,88.8538868 L12.2916008,87.8845654 L13.2075207,87.3596786 C13.3543277,87.2746845 13.4965876,87.1819048 13.6323516,87.0800417 L17.9020976,83.8645419 C18.1632322,83.6692503 18.5094629,83.6335658 18.8050257,83.7730598 C19.1005886,83.9125538 19.2922172,84.2019229 19.3058586,84.528274 L19.3331413,85.1764347 C19.4747516,88.5340237 18.1495908,91.0176664 15.5025172,92.3587556 L14.3462495,92.9452793 Z M11.9395237,93.2975829 C11.8713169,93.3001781 11.8277945,93.3021245 11.784272,93.3021245 C9.14629271,93.3021245 6.68630065,91.7566604 4.67062719,88.8324761 L4.17499108,88.1135952 C3.96777232,87.8138452 3.96712273,87.4258571 4.17109355,87.1248095 C4.37571396,86.8237619 4.738834,86.6810239 5.0922102,86.762125 L9.94268834,87.8663988 C10.2135668,87.9280357 10.500685,87.9637202 10.7962478,87.9715059 L11.618627,87.9922678 L11.9063947,88.7624047 C12.2630189,89.7193986 12.6436778,90.6757438 13.0386277,91.6054878 L13.7460296,93.2716305 L11.9395237,93.2975829 Z M9.21709787,76.0152449 C9.08068426,75.1717926 8.95726242,74.2803284 8.84878112,73.3661558 L8.741599,72.4584714 L9.58411543,72.102275 C9.76145312,72.0270131 9.9335941,71.942019 10.0998888,71.846644 L14.6645479,69.2293466 C14.9523157,69.064549 15.302444,69.07493 15.5804679,69.255299 C15.8578422,69.4363168 16.0085468,69.7529359 15.973469,70.0825311 L15.9033134,70.7462632 C15.562929,73.9319177 13.7869537,76.089858 10.7663667,76.9878103 L9.43665882,77.3829353 L9.21709787,76.0152449 Z M7.26768245,77.4173222 C5.15262194,77.292102 2.34380079,76.2708758 0.973818417,72.1217392 L0.738017752,71.4080488 C0.628886865,71.0778048 0.720478859,70.7255013 0.97706636,70.4893346 C1.23365386,70.253168 1.59352595,70.1908823 1.91377313,70.3264834 L6.08218324,72.0964357 C6.41672137,72.2378761 6.78243976,72.3390904 7.16829539,72.3968345 L8.08941204,72.5356797 L8.19659416,73.4589356 C8.30572505,74.3925724 8.41940305,75.228239 8.54282489,76.0132985 L8.77992473,77.5081555 L7.26768245,77.4173222 Z M7.90492888,61.4008115 L6.52260432,61.0504544 C3.76120314,60.3510378 1.98003117,58.2956093 1.37266582,55.1073596 L1.23170509,54.3664192 C1.16609665,54.023199 1.30251025,53.685818 1.58897883,53.4853359 C1.87479782,53.2848538 2.23856744,53.2699312 2.54062614,53.4496514 L6.66941134,55.8950143 C6.9227509,56.0455381 7.19882606,56.1720559 7.49114093,56.2719726 L8.43239483,56.5931333 L8.26415138,57.8862106 C8.24206536,58.0477641 8.21997935,58.2080201 8.20179087,58.3689248 C8.13878078,58.9061391 8.08421533,59.4446509 8.0348466,59.9831628 L7.90492888,61.4008115 Z M8.68898233,59.9273652 C8.76563378,59.1137581 8.85982413,58.2813355 8.97025419,57.4528058 L9.08263302,56.6002702 L9.92385027,56.4211988 C10.0888458,56.3868119 10.2518925,56.3433416 10.4110417,56.2881928 L14.7126175,54.8257763 C15.0328647,54.7148299 15.3790954,54.7972287 15.618144,55.0366394 C15.856543,55.2766989 15.9351433,55.6238119 15.8240636,55.9423774 L15.5934597,56.6022166 C14.6580521,59.2798533 12.7463128,60.8863056 10.0641614,61.2470436 L8.54542324,61.4514186 L8.68898233,59.9273652 Z M9.34571641,46.109021 C6.91170789,44.9690627 5.65345476,42.9168784 5.70737061,40.1737119 L5.72555909,39.2621346 C5.73205498,38.9344858 5.92368362,38.6535513 6.22639191,38.5276823 C6.52845061,38.399218 6.86363834,38.4621525 7.10138777,38.688587 L10.0180406,41.4512178 C10.314253,41.7328011 10.6520391,41.9741582 11.0203558,42.1700987 L11.9401733,42.6586522 L11.5997889,43.6415986 C11.399066,44.219039 11.2074374,44.797777 11.0229542,45.3765151 L10.6020208,46.6974912 L9.34571641,46.109021 Z M12.3507133,43.4949676 L12.6183438,42.737807 L13.4205858,42.6859022 C13.7538247,42.6644915 14.0870637,42.604801 14.4112084,42.509426 L17.8455834,41.494688 C18.1645314,41.399313 18.4912744,41.5011761 18.7036899,41.7542118 C18.9148062,42.0085451 18.9531319,42.3491701 18.8037266,42.6437296 L18.3795452,43.4774498 C17.2109353,45.7742353 15.379745,46.987509 13.0840989,46.987509 C13.01914,46.987509 12.9515828,46.9849138 12.8846752,46.9816697 L11.2925335,46.9239257 L11.706971,45.3992234 C11.9141898,44.756902 12.1279044,44.1249616 12.3507133,43.4949676 Z M126.882929,61.2496389 C124.173495,60.8940913 122.242268,59.2856926 121.298416,56.5983238 L121.073008,55.9566512 C120.95998,55.6348417 121.03923,55.2838358 121.279578,55.041181 C121.519925,54.7991751 121.870703,54.7180739 122.192899,54.8257763 L126.504868,56.2830024 C126.671813,56.3394488 126.842654,56.3861631 127.014795,56.4224964 L127.859261,56.5989726 L127.972289,57.4528058 C128.082719,58.2806867 128.176909,59.1137581 128.25421,59.9293116 L128.39777,61.4481746 L126.882929,61.2496389 Z M125.903999,45.3830032 C125.718217,44.8029675 125.52334,44.2242295 125.321968,43.6461402 L124.977686,42.6586522 L125.903999,42.1707475 C126.274264,41.9754558 126.61335,41.7340987 126.911511,41.4531642 L129.805428,38.7301108 C130.052921,38.4965394 130.40175,38.4323073 130.716801,38.5646644 C131.030552,38.6957239 131.230625,38.9889858 131.237771,39.3296108 L131.255959,40.1548964 C131.316371,42.9142831 130.043178,44.9755508 127.57539,46.1168067 L126.324283,46.6942471 L125.903999,45.3830032 Z M124.105288,46.9771281 C123.970823,46.9836162 123.898069,46.9868602 123.828563,46.9868602 C121.516677,46.9868602 119.672495,45.7735865 118.495441,43.4768009 L118.105038,42.7163962 C117.947838,42.4095094 117.986813,42.0539618 118.207023,41.7885987 C118.427234,41.521938 118.768918,41.4194261 119.101507,41.5141523 L122.498206,42.5107236 C122.82365,42.6060986 123.159487,42.6651403 123.495974,42.6859022 L124.298216,42.7358605 L124.567795,43.4923724 C124.791903,44.123664 125.006267,44.753658 125.211537,45.3849496 L125.707823,46.9090031 L124.105288,46.9771281 Z M136.492943,69.8684239 L136.492943,69.8677751 C136.0863,69.5193644 135.481533,69.4259359 134.987196,69.6342037 L128.914193,72.1944059 L129.045409,70.225918 C129.20261,67.8610074 129.227294,65.4519779 129.118813,63.0637102 L129.071393,62.0139364 L130.105538,61.8147519 C133.717251,61.1205258 135.966776,58.409151 136.440326,54.1802108 C136.501387,53.6326157 136.251945,53.1057824 135.788789,52.8053836 C135.339273,52.5140681 134.726711,52.5010919 134.265503,52.7729431 L128.468575,56.1837345 L128.161969,54.4598477 C127.804695,52.4524312 127.338291,50.3924611 126.775747,48.3363839 L126.491227,47.2976399 L127.488346,46.8901876 C130.775264,45.5452056 132.322584,42.7585689 131.844487,39.0441346 C131.757442,38.3667775 131.235173,37.8607061 130.54531,37.7854442 C130.135419,37.7406764 129.709289,37.8970395 129.373452,38.2130097 L126.100175,41.2546285 L124.815288,42.2051344 L124.231958,40.7323369 C122.68074,36.8154741 120.763155,32.923266 118.532467,29.1653616 C118.486996,29.0881532 118.413593,29.0330044 118.326548,29.0109449 C118.239503,28.9882366 118.14921,29.0012128 118.073208,29.0466294 C117.993958,29.0939925 117.940692,29.1653616 117.917957,29.2535996 C117.895871,29.3405401 117.908213,29.4307246 117.954333,29.507933 C119.984947,32.9297541 121.751179,36.4443551 123.206257,39.9550631 L124.178692,42.3024558 L119.193749,40.8413369 C118.676026,40.6914619 118.083602,40.8536642 117.717883,41.2520333 C117.342421,41.661432 117.234589,42.236926 117.436611,42.7559736 C118.687719,45.9630389 120.898269,47.6590268 123.828563,47.6590268 C124.116981,47.6590268 124.440476,47.6369673 124.815938,47.5909018 L125.859177,47.464384 L126.137201,48.4758779 C126.641932,50.3061695 127.07066,52.1533301 127.412344,53.9661037 L127.79755,56.0098536 L122.242917,54.1334966 C121.748581,53.9641573 121.18084,54.0861335 120.794335,54.4416811 C120.405881,54.8011215 120.244783,55.344175 120.37535,55.8580322 C121.304912,59.5393771 123.782442,61.7109424 127.351932,61.9717638 L128.432198,62.0509186 L128.479618,63.1318352 C128.579005,65.3780136 128.55432,67.6728527 128.408163,69.9547156 L128.283442,71.8979 L122.422854,68.5617217 C121.981783,68.3099836 121.394555,68.3164717 120.95998,68.5766443 C120.514362,68.8426562 120.244133,69.3318585 120.257125,69.8528525 C120.31299,72.2151678 121.167199,76.379227 126.256076,77.7157745 L127.380514,78.0109829 L127.137568,79.1463994 C126.668565,81.3393755 126.064447,83.5699824 125.344054,85.7772323 L124.816588,87.3908214 L119.241818,83.2202741 C118.837774,82.9192265 118.258341,82.8511015 117.796483,83.0528813 C117.320985,83.2585539 116.990994,83.7068812 116.93383,84.222036 C116.481716,88.3264047 117.99201,91.4478271 121.187336,93.0108091 L122.280594,93.5454281 L121.745333,94.6380233 C120.930749,96.3009219 120.034966,97.9599278 119.082019,99.5689753 L118.414242,100.697255 L117.337224,99.94788 C117.016977,99.7253383 116.722064,99.4736003 116.46028,99.1998027 L113.06553,95.6449756 C112.730342,95.2939696 112.208073,95.129172 111.731275,95.2251958 C111.241485,95.3238149 110.842637,95.6611958 110.66465,96.1283386 C109.138766,100.115922 110.094311,103.545529 113.355896,105.785868 L114.423819,106.519022 L113.625475,107.538302 C112.558201,108.898856 111.427917,110.247082 110.265803,111.544052 L109.416141,112.491962 L108.506067,111.601147 C108.251428,111.353302 108.039663,111.111296 107.859077,110.862153 L104.687785,106.495016 C104.405214,106.107028 103.949203,105.892272 103.469157,105.899409 C102.960529,105.916278 102.527254,106.168665 102.286906,106.576766 C101.100107,108.592617 99.8431535,111.582331 100.596027,114.376754 C100.905231,115.522551 101.533383,116.530153 102.462944,117.371658 L103.484098,118.29751 L102.439559,119.195462 C101.08062,120.363968 99.6476273,121.52339 98.1815058,122.639991 L97.2532437,123.345896 L96.507516,122.451837 C96.0904801,121.952253 95.7617883,121.389736 95.5298851,120.779855 L93.6759592,115.900807 C93.5025191,115.445343 93.1160139,115.10926 92.640515,115.002206 C92.1695632,114.895153 91.6648329,115.037242 91.3205509,115.367486 C89.8531303,116.770212 87.3983349,119.612646 87.4360111,122.895622 C87.4535499,124.413836 87.9992044,125.864574 89.0573842,127.20761 L89.9154908,128.29761 L88.7228461,129.005461 C84.5336491,131.492348 80.0332993,133.764479 75.3465174,135.75827 L74.3195179,136.195568 L73.7940007,135.211973 C72.7065893,133.174711 70.6025718,131.909532 68.3023786,131.909532 C66.0002365,131.909532 63.8949199,133.176657 62.8081581,135.216514 L62.2819913,136.203353 L61.253043,135.763461 C56.5896464,133.765127 52.1165792,131.49105 47.9559642,129.003515 L46.7724137,128.295664 L47.6220756,127.210205 C48.6744092,125.866521 49.2168156,124.415783 49.2356537,122.898866 C49.2752786,119.623027 46.8432189,116.782539 45.3907387,115.381111 C44.9912417,114.996367 44.4124583,114.872444 43.8810948,115.062546 C43.4906921,115.201391 43.1710945,115.53423 43.0041502,115.976718 L41.1904988,120.781801 C40.9637924,121.384545 40.6415964,121.940575 40.2323556,122.436914 L39.4840295,123.345247 L38.5499211,122.628962 C37.0954922,121.513658 35.6754915,120.356831 34.3301935,119.19092 L33.2953988,118.294914 L34.3074579,117.372956 C35.2285745,116.534045 35.85153,115.530337 36.1600846,114.389081 C36.9103594,111.611528 35.6787394,108.635439 34.5133775,106.628022 C34.2658842,106.202403 33.824164,105.933796 33.333075,105.90979 C32.8445843,105.87735 32.3697351,106.113516 32.0852153,106.508641 L28.9438047,110.864099 C28.7677662,111.108052 28.5631458,111.344218 28.3176013,111.586873 L27.4049293,112.490665 L26.5500707,111.531076 C25.3989997,110.237998 24.2804081,108.894963 23.2248266,107.540248 L22.4264822,106.515129 L23.5028506,105.786516 C27.8765307,102.824052 27.050254,98.4724873 26.1681126,96.1419636 C25.962193,95.6002077 25.4717536,95.2427137 24.8884231,95.207678 C24.4622929,95.1849696 24.0335645,95.3718268 23.6990263,95.7241303 L20.4010649,99.1998027 C20.1503237,99.4658146 19.862556,99.7136598 19.5481551,99.9355526 L18.4665901,100.697904 L17.795565,99.5579455 C16.8504136,97.9508444 15.9617764,96.2944338 15.1530386,94.6334816 L14.6236239,93.5447793 L15.709736,93.0108091 C18.880378,91.4478271 20.3809277,88.3302975 19.9359595,84.2330657 C19.8800949,83.7159646 19.5494543,83.2676372 19.0733058,83.0613158 C18.6101492,82.8621313 18.0281178,82.9289587 17.6247232,83.2326015 L12.1045192,87.388875 L11.5770533,85.7642561 C10.8625058,83.5583039 10.2642347,81.3302921 9.79912926,79.1425066 L9.55813189,78.0109829 L10.6786722,77.7138281 C15.7266253,76.3766318 16.5762872,72.2203583 16.633451,69.861287 C16.6464428,69.3383466 16.3762139,68.8478466 15.9279978,68.5818348 C15.493423,68.322311 14.9055453,68.3190669 14.4651242,68.5695074 L8.66105002,71.8959536 L8.53697859,69.9443347 C8.39147074,67.665067 8.36808555,65.3728231 8.46617343,63.1311864 L8.5135934,62.0522162 L9.59256008,61.971115 C13.1334676,61.7076984 15.5921605,59.5374307 16.5158755,55.8599786 C16.6457932,55.3448239 16.4840456,54.8024191 16.0936429,54.4442763 C15.7084368,54.0893775 15.1406964,53.9693478 14.6450603,54.1380382 L9.14304476,56.0098536 L9.52695163,53.9635085 C9.86733606,52.1455443 10.2928166,50.300979 10.7917007,48.4797708 L11.069075,47.4663304 L12.1136135,47.5928483 C12.4799814,47.6382649 12.7969807,47.6596756 13.0840989,47.6596756 C15.995555,47.6596756 18.1918141,45.9636877 19.4357763,42.7553248 C19.6533885,42.1954022 19.5059318,41.5693011 19.0590149,41.1605511 C18.689399,40.8218726 18.1262056,40.7102773 17.5870471,40.8705333 L12.7385177,42.3037534 L13.7057552,39.9537655 C15.149141,36.4443551 16.9043295,32.9291053 18.9213021,29.5066353 C18.9667733,29.429427 18.9797651,29.3392425 18.9570295,29.2529508 C18.9349435,29.1660104 18.8797284,29.0933437 18.8024274,29.0472782 C18.7231776,29.0018616 18.6348335,28.9875878 18.5464895,29.0115937 C18.4600942,29.0336532 18.3873403,29.088802 18.3412195,29.1660104 C16.1287207,32.9206708 14.225426,36.8083372 12.685901,40.7206583 L12.1006217,42.2083784 L10.4675559,40.9516345 L7.5502535,38.1870573 C7.15790198,37.8159383 6.5745714,37.6952597 6.06594352,37.8762776 C5.55017017,38.0605395 5.18640055,38.5127597 5.11754415,39.0571108 C4.64789159,42.7644081 6.18481824,45.5458544 9.44510347,46.8895388 L10.4363757,47.2989376 L10.1557534,48.3337887 C9.59775679,50.3846754 9.13460011,52.4426991 8.77927514,54.4507644 L8.47266932,56.1824369 L2.81280377,52.8287407 C2.33405696,52.5439134 1.76371817,52.5114729 1.32459627,52.7437467 C0.791284018,53.0240324 0.489225314,53.5917407 0.555483353,54.1886454 C1.02708468,58.409151 3.26037032,61.1172818 6.8428515,61.8128055 L7.87439821,62.0132876 L7.82697824,63.0617637 C7.71979612,65.4454898 7.7438309,67.8538705 7.89973217,70.2194299 L8.02964989,72.1911619 L2.09890589,69.6757275 C1.5850813,69.459674 1.01604168,69.503793 0.611347973,69.7918644 C0.121558162,70.1422215 -0.101250731,70.7430191 0.0436075287,71.322406 C1.13751475,75.7005723 3.87423156,78.1108995 7.75097638,78.1108995 L8.90269698,78.0927328 L9.1066678,79.0750304 C9.55228559,81.2186969 10.1167781,83.3779348 10.7845552,85.4904585 L11.4237504,87.5140952 L5.04024311,86.0614108 C4.49458868,85.9342442 3.87942827,86.1632739 3.54748849,86.6219822 C3.20515529,87.0910714 3.17722298,87.7165238 3.47473456,88.2148095 C5.69632761,91.9285949 8.64740866,93.97494 11.784272,93.97494 C12.1941625,93.97494 12.6261389,93.937309 13.0691583,93.8646424 L13.9701377,93.7154162 L14.3676859,94.5432971 C15.1186104,96.1043327 15.9390408,97.659529 16.805592,99.1660646 L17.9956383,101.232523 L15.4654907,100.965862 L10.7105021,100.360523 C10.1726427,100.289803 9.61204774,100.548678 9.31323698,101.006088 C9.01247745,101.467392 9.00208404,102.070785 9.28660385,102.543118 C11.340603,105.948719 14.2104855,107.824427 17.3668366,107.824427 C18.5133605,107.824427 19.7274416,107.578528 20.9759509,107.093868 L21.8262624,106.764272 L22.3823102,107.486397 C23.3579923,108.752225 24.3973341,110.018701 25.4724032,111.251439 L27.0171249,113.021391 L18.686151,113.873927 C18.1957116,113.924534 17.7630856,114.167837 17.5292337,114.524682 C17.1368822,115.12548 17.2336709,115.910539 17.7598377,116.391956 C19.6637819,118.132063 22.7545245,120.205658 26.6637487,120.205658 C28.4247834,120.205658 30.1988099,119.772902 31.9377586,118.919069 L32.6717938,118.559629 L33.2830567,119.101384 C34.5107791,120.188789 35.8093068,121.276843 37.1435618,122.333753 L39.3703515,124.099164 L36.4036803,124.513104 L28.997071,125.344878 C28.1935299,125.435711 27.6322853,126.145509 27.7186806,126.959765 C27.7537584,127.291306 27.923301,127.612467 28.1961283,127.864205 C30.3488649,129.849562 33.7825903,132.217717 37.9172218,132.217717 C40.5623466,132.217717 43.1301704,131.221794 45.5485888,129.25655 L46.2170155,128.714146 L46.9517002,129.162473 C51.4293145,131.895907 56.2765447,134.375008 61.3582763,136.5323 L62.1501249,136.869032 L62.0975082,137.72546 C62.0897131,137.85652 62.0838668,137.988228 62.0838668,138.121234 C62.0838668,138.813514 62.1994936,139.496062 62.4268496,140.150061 L62.6106832,140.680139 L54.728575,154.128662 C54.5791696,154.383644 54.6064523,154.704156 54.7974314,154.926697 C54.98906,155.151834 55.3028113,155.23034 55.5769377,155.123287 L60.4754854,153.213191 L61.2043238,158.403667 C61.2452479,158.695631 61.4674072,158.929852 61.7571237,158.986298 C62.0494386,159.040798 62.3411039,158.90909 62.4879109,158.654108 L68.4576302,148.308192 L74.4273496,158.653459 C74.5748062,158.909739 74.8671211,159.04534 75.1574872,158.986298 C75.4485029,158.929852 75.6706622,158.69628 75.7109367,158.404965 L76.4404247,153.213191 L81.3389724,155.123287 C81.6143979,155.230989 81.9274996,155.152483 82.1178291,154.927995 C82.3081586,154.704156 82.3367405,154.383644 82.1886343,154.130608 L74.1220429,140.36871 L74.2701491,139.865234 C74.4364438,139.296877 74.5215399,138.711002 74.5215399,138.121234 C74.5215399,137.986931 74.5156936,137.853925 74.5065994,137.721568 L74.4513843,136.859949 L75.24778,136.523217 C80.3678374,134.36333 85.2449487,131.884878 89.7420506,129.157283 L90.474137,128.713497 L91.1399653,129.25136 C93.5772218,131.219199 96.163234,132.217068 98.8278465,132.217068 C102.988462,132.217068 106.442974,129.851509 108.608702,127.868098 C108.883478,127.61636 109.05367,127.295199 109.090047,126.96236 C109.178391,126.145509 108.616497,125.434414 107.811007,125.345527 L100.219265,124.494938 L97.4935915,124.055694 L99.6060536,122.333753 C100.950052,121.275545 102.258974,120.186843 103.499038,119.095545 L104.109002,118.558331 L104.839139,118.915176 C106.593029,119.771605 108.381996,120.205658 110.157321,120.205658 C114.049007,120.205658 117.135202,118.170992 119.039146,116.464623 C119.416557,116.125944 119.621178,115.660099 119.58675,115.218909 C119.532184,114.516897 118.98588,113.955677 118.288222,113.884308 L109.800048,113.020742 L111.358411,111.247546 C112.440625,110.014808 113.488412,108.747683 114.471889,107.47926 L115.027937,106.762326 L115.874351,107.089975 C117.135202,107.576582 118.360976,107.823778 119.516594,107.823778 C122.693082,107.823778 125.580504,105.949368 127.648144,102.545064 C127.934613,102.074029 127.925519,101.469987 127.624759,101.007386 C127.32335,100.543487 126.776396,100.2911 126.228144,100.359225 L121.444573,100.963916 C121.400401,100.969755 121.347135,100.974945 121.294518,100.978838 L118.976136,101.176076 L120.078488,99.1673622 C120.953484,97.6575826 121.779761,96.099791 122.53848,94.5335649 L122.934729,93.7134698 L123.83376,93.8626959 C124.282626,93.9366602 124.721748,93.97494 125.136835,93.97494 C128.293835,93.97494 131.263755,91.9298925 133.498989,88.2167559 C133.799099,87.719119 133.772466,87.0936667 133.432081,86.622631 C133.100142,86.1645715 132.485631,85.9329465 131.939327,86.0588156 L125.497356,87.514744 L126.141099,85.4917561 C126.814722,83.3746908 127.383112,81.2154528 127.831328,79.073084 L128.036598,78.0933817 L129.159737,78.1096019 C133.08715,78.1096019 135.855696,75.6986259 136.95545,71.3198107 C137.090564,70.7832453 136.913227,70.2272156 136.492943,69.8684239 Z" id="Stroke-39" stroke="#c75d76" stroke-width="0.25"></path>
            </g>
        </g>
    </g>
</svg>