<?xml version="1.0" encoding="UTF-8"?>
<svg width="150px" height="150px" viewBox="0 0 150 150" version="1.1" xmlns="http://www.w3.org/2000/svg" xmlns:xlink="http://www.w3.org/1999/xlink">
    <!-- Generator: Sketch 46 (44423) - http://www.bohemiancoding.com/sketch -->
    <title>Group 2</title>
    <desc>Created with Sketch.</desc>
    <defs></defs>
    <g id="Page-1" stroke="none" stroke-width="1" fill="none" fill-rule="evenodd">
        <g id="Group-2">
            <g id="Page-1" transform="translate(11.000000, 7.000000)" fill="#db89a7">
                <g id="Group-3" transform="translate(0.000000, 36.000000)">
                    <path d="M111.515919,28.784616 C111.539107,28.797636 111.563223,28.806936 111.583629,28.811586 L111.79047,28.937136 L111.850759,29.062686 C111.847049,29.119416 111.86931,29.230086 111.87673,29.256126 C111.8656,30.138696 111.81273,32.087976 111.497368,34.639896 C111.462122,34.926336 111.622586,35.204406 111.886933,35.317866 C111.975977,35.355996 112.060383,35.400636 112.143861,35.446206 C112.240325,35.499216 112.346991,35.526186 112.455513,35.526186 C112.539919,35.526186 112.621542,35.509446 112.698528,35.478756 C112.880325,35.404356 113.016672,35.255556 113.075107,35.069556 C114.018412,32.045196 115.322528,30.897576 116.27418,30.059646 C116.916962,29.493276 117.270354,29.181726 117.265716,28.548396 C117.190586,19.481826 114.419107,12.453816 109.028267,7.659666 C104.384093,3.529536 97.9145275,1.253826 90.8142377,1.253826 C89.5537159,1.253826 88.2709333,1.327296 87.0029913,1.469586 C86.1691362,1.563516 86.0578319,2.102916 85.8732522,2.993856 C85.663629,4.001046 85.3779478,5.377446 83.7371362,6.344646 C81.6511072,7.573176 80.0010203,8.460396 76.7741217,9.898176 C73.989658,11.139726 72.0798609,13.262916 71.0994551,16.206366 C68.7370203,23.298546 72.3803826,32.835696 72.8033391,33.900546 C72.901658,34.149786 73.1391072,34.310676 73.4062377,34.310676 C73.4526145,34.310676 73.4989913,34.306026 73.5453681,34.295796 C73.8570203,34.226976 74.0712812,33.945186 74.0545855,33.625266 C73.9766725,32.161446 73.9544116,30.702276 73.9859478,29.164986 C73.9970783,29.140806 74.0054261,29.115696 74.0082087,29.097096 L74.0249043,29.007816 C74.0870493,28.920396 74.1250783,28.844136 74.1408464,28.808796 L74.2614261,28.686036 C76.4337159,25.999266 83.5497739,17.194956 84.1025855,16.478856 C84.2472812,16.291926 84.2973681,16.266816 84.3029333,16.264026 L84.3122087,16.265886 C84.715687,16.265886 85.9947594,17.031276 88.1141797,18.300726 C93.3454841,21.432966 104.224557,27.947616 111.515919,28.784616 L111.515919,28.784616 Z M76.8984116,44.919186 C76.8891362,44.919186 76.9494261,45.007536 76.9642667,45.031716 C79.1189333,50.692626 83.4523826,57.516036 91.9866435,58.110306 C92.3400348,58.135416 92.6878609,58.147506 93.0329043,58.147506 C97.031513,58.147506 100.520904,56.494896 103.403687,53.236176 L103.473252,53.148756 C105.281948,51.079506 106.871745,48.342516 108.189774,45.027996 C108.21018,45.007536 108.225948,44.988006 108.236151,44.969406 L108.300151,44.860596 L108.346528,44.853156 L108.404035,44.808516 C108.424441,44.806656 108.444846,44.802936 108.464325,44.799216 C108.487513,44.796426 108.60531,44.767596 108.632209,44.759226 C111.104093,44.655066 112.967513,41.809266 113.126122,39.222936 C113.242064,37.306206 112.451803,36.060006 110.956614,35.803326 L110.83047,35.750316 C110.806354,35.722416 110.774817,35.688936 110.753484,35.674986 L110.720093,35.644296 L110.705252,35.601516 L110.664441,35.517816 L110.667223,35.466666 C110.667223,35.433186 110.658875,35.343906 110.656093,35.327166 C110.971455,33.094236 111.075339,31.220286 111.10873,30.050346 C111.117078,29.725776 110.883339,29.442126 110.564267,29.390046 C103.149542,28.174536 93.1228754,22.170456 87.7366725,18.943356 C86.6959768,18.321186 85.6580638,17.699946 85.0393971,17.362356 C84.9466435,17.310276 84.8390493,17.282376 84.7296,17.282376 C84.5311072,17.282376 84.3465275,17.371656 84.2222377,17.526966 C82.3764406,19.832436 76.1313391,27.558876 74.8726725,29.115696 C74.7817739,29.228226 74.7298319,29.369586 74.7270493,29.514666 C74.695513,31.596006 74.7567304,33.500646 74.9162667,35.339256 C74.9144116,35.342046 74.9144116,35.375526 74.9153391,35.403426 C74.9069913,35.432256 74.899571,35.461086 74.8977159,35.470386 L74.8800928,35.584776 L74.8049623,35.680566 C74.8058899,35.679636 74.8049623,35.678706 74.8040348,35.678706 C74.7966145,35.678706 74.7437449,35.715906 74.707571,35.741016 C74.6602667,35.751246 74.603687,35.767056 74.5749333,35.785656 C74.5758609,35.781936 74.5740058,35.780076 74.5693681,35.780076 C74.5573101,35.780076 74.5267014,35.791236 74.4970203,35.803326 L74.4552812,35.803326 C73.5398029,35.803326 72.813542,36.228336 72.3590493,37.054176 C71.5585855,38.509626 71.789542,40.934136 72.8979478,42.694626 C73.5008464,43.654386 74.5879188,44.798286 76.3344696,44.798286 C76.4040348,44.798286 76.4736,44.796426 76.5440928,44.791776 C76.5719188,44.794566 76.6099478,44.797356 76.6145855,44.797356 L76.805658,44.837346 L76.9049043,44.922906 C76.9021217,44.920116 76.9002667,44.919186 76.8984116,44.919186 L76.8984116,44.919186 Z M26.0647884,26.278266 C26.515571,26.283846 27.1871072,27.882516 30.7497739,36.847716 C30.8490203,37.096956 31.085542,37.256916 31.3526725,37.256916 C35.6861217,37.260636 39.5632232,37.301556 43.3197449,37.341546 L43.4189913,37.342476 C46.8100638,37.378746 50.003571,37.412226 53.1293681,37.412226 C53.3362087,37.412226 53.5050203,37.581486 53.5050203,37.788876 C53.5050203,38.155296 53.5272812,38.742126 53.5551072,39.456366 C53.6274551,41.330316 53.7378319,44.163096 53.5782957,46.136556 C53.5569623,46.401606 53.6960928,46.650846 53.931687,46.770816 C55.4138899,47.520396 56.1651942,49.182306 55.941658,51.215286 C55.6698899,53.690946 53.9687884,56.441886 51.2446145,56.910606 C51.0229333,56.949666 50.8402087,57.095676 50.7548754,57.303066 C50.1788754,58.689696 49.5305275,60.012156 48.8274551,61.232316 C48.711513,61.431336 48.711513,61.680576 48.8274551,61.882386 C48.9433971,62.084196 49.1585855,62.207886 49.389542,62.207886 L60.2092522,62.207886 C60.5589333,62.207886 60.843687,61.934466 60.8576,61.584786 C61.6385855,42.683466 60.589542,28.452606 52.9364406,20.431356 C48.7013101,15.991536 42.7112812,13.833936 34.6240928,13.833936 C26.8207304,13.833936 20.6943536,16.062216 16.4147014,20.458326 C7.71904928,29.385396 8.09562899,45.220506 8.34513623,55.697886 C8.39707826,57.866646 8.44531014,59.914506 8.38873043,61.534566 C8.38223768,61.709406 8.44809275,61.883316 8.5696,62.009796 C8.69110725,62.135346 8.86177391,62.207886 9.03707826,62.207886 L19.8976,62.207886 C20.1331942,62.207886 20.3502377,62.080476 20.4643246,61.874946 C20.5793391,61.669416 20.5737739,61.417386 20.4513391,61.216506 C19.6972522,59.987046 19.0433391,58.694346 18.5053681,57.374676 C18.4126145,57.147756 18.2039188,56.994306 17.9609043,56.972916 C16.4629333,56.840856 15.1393391,55.976886 14.2359188,54.540966 C12.9698319,52.527516 12.7333101,49.825866 13.6738319,48.116526 C14.1079188,47.326956 14.7748174,46.794996 15.6031072,46.576446 C15.9008464,46.498326 16.1039768,46.217466 16.0863536,45.909636 C15.9333101,43.214496 15.9351652,39.075066 15.9611362,37.802826 C15.9852522,37.731216 15.9973101,37.687506 16.0038029,37.655886 C16.0232812,37.631706 16.045542,37.601946 16.0473971,37.600086 L16.0993391,37.519176 C16.171687,37.471746 16.2514551,37.434546 16.3358609,37.434546 L20.5728464,37.434546 C20.831629,37.434546 21.0662957,37.280166 21.1692522,37.040226 C21.8899478,35.355996 22.5902377,33.753606 23.2339478,32.278626 L23.3202087,32.080536 C24.2792812,29.885736 25.1066435,27.992256 25.7058319,26.517276 L25.8032232,26.279196 L26.0647884,26.278266 Z M82.1213681,54.792996 C82.0360348,54.792996 81.9525565,54.808806 81.8737159,54.842286 C81.6418319,54.938076 81.4897159,55.153836 81.4730203,55.403076 C81.4192232,56.262396 81.3097739,56.991516 81.1381797,57.633216 C81.0704696,57.886176 81.159513,58.154016 81.3663536,58.314906 L92.5311072,67.065276 C92.6461217,67.156416 92.7843246,67.204776 92.9308754,67.204776 C93.0811362,67.204776 93.227687,67.151766 93.343629,67.055046 L103.464904,58.695276 C103.66618,58.529736 103.74873,58.260036 103.674528,58.008936 C103.493658,57.392346 103.374933,56.684616 103.314643,55.845756 C103.296093,55.598376 103.143049,55.386336 102.914875,55.291476 C102.836035,55.258926 102.751629,55.241256 102.666296,55.241256 C102.512325,55.241256 102.362064,55.297986 102.243339,55.398426 C99.5609043,57.717846 96.4610783,58.893366 93.0291942,58.893366 C92.6683826,58.893366 92.3029333,58.879416 91.9337739,58.855236 C88.3692522,58.605996 85.2119188,57.293766 82.5498899,54.954816 C82.4302377,54.849726 82.2790493,54.792996 82.1213681,54.792996 L82.1213681,54.792996 Z M18.5990493,56.247516 L18.7910493,56.287506 L18.8940058,56.373996 C18.8912232,56.392596 18.9403826,56.464206 18.9542957,56.485596 C20.3845565,60.232566 24.7309913,68.929926 34.6491362,69.607896 C34.9422377,69.629286 35.2307014,69.638586 35.5145275,69.638586 C43.807629,69.638586 48.3238029,61.405296 50.2809043,56.482806 C50.3013101,56.462346 50.3180058,56.441886 50.3282087,56.425146 L50.373658,56.347956 C50.4024116,56.328426 50.4358029,56.307966 50.439513,56.305176 L50.4970203,56.260536 C50.5137159,56.258676 50.5313391,56.255886 50.5471072,56.253096 C50.5730783,56.248446 50.6982957,56.218686 50.7233391,56.209386 C53.1664696,56.108016 54.9306435,53.544936 55.1949913,51.131586 C55.4157449,49.124646 54.6134261,47.667336 53.0486725,47.227446 C53.0264116,47.209776 53.0041507,47.196756 52.9874551,47.188386 L52.8909913,47.144676 C52.8909913,47.143746 52.8186435,47.058186 52.8186435,47.057256 C52.8177159,47.056326 52.781542,46.971696 52.781542,46.969836 C52.7685565,46.957746 52.7583536,46.734546 52.7546435,46.712226 C53.0152812,44.921976 52.8900638,41.698596 52.807513,39.565176 L52.7778319,38.789556 C52.7667014,38.438946 52.4819478,38.163666 52.1313391,38.161806 C49.2884406,38.156226 46.3833971,38.127396 43.3113971,38.094846 L43.2186435,38.093916 C39.3146435,38.052066 35.2789333,38.009286 30.6579478,38.009286 L30.4028754,38.009286 L30.3082667,37.772136 C28.9262377,34.292076 27.5460638,30.901296 26.7066435,28.923186 C26.6046145,28.683246 26.3708754,28.527006 26.1102377,28.527006 C25.8505275,28.527006 25.6158609,28.681386 25.5129043,28.920396 C25.0649043,29.964786 24.5584696,31.125426 24.0084406,32.384646 L23.9537159,32.510196 C23.2256,34.173966 22.431629,35.992116 21.6126145,37.912566 C21.5987014,37.950696 21.5847884,37.975806 21.5402667,38.032536 C21.5217159,38.057646 21.5050203,38.073456 21.4577159,38.105076 C21.3501217,38.177616 21.293542,38.185986 21.2573681,38.185986 L17.3487304,38.185986 C16.9925565,38.185986 16.7013101,38.477076 16.6994551,38.834196 C16.6883246,40.785336 16.7180058,44.651346 16.8970203,46.757796 C16.8951652,46.761516 16.8951652,46.795926 16.8960928,46.823826 C16.8877449,46.852656 16.8812522,46.880556 16.8793971,46.890786 L16.8645565,46.985646 C16.851571,46.994946 16.8042667,47.069346 16.7847884,47.100966 C16.7745855,47.101896 16.7226435,47.138166 16.6864696,47.164206 C16.6438029,47.173506 16.6020638,47.185596 16.6011362,47.185596 C16.5649623,47.194896 16.5232232,47.208846 16.4824116,47.224656 L16.4480928,47.224656 C15.5214841,47.224656 14.7878029,47.650596 14.3314551,48.481086 C13.5282087,49.940256 13.7600928,52.373136 14.8712812,54.139206 C15.7394551,55.519326 16.9294841,56.248446 18.3124406,56.248446 C18.3838609,56.248446 18.4562087,56.246586 18.5304116,56.241936 C18.5554551,56.244726 18.5925565,56.247516 18.5990493,56.247516 L18.5990493,56.247516 Z M103.962064,59.443926 C103.811803,59.443926 103.665252,59.496006 103.54931,59.592726 L94.443687,67.113636 C94.2897159,67.241046 94.2025275,67.427976 94.2062377,67.628856 C94.2108754,67.826016 94.3064116,68.015736 94.4631652,68.133846 L99.6443826,72.089136 C99.757542,72.176556 99.8938899,72.223056 100.037658,72.223056 C100.231513,72.223056 100.414238,72.136566 100.5376,71.987766 L107.958817,63.015126 C108.090528,62.855166 108.138759,62.639406 108.088672,62.439456 C108.037658,62.237646 107.892035,62.072106 107.700962,61.994916 C106.155687,61.371816 105.166006,60.668736 104.491687,59.717346 C104.385948,59.571336 104.224557,59.472756 104.048325,59.449506 L103.962064,59.443926 Z M80.813542,59.098896 C80.6354551,59.129586 80.4759188,59.234676 80.3766725,59.389986 C79.7376,60.388806 78.789658,61.144896 77.3056,61.839606 C77.1219478,61.926096 76.9874551,62.095356 76.9457159,62.293446 C76.9030493,62.492466 76.9568464,62.702646 77.0885565,62.856096 L85.523571,72.635976 C85.6469333,72.780126 85.8259478,72.861966 86.0142377,72.861966 C86.163571,72.861966 86.3082667,72.809886 86.4242087,72.715026 L91.7213681,68.386806 C91.8753391,68.259396 91.9616,68.073396 91.9606725,67.875306 C91.9578899,67.676286 91.8669913,67.492146 91.7111652,67.369386 L81.323687,59.228166 C81.2096,59.138886 81.067687,59.089596 80.9239188,59.089596 C80.9127884,59.089596 80.8246725,59.097036 80.813542,59.098896 L80.813542,59.098896 Z M93.2351072,68.300316 C93.0848464,68.300316 92.9392232,68.353326 92.8242087,68.447256 L89.479513,71.180526 C89.2383536,71.377686 89.1706435,71.719926 89.3181217,71.994276 L90.5786435,74.335086 C90.6918029,74.545266 90.9107014,74.677326 91.1490783,74.677326 L95.2766145,74.677326 C95.5214841,74.677326 95.7431652,74.540616 95.8553971,74.322066 L97.1456,71.792466 C97.2884406,71.511606 97.2105275,71.169366 96.9600928,70.978716 L93.6274551,68.434236 C93.5161507,68.347746 93.3760928,68.300316 93.2351072,68.300316 L93.2351072,68.300316 Z M24.1345855,66.005076 C24.045542,66.005076 23.9602087,66.023676 23.8804406,66.058086 C23.6504116,66.156666 23.4982957,66.374286 23.4862377,66.625386 C23.4398609,67.615836 23.3267014,68.435166 23.1402667,69.131736 C23.0725565,69.383766 23.1616,69.651606 23.367513,69.812496 L34.5721507,78.593556 C34.6853101,78.682836 34.8281507,78.732126 34.9728464,78.732126 C35.1231072,78.732126 35.269658,78.679116 35.3856,78.583326 L46.1487304,69.693456 C46.3731942,69.541866 46.4984116,69.255426 46.4399768,69.006186 C46.2832232,68.330076 46.187687,67.566546 46.1468754,66.670956 C46.1348174,66.414276 45.9734261,66.188286 45.7359768,66.093426 C45.6562087,66.063666 45.5773681,66.048786 45.4985275,66.048786 C45.3269333,66.048786 45.1646145,66.115746 45.0421797,66.236646 C42.2540058,68.994096 39.0577159,70.391886 35.5442087,70.391886 C35.2344116,70.391886 34.9181217,70.381656 34.5971942,70.360266 C30.8054261,70.101726 27.4301217,68.690916 24.5631072,66.166896 C24.4434551,66.062736 24.2913391,66.005076 24.1345855,66.005076 L24.1345855,66.005076 Z M75.6202667,62.583606 C75.5442087,62.583606 75.4690783,62.596626 75.397658,62.622666 C74.7808464,62.850516 74.1241507,63.076506 73.4247884,63.318306 C72.5946435,63.603816 71.8238609,63.869796 70.9983536,64.167396 C67.0266435,65.607966 61.5207884,68.325426 59.5692522,75.277176 C59.4839188,75.582216 59.6286145,75.903066 59.9124406,76.040706 C62.1700638,77.126946 64.1151072,78.610296 65.6965565,80.449836 C65.8199188,80.593056 65.9989333,80.675826 66.1881507,80.675826 L88.1206725,80.675826 C88.4545855,80.675826 88.7328464,80.423796 88.7671652,80.091786 C88.7690203,80.075046 88.7727304,79.988556 88.7727304,79.972746 L90.1779478,75.270666 C90.2271072,75.107916 90.2085565,74.926566 90.1269333,74.775906 L88.9582377,72.605286 C88.8664116,72.435096 88.7040928,72.314196 88.5130203,72.276066 C88.5018899,72.274206 88.3989333,72.263046 88.3868754,72.263046 C88.237542,72.263046 88.0919188,72.315126 87.9769043,72.409056 L86.125542,73.921236 L86.0643246,73.948206 C86.035571,73.961226 85.983629,73.990986 85.9558029,74.008656 C85.9585855,74.004936 85.9539478,74.004006 85.9446725,74.004006 C85.931687,74.004006 85.9122087,74.005866 85.8918029,74.005866 C85.8491362,74.005866 85.803687,73.997496 85.7600928,73.981686 C85.7378319,73.955646 85.7146435,73.936116 85.6960928,73.924026 L85.5690203,73.841256 L76.1962667,62.960256 C76.0599188,62.705436 75.8465855,62.583606 75.6202667,62.583606 L75.6202667,62.583606 Z M91.2909913,75.283686 C91.0062377,75.283686 90.7502377,75.475266 90.6686145,75.749616 L89.451687,79.837896 C89.3932522,80.033196 89.4303536,80.248956 89.5527884,80.413566 C89.6742957,80.577246 89.8690783,80.675826 90.0731362,80.675826 L96.5668174,80.675826 C96.773658,80.675826 96.9693681,80.575386 97.0918029,80.408916 C97.2133101,80.241516 97.2485565,80.024826 97.1854841,79.826736 L95.9110493,75.821226 C95.8609623,75.663126 95.7533681,75.531996 95.6086725,75.450156 C95.6040348,75.445506 95.3823536,75.283686 95.1866435,75.283686 L91.2909913,75.283686 Z M98.1065275,72.021246 C98.0564406,72.021246 98.0082087,72.026826 97.9609043,72.038916 C97.7753971,72.079836 97.6167884,72.203526 97.5286725,72.376506 L96.3701797,74.645706 C96.2922667,74.800086 96.2774261,74.974926 96.3302957,75.140466 L97.887629,80.033196 C97.9173101,80.425656 98.1946435,80.675826 98.527629,80.675826 L126.34073,80.675826 C126.516962,80.675826 126.687629,80.602356 126.810064,80.474016 C126.931571,80.346606 126.996499,80.172696 126.989078,79.995066 C126.464093,68.215686 116.795455,64.752366 114.86247,64.177626 C113.891339,63.888396 112.989774,63.635436 112.154064,63.401076 C111.246006,63.145326 110.443687,62.919336 109.696093,62.689626 C109.634875,62.671956 109.570875,62.661726 109.505948,62.661726 C109.29818,62.661726 109.101542,62.762166 108.980035,62.931426 C108.975397,62.937936 108.929948,63.012336 108.926238,63.018846 L100.48473,73.220016 C100.360441,73.296276 100.314991,73.330686 100.282528,73.359516 C100.28531,73.354866 100.27789,73.353006 100.266759,73.353006 C100.250064,73.353006 100.223165,73.355796 100.198122,73.355796 C100.16102,73.355796 100.121136,73.348356 100.079397,73.333476 L98.4988754,72.154236 C98.3884986,72.069606 98.2484406,72.021246 98.1065275,72.021246 L98.1065275,72.021246 Z M46.5642667,70.518366 C46.4140058,70.518366 46.2683826,70.571376 46.151513,70.667166 L36.4902957,78.645636 C36.3363246,78.773046 36.2500638,78.959976 36.2537739,79.160856 C36.2574841,79.358946 36.3539478,79.547736 36.5107014,79.665846 L41.7113971,83.636016 C41.8245565,83.723436 41.9599768,83.769936 42.1037449,83.769936 C42.2985275,83.769936 42.4803246,83.683446 42.6046145,83.534646 L50.2233971,74.321136 C50.3513971,74.165826 50.4005565,73.964016 50.3578899,73.768716 C50.3170783,73.572486 50.1900058,73.408806 50.0109913,73.321386 C48.6029913,72.625746 47.7134841,71.861286 47.1272812,70.844796 C47.0308174,70.678326 46.867571,70.563006 46.6802087,70.528596 C46.6690783,70.526736 46.5753971,70.518366 46.5642667,70.518366 L46.5642667,70.518366 Z M22.8128464,70.603926 C22.6329043,70.634616 22.4733681,70.740636 22.3759768,70.895016 C21.7350493,71.897556 20.7843246,72.656436 19.2947014,73.353006 C19.1110493,73.439496 18.9765565,73.608756 18.9338899,73.806846 C18.8912232,74.008656 18.9431652,74.213256 19.077658,74.369496 L27.539571,84.183786 C27.6629333,84.327006 27.8419478,84.409776 28.0311652,84.409776 C28.179571,84.409776 28.3251942,84.357696 28.4411362,84.262836 L33.7568464,79.918806 C33.9108174,79.792326 33.9980058,79.605396 33.9961507,79.408236 C33.9933681,79.208286 33.9024696,79.023216 33.7457159,78.901386 L23.3229913,70.733196 C23.2079768,70.643916 23.0669913,70.594626 22.9222957,70.594626 C22.9120928,70.594626 22.8230493,70.602066 22.8128464,70.603926 L22.8128464,70.603926 Z M17.5527884,74.109096 C17.4906435,74.109096 17.4312812,74.120256 17.375629,74.141646 C16.7551072,74.370426 16.0919188,74.600136 15.3851362,74.842866 L15.2070493,74.905176 C14.4687304,75.159996 13.7406145,75.412026 12.9651942,75.691956 C7.94073043,77.509176 1.21238261,81.132456 0.792208696,91.570776 C0.785715942,91.749336 0.849715942,91.919526 0.973078261,92.047866 C1.09551304,92.175276 1.26617971,92.247816 1.44148406,92.247816 L33.9646145,92.247816 C34.3226435,92.247816 34.6138899,91.955796 34.6138899,91.596816 L34.6138899,81.561186 C34.6138899,81.310086 34.4682667,81.079446 34.2419478,80.973426 C34.1566145,80.931576 34.0629333,80.910186 33.9646145,80.910186 C33.8152812,80.910186 33.6687304,80.961336 33.5537159,81.056196 L28.1443246,85.477416 C28.0450783,85.522056 27.9782957,85.561116 27.9588174,85.573206 C27.9616,85.557396 27.9161507,85.548096 27.8632812,85.544376 C27.8252522,85.540656 27.8002087,85.536936 27.781658,85.534146 C27.7603246,85.513686 27.7352812,85.496016 27.7111652,85.481136 L27.5813101,85.395576 L18.1788754,74.478306 C18.0824116,74.308116 17.823629,74.109096 17.5527884,74.109096 L17.5527884,74.109096 Z M36.0144696,80.401476 C35.9161507,80.401476 35.8169043,80.424726 35.7269333,80.468436 C35.5024696,80.580036 35.3642667,80.805096 35.3642667,81.052476 L35.3642667,91.596816 C35.3642667,91.955796 35.655513,92.247816 36.0144696,92.247816 L68.4977159,92.247816 C68.6739478,92.247816 68.8446145,92.174346 68.9661217,92.046006 C69.0885565,91.919526 69.1534841,91.744686 69.1460638,91.567986 C68.6164406,79.751406 58.9190493,76.275996 56.9804986,75.699396 L56.2227014,75.475266 C54.5011942,74.963766 53.0885565,74.538756 51.885542,74.103516 C51.8122667,74.078406 51.7389913,74.065386 51.6657159,74.065386 C51.4301217,74.065386 51.2121507,74.193726 51.0980638,74.400186 C51.0906435,74.415066 51.0479768,74.499696 51.0424116,74.513646 L42.5545275,84.773406 C42.4311652,84.849666 42.3857159,84.883146 42.3532522,84.912906 C42.3541797,84.909186 42.3486145,84.907326 42.3393391,84.907326 C42.3226435,84.907326 42.2938899,84.911046 42.2651362,84.911046 C42.2280348,84.911046 42.1872232,84.903606 42.1454841,84.888726 C42.1324986,84.878496 42.0490203,84.834786 42.0443826,84.832926 L36.4068174,80.535396 C36.2964406,80.449836 36.1563826,80.401476 36.0144696,80.401476 L36.0144696,80.401476 Z M0.379455072,93.000186 C0.327513043,93.000186 0.277426087,92.989956 0.231976812,92.971356 C0.221773913,92.965776 0.197657971,92.949966 0.139223188,92.898816 C0.12902029,92.891376 0.113252174,92.878356 0.0947014493,92.865336 C0.0891362319,92.848596 0.0826434783,92.833716 0.0761507246,92.821626 C0.0705855072,92.812326 0.0492521739,92.779776 0.0288463768,92.747226 C0.0307014493,92.724906 0.0316289855,92.703516 0.029773913,92.693286 C0.0269913043,92.680266 0.00380289855,92.590056 9.27536232e-05,92.578896 C-0.0221681159,79.585866 9.56113623,76.122546 12.7101217,74.985156 C13.511513,74.694066 14.2618899,74.434596 14.9631072,74.192796 L15.0679188,74.156526 C20.8789333,72.150516 23.0530783,71.400006 22.7377159,64.547766 C22.7302957,64.403616 22.675571,64.264116 22.5828174,64.155306 C22.3147594,63.840966 22.059687,63.525696 21.8166725,63.207636 C21.6951652,63.046746 21.5022377,62.950956 21.3009623,62.950956 C21.2889043,62.950956 21.1868754,62.962116 21.1748174,62.963976 L7.95371594,62.960256 L7.76171594,62.904456 L7.65597681,62.807736 L7.61423768,62.722176 C7.61052754,62.684976 7.60403478,62.641266 7.60403478,62.638476 C7.60310725,62.633826 7.58826667,62.568726 7.58270145,62.541756 C7.58270145,62.543616 7.58362899,62.544546 7.58362899,62.544546 C7.58733913,62.544546 7.58641159,62.498046 7.58455652,62.476656 C7.71626667,60.814746 7.65968696,58.452546 7.59383188,55.717416 C7.34246957,45.112626 6.96217971,29.085936 15.8767304,19.931946 C20.3038609,15.387036 26.6111072,13.081566 34.6240928,13.081566 C42.9273971,13.081566 49.095513,15.315426 53.4799768,19.910556 C61.395571,28.208946 62.4390493,42.978276 61.5708754,62.600346 L61.5272812,62.749146 C61.5105855,62.762166 61.4948174,62.777976 61.4827594,62.795646 L61.4178319,62.892366 L61.3417739,62.928636 C61.3056,62.931426 61.2582957,62.935146 61.2518029,62.936076 C61.203571,62.943516 61.1618319,62.954676 61.1200928,62.966766 L48.0854261,62.960256 C47.8748754,62.960256 47.6763826,63.063486 47.5539478,63.237396 C47.4027594,63.455016 47.2432232,63.667986 47.0827594,63.880956 C46.9491942,64.058586 46.8963246,64.210176 46.8963246,64.346886 C46.5614841,71.826876 48.6530783,72.446256 56.4360348,74.752656 L57.1947594,74.976786 C57.4869333,75.064206 57.7818899,75.168366 58.0768464,75.272526 C58.1491942,75.297636 58.221542,75.309726 58.2929623,75.309726 C58.3949913,75.309726 58.4960928,75.285546 58.5879188,75.239046 C58.7465275,75.157206 58.8652522,75.013056 58.9162667,74.842866 C61.0022957,67.733016 66.6667594,64.944876 70.7460638,63.467106 C71.5474551,63.176016 72.2950493,62.918406 72.9953391,62.677536 C78.8323246,60.665946 80.9953391,59.921016 80.7486145,53.338476 C80.7439768,53.196186 80.6901797,53.056686 80.5983536,52.945086 C79.0048464,51.045096 77.6358029,48.682896 76.5292522,45.920796 C76.4374261,45.691086 76.2278029,45.534846 75.9820058,45.514386 C74.4877449,45.386046 73.1687884,44.525796 72.2681507,43.093596 C71.0067014,41.087586 70.7711072,38.397096 71.7079188,36.693336 C71.8785855,36.384576 72.0984116,36.102786 72.363687,35.856336 C72.5733101,35.663826 72.6326725,35.359716 72.5111652,35.101176 C71.4658319,32.884986 68.0413681,23.156256 70.3704116,16.038966 C71.4129623,12.852786 73.4656,10.557546 76.4717449,9.217416 C79.6745275,7.788936 81.3042087,6.911946 83.3605565,5.702016 C84.717542,4.901286 84.9447884,3.806676 85.1451362,2.841336 C85.3352812,1.922496 85.5513971,0.881826 86.9204406,0.728376 C88.2180638,0.583296 89.5221797,0.509826 90.7966145,0.509826 C98.091687,0.509826 104.741194,2.850636 109.521716,7.101666 C115.077658,12.041826 117.932614,19.255836 118.0096,28.542816 C118.017948,29.517456 117.465136,30.004776 116.765774,30.619506 C115.742701,31.520676 114.340267,32.756646 113.456325,36.503616 C113.424788,36.642186 113.438701,36.790056 113.496209,36.920256 C113.797658,37.590786 113.922875,38.381286 113.868151,39.268506 C113.705832,41.919006 111.891571,44.956386 109.136788,45.453006 C108.91789,45.492996 108.73702,45.639006 108.652614,45.843606 C107.388383,48.889356 105.884846,51.444066 104.182817,53.437056 C104.087281,53.547726 104.032557,53.690016 104.026991,53.836956 C103.961136,55.696956 104.086354,56.981286 104.432325,58.001496 C104.462933,58.093566 104.51302,58.175406 104.58073,58.245156 C104.636383,58.306536 104.654933,58.370706 104.659571,58.456266 C104.666064,58.547406 104.691107,58.635756 104.731919,58.713876 C105.836614,60.853806 108.135049,61.499226 112.307107,62.670096 C113.162296,62.908176 114.082412,63.167646 115.074875,63.461526 C121.21702,65.287116 127.773774,70.862466 127.757078,81.037596 C127.749658,81.266376 127.586412,81.422616 127.386991,81.422616 L67.6953971,81.422616 C67.4588754,81.422616 67.2409043,81.550956 67.1268174,81.759276 C67.0127304,81.968526 67.0201507,82.222416 67.1472232,82.422366 C68.9948754,85.342566 69.9289043,88.774266 69.9214841,92.622606 L69.8964406,92.683986 L69.8778899,92.803956 C69.8324406,92.858826 69.8166725,92.883006 69.8101797,92.891376 C69.7387594,92.938806 69.7146435,92.960196 69.6933101,92.970426 C69.6460058,92.989956 69.5977739,93.000186 69.5458319,93.000186 L0.379455072,93.000186 Z" id="Fill-1"></path>
                </g>
                <g id="Group-6" transform="translate(26.000000, 0.000000)">
                    <path d="M51.3942,28.1265592 C51.4721167,28.1462735 51.4932,28.1566 51.5115333,28.1659878 C51.5958667,28.2232531 51.6123667,28.2410898 51.6288667,28.2608041 C51.6930333,28.3593755 51.7526167,28.4457429 51.77645,28.4757837 L54.2010333,34.1018653 C54.3128667,34.3609673 54.5530333,34.5308857 54.8280333,34.5468449 L54.82895,34.5468449 C55.1241167,34.5468449 55.3661167,34.4135388 55.5008667,34.1826 C63.6656167,20.1188041 63.6747833,20.1000286 63.6802833,20.0878245 C64.0982833,19.3846816 64.4411167,18.5857837 64.6675333,17.7812531 C64.9086167,16.9429265 65.0305333,16.075498 65.0305333,15.2043143 C65.0305333,7.69692653 56.0490333,1.58925306 45.0096167,1.58925306 C37.5837,1.58925306 30.8040333,4.37272245 27.3161167,8.85349796 C27.1566167,9.05815102 27.1126167,9.32851837 27.1987833,9.57447755 C27.2840333,9.81762041 27.4893667,10.0025592 27.73595,10.0560694 C36.3177833,11.9392531 42.3118667,17.5972531 42.3118667,23.8166408 C42.3118667,25.0952531 42.0597833,26.3766816 41.5638667,27.6224367 C41.4758667,27.8411714 41.4951167,28.0927633 41.6161167,28.2946 C41.7352833,28.4973755 41.9433667,28.6316204 42.1743667,28.654151 C43.11395,28.7433347 44.0691167,28.7893347 45.0142,28.7893347 C47.1527833,28.7893347 49.24095,28.5659061 51.22095,28.1237429 L51.3942,28.1265592 Z M21.4842833,10.2100286 C10.4421167,10.2100286 1.45786667,16.3139469 1.45786667,23.8166408 C1.45786667,24.6850082 1.58253333,25.5533755 1.82728333,26.3945184 C2.04911667,27.1934163 2.38553333,27.9791714 2.82553333,28.7301918 L10.9902833,42.7986816 C11.1222833,43.0249265 11.3642833,43.1657429 11.62095,43.1657429 C11.9335333,43.1479061 12.1755333,42.985498 12.2910333,42.7188857 L14.77795,36.9895388 L14.8622833,36.8768857 C14.9447833,36.7980286 14.9603667,36.7905184 14.9860333,36.7783143 C15.0777,36.7435796 15.0997,36.741702 15.1217,36.7398245 L15.3582,36.7454571 C17.26395,37.1857429 19.3310333,37.4101102 21.4842833,37.4101102 C32.52645,37.4101102 41.5107,31.3127633 41.5107,23.8166408 C41.5107,16.3139469 32.52645,10.2100286 21.4842833,10.2100286 L21.4842833,10.2100286 Z M11.7850333,45.3465184 C11.7291167,45.3465184 11.7025333,45.3418245 11.6713667,45.3343143 L11.5897833,45.306151 C11.5503667,45.2808041 11.5100333,45.2507633 11.4816167,45.2207224 L11.4000333,45.1146408 L2.14445,29.1620286 C1.6632,28.3396612 1.29745,27.4863143 1.05728333,26.6254571 C0.79145,25.7120286 0.6567,24.7676204 0.6567,23.8166408 C0.6567,15.8614571 10.0002833,9.3886 21.4842833,9.3886 C22.7520333,9.3886 24.0353667,9.4730898 25.3003667,9.63831429 L25.3031167,9.63831429 C25.6340333,9.63831429 25.86595,9.5228449 26.0052833,9.30504898 C29.3346167,4.12019184 36.79445,0.76782449 45.0096167,0.76782449 C56.4908667,0.76782449 65.8317,7.24443673 65.8317,15.2043143 C65.8317,16.1562327 65.6987833,17.099702 65.4375333,18.0103143 C65.1900333,18.8890082 64.82245,19.7451714 64.34395,20.5562735 C64.34395,20.5562735 64.1780333,20.8379061 55.0691167,36.5304776 C54.9701167,36.6440694 54.9352833,36.6675388 54.8940333,36.6872531 C54.8940333,36.6872531 54.7886167,36.7257429 54.7822,36.7285592 C54.7657,36.729498 54.7510333,36.729498 54.7372833,36.729498 C54.6786167,36.729498 54.6483667,36.7238653 54.6162833,36.7144776 L54.5117833,36.6666 C54.4815333,36.6468857 54.4467,36.612151 54.4155333,36.5717837 L54.3642,36.4919878 L51.3355333,29.5253347 C51.2172833,29.2549673 50.9551167,29.0803551 50.66545,29.0803551 C50.6498667,29.0803551 50.5472,29.0888041 50.5261167,29.093498 C48.7092833,29.4399061 46.8521167,29.6163959 45.0096167,29.6163959 C43.80145,29.6163959 42.5520333,29.5300286 41.1917,29.3544776 L41.1880333,29.3544776 C40.8607833,29.3544776 40.6297833,29.4680694 40.4895333,29.6821102 C37.11345,34.8754163 29.6536167,38.2315388 21.4842833,38.2315388 C19.6445333,38.2315388 17.7855333,38.0541102 15.9613667,37.7067633 C15.9448667,37.7030082 15.8412833,37.6936204 15.8275333,37.6936204 C15.5387833,37.6936204 15.2757,37.8682327 15.15745,38.1386 L12.1333667,45.1052531 C12.0242833,45.2545184 11.9922,45.2751714 11.9775333,45.2845592 C11.9775333,45.2845592 11.8867833,45.3221102 11.8372833,45.3455796 C11.8171167,45.3465184 11.7997,45.3465184 11.7850333,45.3465184 L11.7850333,45.3465184 Z" id="Fill-4"></path>
                </g>
                <path d="M56.9836558,26 C56.4345446,25.9875095 55.9917619,25.3050719 56.0001163,24.4784254 C56.0077112,23.663134 56.4558103,23 56.9988456,23 C57.2715025,23.0056775 57.5266911,23.1680545 57.7150446,23.4564724 C57.9026386,23.7426192 58.0044103,24.1207419 57.9998533,24.5215746 C57.9930179,25.336866 57.5441594,26 57.0003646,26 L56.9836558,26 Z" id="Fill-7"></path>
                <path d="M46.9836558,26 C46.4345446,25.9875095 45.9917619,25.3050719 46.0001163,24.4784254 C46.0077112,23.663134 46.4558103,23 46.9988456,23 C47.2715025,23.0056775 47.5266911,23.1680545 47.7150446,23.4564724 C47.9026386,23.7426192 48.0044103,24.1207419 47.9998533,24.5215746 C47.9930179,25.336866 47.5441594,26 47.0003646,26 L46.9836558,26 Z" id="Fill-9"></path>
                <path d="M37.982922,26 C37.4337965,25.9875095 36.9917619,25.3050719 37.0001165,24.4784254 C37.0069521,23.663134 37.4550628,23 37.9981121,23 C38.5571112,23.011355 39.0075004,23.6949281 38.9999053,24.5215746 C38.9923102,25.336866 38.5434401,26 37.9996312,26 L37.982922,26 Z" id="Fill-11"></path>
            </g>
        </g>
    </g>
</svg>