<?xml version="1.0" encoding="UTF-8"?>
<svg width="200px" height="200px" viewBox="0 0 200 200" version="1.1" xmlns="http://www.w3.org/2000/svg" xmlns:xlink="http://www.w3.org/1999/xlink">
    <!-- Generator: Sketch 46 (44423) - http://www.bohemiancoding.com/sketch -->
    <title>Group 7</title>
    <desc>Created with Sketch.</desc>
    <defs></defs>
    <g id="Page-1" stroke="none" stroke-width="1" fill="none" fill-rule="evenodd">
        <g id="Group-7">
            <g id="Page-1" transform="translate(21.000000, 57.000000)" stroke="#c75d76" stroke-width="1">
                <path d="M40,70.1956356 C45.8564375,75.9113678 57.4159844,83 78.7313819,83 C114.448472,83 123,63.098572 123,63.098572 L123,49" id="Stroke-1"></path>
                <polygon id="Stroke-3" points="157 36.2747563 78.5283294 66 0.0580406654 36.2740637 0 30.8700406 78.5283294 0 156.962688 30.7419175"></polygon>
                <polyline id="Stroke-5" points="0 30.1259263 78.5193515 59 157 30"></polyline>
                <polyline id="Stroke-7" points="73 31 35 44.4951039 35 58"></polyline>
                <path d="M85,29.4996233 C85,30.8827784 81.8652204,32 77.998594,32 C74.1333735,32 71,30.8827784 71,29.4996233 C71,28.1194817 74.1333735,27 77.998594,27 C81.8652204,27 85,28.1194817 85,29.4996233 Z" id="Stroke-9"></path>
                <path d="M28.0548437,87 C28.0548437,79.6700931 26.917742,66 34.9989058,66 C43.0829106,66 41.9450986,79.6700931 41.9450986,87 L28.0548437,87 Z" id="Stroke-11"></path>
                <path d="M34.3487756,57.0529494 C34.5612177,57.0178704 34.7789543,57 35.0013236,57 C37.209133,57 39,58.7910151 39,60.9996691 C39,63.2089849 37.209133,65 35.0013236,65 C32.7921906,65 31,63.2089849 31,60.9996691 C31,59.0134028 32.4493713,57.3646893 34.3487756,57.0529494" id="Stroke-13"></path>
            </g>
        </g>
    </g>
</svg>