<svg width="56" height="56" viewBox="0 0 56 56" xmlns="http://www.w3.org/2000/svg" xmlns:xlink="http://www.w3.org/1999/xlink"><title>Page 1</title><defs><path id="a" d="M0 19h21.37V.33H0z"/></defs><g fill="none" fill-rule="evenodd"><circle fill="#C75D76" cx="28" cy="28" r="28"/><g transform="translate(17 25)"><mask id="b" fill="#fff"><use xlink:href="#a"/></mask><path d="M1.165 8.133c.002 5.294 4.252 9.6 9.475 9.6 5.224 0 9.475-4.308 9.475-9.604V1.597H1.25l-.085 6.535zM10.685 19C4.77 19 0 14.124 0 8.13v-.01L.008.33h21.364v7.8c0 5.994-4.77 10.87-10.686 10.87z" fill="#FFF" mask="url(#b)"/></g><path d="M36.5 26h-1.25v-4.405c0-3.977-3.434-7.336-7.5-7.336s-7.5 3.358-7.5 7.335V26H19v-4.405C19 16.935 23.007 13 27.75 13s8.75 3.936 8.75 8.595V26zM26.508 35.684h1.906l-.764-2.89.42-.253c.248-.15.543-.438.543-.97 0-.69-.508-1.254-1.132-1.254-.624 0-1.132.563-1.132 1.255 0 .48.246.76.452.91l.35.255-.642 2.95zM30 37h-5l.808-3.72c-.416-.448-.648-1.05-.648-1.71 0-1.417 1.04-2.57 2.32-2.57 1.28 0 2.32 1.153 2.32 2.57 0 .725-.27 1.364-.755 1.82L30 37z" fill="#FFF"/></g></svg>