<svg width="91" height="124" viewBox="0 0 91 124" xmlns="http://www.w3.org/2000/svg"><title>no_avatar</title><path d="M5.24 66.86C2.39 64.642.54 61.378.1 57.792c-.44-3.587.57-7.2 2.8-10.042 4.715-5.89 13.294-6.88 19.226-2.22 2.853 2.216 4.704 5.478 5.144 9.063.44 3.585-.568 7.197-2.8 10.037-4.716 5.887-13.29 6.88-19.227 2.23zm13.653-17.25c-3.663-2.873-8.957-2.262-11.87 1.37-1.378 1.754-2 3.986-1.73 6.2.272 2.215 1.415 4.23 3.176 5.6 3.664 2.875 8.96 2.26 11.87-1.38 1.378-1.753 2-3.983 1.73-6.196-.273-2.213-1.416-4.227-3.177-5.594zM34.03 66.59c-2.853-2.218-4.704-5.48-5.144-9.068-.44-3.587.57-7.2 2.802-10.042 4.718-5.88 13.29-6.87 19.223-2.22 2.854 2.218 4.706 5.48 5.146 9.067.44 3.587-.566 7.2-2.798 10.043-4.715 5.89-13.295 6.88-19.228 2.22zm13.65-17.25c-3.666-2.87-8.96-2.255-11.868 1.38-1.378 1.753-2 3.983-1.73 6.196.272 2.213 1.415 4.226 3.176 5.594 3.663 2.878 8.96 2.267 11.872-1.37 1.378-1.755 2-3.987 1.727-6.2-.272-2.216-1.415-4.23-3.177-5.6zm15.14 16.98c-2.853-2.215-4.705-5.477-5.145-9.062-.44-3.585.567-7.198 2.8-10.038C65.187 41.33 73.767 40.34 79.7 45c2.853 2.215 4.705 5.477 5.145 9.062.44 3.585-.567 7.198-2.8 10.038-4.713 5.89-13.293 6.88-19.225 2.22zm13.65-17.24c-3.66-2.878-8.96-2.267-11.87 1.37-1.377 1.753-2 3.983-1.727 6.196.272 2.214 1.415 4.227 3.177 5.594 3.662 2.878 8.96 2.267 11.87-1.37 1.377-1.754 1.998-3.984 1.726-6.197s-1.416-4.226-3.177-5.593zM20.05 94.33c-2.854-2.216-4.705-5.478-5.145-9.063-.44-3.585.568-7.197 2.8-10.037 4.715-5.887 13.29-6.88 19.225-2.23 2.853 2.218 4.705 5.48 5.145 9.067.44 3.587-.567 7.2-2.8 10.043-4.714 5.89-13.293 6.88-19.226 2.22zM33.7 77.09c-3.662-2.878-8.96-2.267-11.87 1.37-1.378 1.752-2 3.982-1.73 6.196.272 2.213 1.415 4.227 3.176 5.594 3.663 2.88 8.96 2.267 11.872-1.37 1.378-1.753 2-3.983 1.727-6.196-.272-2.213-1.415-4.227-3.176-5.594zm15.147 16.98c-.69-.542-1.33-1.148-1.908-1.81-2.377-2.718-3.57-6.272-3.314-9.874.256-3.6 1.94-6.95 4.675-9.306 4.98-4.236 12.25-4.386 17.4-.36.697.546 1.34 1.16 1.916 1.83 2.38 2.714 3.576 6.268 3.32 9.87-.256 3.6-1.94 6.95-4.68 9.3-4.985 4.233-12.26 4.38-17.41.35zM62.47 76.8c-3.18-2.483-7.667-2.387-10.737.23-1.688 1.454-2.726 3.522-2.884 5.745-.16 2.223.576 4.417 2.042 6.095 3.082 3.468 8.36 3.866 11.927.9 1.692-1.45 2.734-3.52 2.89-5.745.16-2.225-.58-4.42-2.053-6.095-.362-.41-.76-.79-1.188-1.13zm-27.625 44.3c-2.852-2.216-4.703-5.477-5.144-9.062-.44-3.585.568-7.198 2.8-10.038 4.713-5.887 13.287-6.88 19.223-2.23 2.852 2.218 4.703 5.482 5.142 9.068.44 3.587-.568 7.2-2.8 10.042-4.714 5.882-13.285 6.872-19.216 2.22h-.005zm13.647-17.24c-3.66-2.878-8.96-2.267-11.868 1.37-1.377 1.753-2 3.983-1.727 6.196.272 2.213 1.415 4.226 3.176 5.594 3.66 2.873 8.954 2.262 11.864-1.37 1.38-1.752 2.002-3.982 1.732-6.195-.272-2.213-1.414-4.227-3.174-5.595h-.004zm-.106-69.79c-.47-.372-.81-.883-.97-1.46v.01c-.134-.52-3.23-12.68 4.687-21.21 6.74-7.26 19.088-9.37 36.7-6.26.947.162 1.728.83 2.036 1.74.308.904.092 1.905-.563 2.6-4.913 5.493-8.99 11.68-12.1 18.36-1.78 4.01-5.338 6.77-10.29 7.98-7.985 1.95-17.865-.48-19.497-1.76h-.004zM83.34 9.57c-13.125-1.67-22.54.17-27.377 5.38-4.757 5.13-4.18 12.34-3.72 15.17 2.746.79 10.352 2.22 15.926.19 2.307-.724 4.2-2.392 5.21-4.59 2.646-5.772 5.993-11.196 9.965-16.15h-.004zM39.67 39.36c-.63-.49-1-1.242-1.008-2.04-.24-27.55-21.8-32.12-22.015-32.16-.943-.144-1.73-.794-2.053-1.69-.323-.9-.128-1.9.508-2.613.636-.71 1.61-1.017 2.538-.797.258.05 25.98 5.48 26.26 37.25.004.69-.27 1.355-.757 1.845-.488.49-1.15.765-1.842.765-.59 0-1.164-.197-1.63-.56z" fill="#D7E6CB" fill-rule="evenodd"/></svg>