<svg width="84" height="73" viewBox="0 0 84 73" xmlns="http://www.w3.org/2000/svg" xmlns:xlink="http://www.w3.org/1999/xlink"><title>Page 1</title><defs><path id="a" d="M0 0v58h84V0H0z"/></defs><g fill="none" fill-rule="evenodd"><path fill="#FFF" d="M30 0l-6 10h36L54 0M42 53.25c-5.108 0-9.25-4.14-9.25-9.25 0-5.108 4.142-9.25 9.25-9.25 5.11 0 9.25 4.142 9.25 9.25 0 5.11-4.14 9.25-9.25 9.25m0-25.227c-8.844 0-15.977 7.134-15.977 15.977 0 8.844 7.133 15.977 15.977 15.977 8.844 0 15.977-7.133 15.977-15.977 0-8.844-7.133-15.977-15.977-15.977"/><g transform="translate(0 15)"><mask id="b" fill="#fff"><use xlink:href="#a"/></mask><path d="M72.667 14.89c-2.393 0-4.333-1.94-4.333-4.333 0-2.394 1.94-4.334 4.333-4.334 2.393 0 4.333 1.94 4.333 4.334 0 2.393-1.94 4.333-4.333 4.333M42 52c-12.678 0-23-10.32-23-23S29.322 6 42 6c12.68 0 23 10.32 23 23S54.68 52 42 52M75 0H9C4.014 0 0 4.014 0 9v40c0 4.986 4.014 9 9 9h66c4.986 0 9-4.014 9-9V9c0-4.986-4.014-9-9-9" fill="#FFF" mask="url(#b)"/></g></g></svg>