<svg width="316" height="372" viewBox="0 0 316 372" xmlns="http://www.w3.org/2000/svg"><title>Page 1</title><g fill="none" fill-rule="evenodd"><path d="M157.827 108.16c-27.39 0-49.672 22.28-49.672 49.667 0 27.39 22.282 49.672 49.672 49.672 27.39 0 49.672-22.283 49.672-49.673 0-27.386-22.283-49.668-49.673-49.668m0 111.627c-34.165 0-61.96-27.795-61.96-61.96s27.795-61.956 61.96-61.956 61.96 27.796 61.96 61.957c0 34.16-27.795 61.96-61.96 61.96m0-206.082C78.357 13.705 13.7 78.36 13.7 157.83c0 105.637 122.484 185.616 143.98 198.833 21.34-14.258 144.27-100.7 144.27-198.832.003-79.47-64.652-144.125-144.123-144.125m0 356.352c-1.053 0-2.105-.27-3.047-.81-6.263-3.58-153.363-89.044-153.363-211.42-.004-86.245 70.165-156.41 156.41-156.41 86.245 0 156.414 70.165 156.414 156.414 0 113.718-146.886 207.357-153.144 211.285-.996.627-2.134.942-3.27.942" fill="#000"/><path d="M157.827 108.16c-27.39 0-49.672 22.28-49.672 49.667 0 27.39 22.282 49.672 49.672 49.672 27.39 0 49.672-22.283 49.672-49.673 0-27.386-22.283-49.668-49.673-49.668zm0 111.627c-34.165 0-61.96-27.795-61.96-61.96s27.795-61.956 61.96-61.956 61.96 27.796 61.96 61.957c0 34.16-27.795 61.96-61.96 61.96zm0-206.082C78.357 13.705 13.7 78.36 13.7 157.83c0 105.637 122.484 185.616 143.98 198.833 21.34-14.258 144.27-100.7 144.27-198.832.003-79.47-64.652-144.125-144.123-144.125zm0 356.352c-1.053 0-2.105-.27-3.047-.81-6.263-3.58-153.363-89.044-153.363-211.42-.004-86.245 70.165-156.41 156.41-156.41 86.245 0 156.414 70.165 156.414 156.414 0 113.718-146.886 207.357-153.144 211.285-.996.627-2.134.942-3.27.942z" stroke="#000" stroke-width="2.835"/></g></svg>