<svg xmlns="http://www.w3.org/2000/svg" width="21.125" height="17.16" viewBox="0 0 21.125 17.16"><path id="_" data-name="“" d="M8.238.01c-.656.4-1.47.92-2.444 1.55a16.16 16.16 0 0 0-2.76 2.31A13.394 13.394 0 0 0 .873 6.9a7.956 7.956 0 0 0-.888 3.75 8.466 8.466 0 0 0 1.174 4.71 4.324 4.324 0 0 0 3.9 1.79 3.444 3.444 0 0 0 2.745-1.16 3.736 3.736 0 0 0 1-2.49 3.53 3.53 0 0 0-1.127-2.84 4.57 4.57 0 0 0-3.094-.97H3.06A9.066 9.066 0 0 1 3.727 7a7.308 7.308 0 0 1 1.365-1.99 10.78 10.78 0 0 1 1.872-1.63q.92-.615 2.412-1.47zm11.743 0c-.655.4-1.47.92-2.443 1.55a16.2 16.2 0 0 0-2.76 2.31 13.36 13.36 0 0 0-2.16 3.03 7.945 7.945 0 0 0-.888 3.75 8.466 8.466 0 0 0 1.173 4.71 4.324 4.324 0 0 0 3.9 1.79 3.444 3.444 0 0 0 2.745-1.16 3.736 3.736 0 0 0 1-2.49 3.53 3.53 0 0 0-1.127-2.84 4.57 4.57 0 0 0-3.093-.97h-1.523a9.108 9.108 0 0 1 .65-2.67 7.23 7.23 0 0 1 1.38-2.01 10.818 10.818 0 0 1 1.873-1.63q.92-.615 2.412-1.47z"/></svg>