<svg width="49" height="49" viewBox="0 0 49 49" xmlns="http://www.w3.org/2000/svg"><title>twitter</title><g fill="none" fill-rule="evenodd"><path d="M13.5 32.48c2.357.266 4.725-.398 6.6-1.85-.03-.036-.076-.055-.122-.05-.04-.008-.08-.012-.12-.01-.237-.016-.47-.053-.7-.11-1.483-.364-2.684-1.445-3.2-2.88-.016-.046-.03-.093-.04-.14.23.03.446.05.663.07.22.01.44 0 .656-.03.22-.022.435-.06.65-.11-.042-.036-.092-.06-.145-.07-1.16-.29-2.157-1.032-2.77-2.06-.34-.55-.553-1.168-.623-1.81-.024-.19-.032-.38-.025-.57.045.02.082.02.115.04.416.21.86.36 1.32.44.12.02.24.04.36.05h.172c.013-.06-.04-.07-.066-.09-.36-.26-.68-.574-.947-.93-1.068-1.41-1.224-3.313-.4-4.88.018-.04.04-.07.06-.11.013-.006.025-.013.036-.02.036.034.07.07.1.11.45.533.94 1.03 1.465 1.49 1.584 1.377 3.484 2.342 5.53 2.81.578.133 1.164.227 1.754.28l.378.03c.028 0 .056-.01.094-.01 0-.04 0-.07-.012-.11-.315-1.523.172-3.1 1.29-4.18.66-.656 1.513-1.084 2.433-1.22 1.375-.235 2.78.187 3.8 1.14.07.07.14.15.22.22.064.004.128-.003.19-.02.887-.196 1.74-.523 2.53-.97.045-.02.09-.043.13-.07.016.058.005.12-.03.17-.33.887-.927 1.65-1.71 2.18-.04.03-.09.06-.14.1.02.024.052.032.08.02.787-.11 1.557-.322 2.29-.63.036-.024.08-.028.12-.01-.298.444-.636.86-1.01 1.24-.37.384-.77.735-1.2 1.05-.005.063-.005.127 0 .19.012.474-.002.948-.04 1.42-.07.815-.218 1.622-.44 2.41-.503 1.843-1.392 3.558-2.61 5.03-1.717 2.087-4.08 3.543-6.715 4.14-.578.128-1.164.222-1.753.28-.607.062-1.218.078-1.828.05-2.227-.08-4.392-.74-6.282-1.92-.048-.017-.088-.053-.108-.1z" fill="#AF5D74"/><circle stroke="#AF5D74" cx="24.5" cy="24.5" r="24"/></g></svg>