<svg width="75" height="75" viewBox="0 0 75 75" xmlns="http://www.w3.org/2000/svg"><title>User</title><g fill="none" fill-rule="evenodd"><circle stroke="#a2b097" stroke-width="2" cx="37.5" cy="37.5" r="36.5"/><path d="M14.928 66.666L14 64.896c.104-.055 10.356-5.432 12.448-6.88 1.638-1.135 1.575-2.712 1.57-2.78v-4.664c-1.63-1.786-3.1-4.725-4.014-8.026C21.91 41.31 22 37.58 22.018 37.13v-3.625c0-1.864.998-3.298 1.583-3.978-.256-1.466-.76-5.677.8-10.497 2.362-7.304 12.624-7.044 13.067-7.024l-.067 1.998c-.093 0-9.202-.224-11.1 5.64-1.716 5.31-.655 9.916-.644 9.96l.136.58-.44.397c-.01.01-1.335 1.248-1.335 2.925v3.667c-.052 1.35.278 3.428 1.15 3.717l.515.17.136.528c.867 3.353 2.328 6.298 3.906 7.877l.293.293v5.414c.006.035.177 2.682-2.43 4.488-2.193 1.518-12.232 6.782-12.66 7.006" fill="#a2b097"/><path d="M59.54 66.666l.927-1.77c-.104-.055-10.356-5.432-12.448-6.88-1.64-1.135-1.576-2.712-1.572-2.78l.002-4.664c1.63-1.786 3.1-4.725 4.013-8.026 2.094-1.237 2.005-4.965 1.986-5.416v-3.625c0-1.864-1-3.298-1.584-3.978.257-1.466.762-5.677-.798-10.497-2.363-7.304-12.625-7.044-13.068-7.024l.067 1.998c.093 0 9.202-.224 11.1 5.64 1.716 5.31.655 9.916.644 9.96l-.135.58.44.397c.01.01 1.335 1.248 1.335 2.925v3.667c.052 1.35-.278 3.428-1.15 3.717l-.515.17-.136.528c-.868 3.353-2.33 6.298-3.907 7.877l-.293.293v5.414c-.006.035-.177 2.682 2.43 4.488 2.193 1.518 12.232 6.782 12.66 7.006" fill="#a2b097"/></g></svg>