<svg width="49" height="49" viewBox="0 0 49 49" xmlns="http://www.w3.org/2000/svg"><title>vkontakte</title><g fill="none" fill-rule="evenodd"><circle stroke="#AF5D74" cx="24.5" cy="24.5" r="24"/><path d="M32.155 26.41c.825.773 1.61 1.588 2.353 2.44.324.386.606.805.84 1.25.176.245.217.56.11.842-.107.282-.348.49-.64.558h-3.5c-.852.064-1.68-.286-2.23-.94-.482-.5-.932-1.05-1.4-1.57-.18-.22-.393-.416-.627-.58-.177-.162-.425-.225-.66-.166-.233.058-.422.23-.504.456-.248.53-.373 1.106-.368 1.69.064.31-.033.632-.258.855-.224.224-.546.32-.856.255-1.74.14-3.483-.246-5-1.11-1.338-.835-2.485-1.942-3.367-3.25-1.758-2.558-3.244-5.293-4.432-8.16-.28-.64-.076-.99.61-1 1.142-.02 2.284-.02 3.425 0 .442.01.827.305.95.73.602 1.563 1.38 3.053 2.32 4.44.23.382.527.72.876 1 .14.144.348.198.54.14.19-.06.333-.222.366-.42.115-.298.182-.61.2-.93.106-1.085.087-2.18-.054-3.26-.038-.628-.504-1.146-1.124-1.25-.334-.06-.284-.19-.123-.39.24-.356.646-.563 1.075-.55h3.95c.525.063.902.535.85 1.06v4.54c-.026.454.185.888.556 1.15.322.047.64-.113.79-.4.915-1.06 1.665-2.248 2.226-3.53.267-.56.5-1.13.722-1.71.105-.4.48-.668.892-.64l3.8.01c.113-.003.227.003.34.02.254-.017.496.11.627.33.13.22.126.494-.01.71-.358.978-.87 1.893-1.514 2.71-.635.91-1.312 1.78-1.943 2.69-.283.266-.428.65-.39 1.036.035.387.25.735.577.944h.008z" fill="#AF5D74"/></g></svg>